<svg id="svg" version="1.1" xmlns="http://www.w3.org/2000/svg" xmlns:xlink="http://www.w3.org/1999/xlink" width="200" height="57" viewBox="0, 0, 400,103.91414141414141"><g id="svgg"><path id="path0" d="M52.083 3.288 C 47.727 3.616,46.768 3.743,43.383 4.439 C 42.723 4.575,42.003 4.718,41.783 4.758 C 41.564 4.798,40.808 5.019,40.104 5.249 C 39.399 5.479,38.741 5.667,38.641 5.667 C 38.479 5.667,36.448 6.439,34.833 7.115 C 32.573 8.061,27.413 10.840,27.000 11.333 C 26.954 11.388,26.579 11.628,26.167 11.867 C 25.754 12.106,25.229 12.463,25.000 12.661 C 24.771 12.858,24.414 13.166,24.207 13.343 C 24.000 13.521,23.763 13.667,23.679 13.667 C 23.596 13.667,23.503 13.723,23.472 13.792 C 23.442 13.860,23.042 14.211,22.583 14.572 C 21.501 15.423,17.212 19.722,16.587 20.583 C 16.320 20.950,16.023 21.325,15.925 21.417 C 15.514 21.804,13.833 24.123,13.833 24.303 C 13.833 24.411,13.758 24.500,13.667 24.500 C 13.575 24.500,13.500 24.570,13.500 24.654 C 13.500 24.788,13.184 25.295,11.825 27.338 C 11.529 27.783,8.987 32.956,8.921 33.247 C 8.900 33.340,8.759 33.696,8.608 34.036 C 8.457 34.377,8.333 34.741,8.333 34.844 C 8.333 34.948,8.227 35.269,8.098 35.558 C 7.567 36.743,7.120 38.263,6.831 39.864 C 6.754 40.293,6.610 40.795,6.512 40.978 C 6.414 41.161,6.333 41.536,6.333 41.812 C 6.333 42.087,6.263 42.496,6.177 42.722 C 5.972 43.262,5.866 44.013,5.536 47.250 C 5.389 48.688,5.393 54.916,5.541 56.167 C 5.600 56.671,5.723 57.739,5.814 58.541 C 5.905 59.342,6.029 60.078,6.089 60.175 C 6.149 60.273,6.257 60.742,6.329 61.218 C 6.604 63.039,7.831 67.328,8.194 67.742 C 8.271 67.829,8.333 68.031,8.333 68.192 C 8.333 68.638,10.240 73.053,10.644 73.542 C 10.777 73.702,10.831 73.833,10.764 73.833 C 10.697 73.833,10.761 73.952,10.906 74.097 C 11.051 74.242,11.127 74.429,11.075 74.513 C 11.023 74.598,11.052 74.667,11.139 74.667 C 11.226 74.667,11.419 74.971,11.568 75.344 C 11.717 75.716,12.025 76.221,12.253 76.467 C 12.480 76.712,12.667 76.978,12.667 77.057 C 12.667 77.137,12.892 77.535,13.167 77.943 C 13.442 78.350,13.667 78.716,13.667 78.757 C 13.667 78.853,14.748 80.320,15.135 80.750 C 15.709 81.387,16.318 82.293,16.243 82.396 C 16.201 82.453,16.216 82.463,16.276 82.418 C 16.438 82.297,16.845 82.680,16.738 82.852 C 16.688 82.933,16.759 83.000,16.896 83.000 C 17.032 83.000,17.192 83.150,17.250 83.333 C 17.308 83.517,17.426 83.667,17.511 83.667 C 17.597 83.667,17.667 83.784,17.667 83.927 C 17.667 84.069,17.733 84.145,17.814 84.095 C 17.896 84.045,18.055 84.115,18.168 84.252 C 18.281 84.388,18.329 84.500,18.274 84.500 C 18.219 84.500,18.509 84.809,18.918 85.186 C 19.328 85.563,19.614 85.950,19.555 86.045 C 19.497 86.140,19.524 86.171,19.617 86.114 C 19.828 85.984,20.548 86.729,20.377 86.901 C 20.307 86.971,20.325 87.006,20.417 86.978 C 20.712 86.891,21.349 87.340,21.228 87.550 C 21.165 87.660,21.176 87.693,21.253 87.623 C 21.438 87.455,22.352 88.335,22.218 88.551 C 22.162 88.643,22.192 88.671,22.286 88.613 C 22.380 88.555,22.673 88.693,22.937 88.920 C 23.201 89.147,23.468 89.333,23.530 89.333 C 23.593 89.333,23.692 89.484,23.751 89.669 C 23.809 89.854,23.925 89.963,24.009 89.911 C 24.228 89.776,26.017 91.171,25.889 91.378 C 25.828 91.477,25.862 91.502,25.970 91.435 C 26.275 91.247,27.590 92.176,27.367 92.424 C 27.303 92.495,27.337 92.503,27.444 92.442 C 27.551 92.381,28.098 92.613,28.660 92.957 C 29.222 93.302,29.831 93.667,30.014 93.769 C 30.197 93.870,30.444 94.088,30.564 94.252 C 30.685 94.417,30.869 94.498,30.975 94.432 C 31.080 94.367,31.167 94.393,31.167 94.490 C 31.167 94.587,31.223 94.658,31.292 94.647 C 31.641 94.592,31.840 94.687,31.734 94.859 C 31.663 94.974,31.688 95.006,31.795 94.940 C 32.006 94.810,32.833 95.152,32.833 95.370 C 32.833 95.452,32.909 95.473,33.001 95.416 C 33.093 95.359,33.214 95.429,33.269 95.572 C 33.323 95.715,33.432 95.792,33.511 95.743 C 33.589 95.695,33.787 95.727,33.952 95.814 C 34.378 96.040,35.352 96.444,35.792 96.576 C 35.998 96.638,36.167 96.747,36.167 96.817 C 36.167 96.887,36.260 96.953,36.375 96.962 C 36.684 96.989,37.024 97.091,37.583 97.323 C 37.858 97.438,38.233 97.550,38.417 97.573 C 38.957 97.640,39.500 97.846,39.500 97.983 C 39.500 98.054,39.594 98.123,39.708 98.137 C 40.354 98.219,40.610 98.279,40.794 98.392 C 40.907 98.462,41.130 98.547,41.291 98.580 C 41.452 98.614,42.033 98.756,42.583 98.895 C 43.133 99.034,43.846 99.167,44.167 99.190 C 44.487 99.214,44.825 99.286,44.917 99.352 C 45.008 99.417,45.533 99.516,46.083 99.572 C 47.047 99.669,47.439 99.732,48.333 99.932 C 48.563 99.984,49.612 100.067,50.667 100.117 C 51.721 100.166,52.621 100.266,52.667 100.338 C 52.713 100.410,53.292 100.465,53.954 100.461 C 54.616 100.457,55.123 100.398,55.082 100.331 C 54.989 100.181,56.819 100.009,57.154 100.135 C 57.337 100.204,57.318 100.254,57.071 100.351 C 56.822 100.448,56.874 100.479,57.302 100.488 C 57.629 100.495,57.811 100.432,57.750 100.333 C 57.693 100.242,57.726 100.167,57.823 100.167 C 57.921 100.167,58.000 100.242,58.000 100.333 C 58.000 100.425,58.169 100.499,58.375 100.497 C 58.678 100.495,58.702 100.464,58.500 100.333 C 58.362 100.244,58.329 100.171,58.425 100.169 C 58.521 100.168,58.675 100.242,58.767 100.334 C 58.878 100.445,69.209 100.487,89.425 100.459 L 119.917 100.417 119.904 67.750 C 119.897 49.783,119.842 34.596,119.782 34.000 C 119.723 33.404,119.632 32.317,119.582 31.583 C 119.474 30.026,119.397 29.283,119.330 29.167 C 119.304 29.121,119.268 29.008,119.251 28.917 C 119.094 28.085,118.656 26.474,118.458 26.000 C 118.363 25.771,118.262 25.403,118.234 25.182 C 118.206 24.961,118.086 24.718,117.967 24.643 C 117.848 24.567,117.815 24.504,117.895 24.503 C 117.975 24.501,117.947 24.387,117.833 24.250 C 117.719 24.113,117.677 24.000,117.739 24.000 C 117.877 24.000,117.314 22.963,117.088 22.801 C 116.999 22.737,116.980 22.631,117.045 22.566 C 117.110 22.501,117.074 22.339,116.964 22.207 C 116.854 22.075,116.751 21.873,116.734 21.759 C 116.718 21.645,116.507 21.240,116.266 20.859 C 116.026 20.478,115.886 20.166,115.956 20.164 C 116.026 20.163,116.000 20.106,115.899 20.039 C 115.797 19.972,115.556 19.557,115.363 19.117 C 115.170 18.677,114.728 17.945,114.381 17.489 C 112.624 15.183,111.789 14.167,111.652 14.167 C 111.568 14.167,111.500 14.093,111.500 14.002 C 111.500 13.758,110.956 13.167,110.732 13.167 C 110.626 13.167,110.500 13.017,110.452 12.834 C 110.404 12.651,110.227 12.450,110.057 12.387 C 109.744 12.270,109.154 11.780,108.337 10.958 C 108.086 10.706,107.801 10.500,107.704 10.500 C 107.607 10.500,107.503 10.444,107.472 10.375 C 107.414 10.245,106.400 9.433,105.754 9.000 C 104.022 7.839,103.341 7.420,102.681 7.109 C 102.261 6.912,101.892 6.693,101.861 6.624 C 101.830 6.555,101.736 6.540,101.652 6.592 C 101.569 6.644,101.500 6.607,101.500 6.510 C 101.500 6.413,101.444 6.341,101.375 6.351 C 101.123 6.388,100.500 6.124,100.500 5.981 C 100.500 5.900,100.331 5.831,100.125 5.828 C 99.919 5.825,99.608 5.715,99.434 5.583 C 99.260 5.452,99.054 5.384,98.975 5.432 C 98.897 5.480,98.833 5.449,98.833 5.362 C 98.833 5.275,98.627 5.164,98.375 5.115 C 98.123 5.066,97.501 4.874,96.992 4.689 C 96.483 4.504,95.858 4.314,95.603 4.268 C 95.347 4.221,95.051 4.113,94.944 4.027 C 94.837 3.940,94.375 3.824,93.917 3.769 C 93.458 3.713,92.858 3.630,92.583 3.584 C 92.308 3.538,91.108 3.465,89.917 3.422 C 88.725 3.379,87.368 3.305,86.901 3.257 C 86.434 3.209,86.002 3.220,85.941 3.281 C 85.880 3.342,85.400 3.412,84.874 3.437 C 84.347 3.462,83.729 3.513,83.500 3.550 C 83.271 3.587,82.671 3.675,82.167 3.744 C 81.662 3.814,81.175 3.930,81.083 4.003 C 80.902 4.147,79.925 4.359,79.458 4.356 C 79.298 4.355,79.167 4.412,79.167 4.483 C 79.167 4.553,79.069 4.611,78.949 4.611 C 78.548 4.611,76.667 5.228,76.667 5.360 C 76.667 5.431,76.554 5.446,76.417 5.394 C 76.279 5.341,76.167 5.381,76.167 5.482 C 76.167 5.584,76.110 5.651,76.042 5.633 C 75.816 5.571,74.590 6.036,74.292 6.297 C 74.131 6.437,74.000 6.491,74.000 6.417 C 74.000 6.342,73.837 6.425,73.638 6.599 C 73.439 6.774,73.336 6.815,73.409 6.691 C 73.509 6.519,73.446 6.526,73.146 6.717 C 72.843 6.909,72.653 6.927,72.333 6.792 C 72.104 6.696,71.842 6.595,71.750 6.569 C 71.658 6.542,71.058 6.330,70.417 6.097 C 69.775 5.864,69.125 5.672,68.972 5.670 C 68.819 5.668,68.339 5.514,67.905 5.328 C 67.471 5.142,66.846 4.951,66.516 4.904 C 66.187 4.856,65.804 4.770,65.667 4.712 C 65.384 4.593,65.400 4.597,63.583 4.239 C 62.850 4.095,62.137 3.952,62.000 3.921 C 61.602 3.833,60.144 3.648,59.417 3.594 C 59.050 3.567,58.637 3.499,58.500 3.443 C 58.251 3.342,53.038 3.216,52.083 3.288 M60.583 7.322 C 93.908 12.381,110.129 50.101,90.888 77.792 C 88.471 81.271,82.775 87.131,81.974 86.963 C 81.851 86.938,81.767 87.006,81.789 87.116 C 81.842 87.390,80.881 88.049,80.642 87.901 C 80.525 87.829,80.493 87.854,80.562 87.966 C 80.693 88.177,80.105 88.549,79.925 88.369 C 79.859 88.304,79.831 88.363,79.861 88.500 C 79.892 88.638,79.823 88.731,79.708 88.708 C 79.594 88.685,79.500 88.734,79.500 88.817 C 79.500 88.973,78.394 89.699,78.059 89.763 C 77.954 89.782,77.710 89.957,77.517 90.149 C 77.324 90.342,77.092 90.500,77.000 90.500 C 76.711 90.500,76.590 90.553,76.363 90.780 C 76.242 90.901,76.044 91.000,75.923 91.000 C 75.801 91.000,75.659 91.112,75.606 91.250 C 75.554 91.388,75.358 91.500,75.172 91.500 C 74.986 91.500,74.833 91.564,74.833 91.641 C 74.833 91.752,73.792 92.280,73.333 92.403 C 73.287 92.415,73.063 92.550,72.833 92.703 C 72.604 92.856,72.221 93.016,71.982 93.058 C 71.742 93.101,71.255 93.283,70.898 93.462 C 70.542 93.642,69.950 93.883,69.583 93.999 C 69.217 94.115,68.823 94.285,68.708 94.375 C 68.594 94.466,68.500 94.498,68.500 94.446 C 68.500 94.394,68.102 94.488,67.616 94.656 C 67.129 94.823,66.417 95.013,66.033 95.078 C 65.649 95.143,65.293 95.264,65.241 95.348 C 65.189 95.432,64.921 95.500,64.646 95.500 C 64.370 95.500,64.006 95.574,63.836 95.665 C 63.556 95.815,62.560 95.989,60.525 96.244 C 60.126 96.294,59.745 96.368,59.678 96.410 C 59.087 96.775,50.934 96.817,49.083 96.464 C 48.625 96.377,47.987 96.278,47.667 96.244 C 46.099 96.081,45.372 95.969,44.888 95.816 C 44.597 95.724,44.147 95.613,43.888 95.570 C 43.629 95.526,43.304 95.444,43.167 95.387 C 42.856 95.258,42.852 95.257,41.333 94.824 C 40.646 94.629,39.971 94.465,39.833 94.462 C 39.696 94.458,39.479 94.372,39.352 94.271 C 39.225 94.171,39.038 94.080,38.936 94.070 C 38.834 94.059,38.614 94.039,38.448 94.025 C 38.266 94.010,38.194 93.924,38.266 93.808 C 38.332 93.701,38.312 93.660,38.222 93.716 C 38.133 93.771,37.864 93.715,37.625 93.591 C 37.386 93.467,37.159 93.397,37.121 93.435 C 36.997 93.559,35.167 92.676,35.167 92.492 C 35.167 92.394,35.099 92.355,35.017 92.406 C 34.694 92.606,30.083 90.103,30.257 89.822 C 30.308 89.739,30.249 89.709,30.126 89.757 C 29.632 89.946,25.458 86.778,22.771 84.173 C 7.457 69.328,4.635 46.192,15.919 28.007 C 25.239 12.985,43.175 4.679,60.583 7.322 M54.083 20.185 C 52.417 21.458,47.329 24.749,45.986 25.424 L 44.500 26.170 44.500 37.322 L 44.500 48.474 44.063 48.994 C 43.822 49.280,43.653 49.538,43.688 49.568 C 43.722 49.598,44.913 50.189,46.333 50.883 C 47.754 51.576,49.217 52.317,49.583 52.530 C 49.950 52.742,51.220 53.467,52.406 54.140 L 54.562 55.364 56.406 53.470 C 60.535 49.229,60.269 49.555,59.919 49.169 L 59.609 48.826 59.166 49.251 C 57.963 50.403,54.577 49.617,51.625 47.502 L 50.667 46.815 50.667 35.157 C 50.667 21.757,50.492 22.819,52.399 24.625 C 53.697 25.855,55.316 27.114,56.473 27.792 L 57.214 28.226 59.266 26.071 C 61.404 23.826,61.521 23.667,61.042 23.665 C 60.345 23.662,56.626 21.173,55.599 20.022 C 55.175 19.547,54.877 19.579,54.083 20.185 M144.417 28.078 C 144.325 28.106,143.800 28.225,143.250 28.343 C 142.296 28.547,139.811 29.721,139.694 30.023 C 139.664 30.102,139.569 30.167,139.483 30.167 C 139.223 30.167,137.584 31.865,137.067 32.669 C 136.230 33.972,136.167 34.077,136.070 34.333 C 136.018 34.471,135.906 34.713,135.822 34.872 C 134.069 38.157,133.795 45.102,135.275 48.750 C 135.742 49.901,136.574 51.520,136.791 51.701 C 136.906 51.796,137.000 51.945,137.000 52.032 C 137.000 52.210,137.058 52.278,138.325 53.572 C 138.825 54.082,139.331 54.500,139.450 54.500 C 139.569 54.500,139.667 54.556,139.667 54.625 C 139.667 54.694,140.023 54.927,140.458 55.142 C 140.894 55.357,141.377 55.599,141.533 55.679 C 145.595 57.773,151.308 55.489,153.654 50.833 C 153.955 50.237,154.268 49.620,154.350 49.461 C 154.606 48.966,154.520 48.721,153.928 48.270 C 153.144 47.672,153.073 47.699,152.560 48.792 C 152.313 49.319,152.061 49.788,152.000 49.833 C 151.938 49.879,151.820 50.038,151.736 50.185 C 149.788 53.620,145.645 54.494,143.148 51.997 C 139.518 48.367,139.366 35.399,142.909 31.537 C 145.826 28.357,150.438 31.125,151.595 36.750 C 151.899 38.228,152.209 38.667,152.950 38.667 L 153.667 38.667 153.667 33.768 C 153.667 28.401,153.719 28.667,152.668 28.667 C 152.344 28.667,152.059 28.830,151.759 29.187 L 151.321 29.707 150.207 29.158 C 148.374 28.255,145.549 27.728,144.417 28.078 M260.000 28.315 C 256.316 29.317,254.167 32.234,254.167 36.231 C 254.167 40.517,255.826 42.806,260.284 44.668 C 262.311 45.515,262.410 45.557,263.346 45.986 C 268.166 48.193,266.463 54.925,261.298 54.081 C 259.126 53.727,256.637 50.610,255.411 46.708 L 255.083 45.667 254.375 45.667 L 253.667 45.667 253.667 50.583 L 253.667 55.500 254.583 55.500 C 255.088 55.500,255.502 55.444,255.506 55.375 C 255.509 55.306,255.661 55.070,255.844 54.850 L 256.177 54.451 257.571 55.141 C 262.627 57.647,268.403 56.086,270.429 51.667 C 272.470 47.215,270.932 42.137,266.960 40.207 C 265.629 39.560,264.377 39.000,264.263 39.000 C 264.030 39.000,261.501 37.733,260.870 37.300 C 257.250 34.816,260.008 28.694,263.952 30.460 C 265.441 31.127,267.667 34.080,267.667 35.389 C 267.667 35.511,267.723 35.667,267.792 35.735 C 267.860 35.804,268.067 36.323,268.250 36.888 L 268.583 37.917 269.396 37.968 L 270.209 38.020 270.087 33.468 C 270.020 30.965,269.931 28.860,269.889 28.792 C 269.683 28.451,268.655 28.682,268.224 29.167 C 267.773 29.672,267.277 29.813,267.078 29.491 C 266.431 28.444,262.144 27.731,260.000 28.315 M302.667 28.314 C 295.557 30.245,291.872 39.343,294.624 48.167 C 296.989 55.746,305.358 58.758,311.496 54.240 C 312.418 53.561,314.500 51.064,314.500 50.636 C 314.500 50.544,314.639 50.269,314.810 50.026 C 316.450 47.683,316.997 40.458,315.820 36.695 C 315.446 35.498,314.335 33.168,314.137 33.167 C 314.075 33.167,314.000 33.057,313.971 32.922 C 313.884 32.532,312.482 30.935,311.690 30.326 C 309.057 28.299,305.578 27.524,302.667 28.314 M155.778 28.778 C 155.327 29.229,155.682 30.488,156.292 30.598 C 158.852 31.063,158.742 30.563,158.797 41.956 C 158.854 53.809,158.936 53.304,156.875 53.786 L 155.667 54.070 155.667 54.785 L 155.667 55.500 161.417 55.500 L 167.167 55.500 167.167 54.773 L 167.167 54.046 165.958 53.648 C 164.155 53.054,164.185 53.158,164.175 47.375 L 164.167 42.667 168.500 42.667 L 172.833 42.667 172.833 47.599 C 172.833 53.697,172.914 53.482,170.458 53.925 C 169.848 54.034,169.833 54.054,169.833 54.769 L 169.833 55.500 175.583 55.500 L 181.333 55.500 181.333 54.775 L 181.333 54.049 180.266 53.760 C 179.617 53.585,179.044 53.308,178.807 53.056 L 178.417 52.640 178.367 42.528 C 178.307 30.291,178.183 30.945,180.625 30.577 L 181.333 30.471 181.333 29.569 L 181.333 28.667 175.847 28.667 C 169.501 28.667,169.833 28.611,169.833 29.667 C 169.833 30.484,169.984 30.667,170.659 30.667 C 171.163 30.667,172.434 31.474,172.639 31.924 C 172.770 32.210,172.833 33.681,172.833 36.425 L 172.833 40.500 168.500 40.500 L 164.167 40.500 164.167 36.478 C 164.167 31.143,164.257 30.910,166.458 30.578 L 167.167 30.471 167.167 29.569 L 167.167 28.667 161.528 28.667 C 158.426 28.667,155.839 28.717,155.778 28.778 M183.000 29.563 C 183.000 30.519,183.124 30.667,183.925 30.667 C 184.388 30.667,185.545 31.235,185.864 31.620 C 186.040 31.833,186.083 33.933,186.083 42.341 C 186.083 54.637,186.326 53.496,183.625 53.917 C 183.011 54.013,183.000 54.028,183.000 54.758 L 183.000 55.500 188.917 55.500 L 194.833 55.500 194.833 54.770 L 194.833 54.041 193.651 53.734 C 192.780 53.508,192.363 53.302,192.068 52.951 L 191.667 52.474 191.667 42.102 C 191.667 29.913,191.464 30.930,193.966 30.587 L 194.850 30.466 194.800 29.608 L 194.750 28.750 188.875 28.706 L 183.000 28.662 183.000 29.563 M196.611 28.778 C 196.160 29.229,196.515 30.488,197.125 30.598 C 197.880 30.735,198.619 31.086,199.125 31.549 L 199.500 31.891 199.500 42.253 L 199.500 52.615 199.122 53.054 C 198.858 53.362,198.408 53.577,197.622 53.771 L 196.500 54.048 196.500 54.774 L 196.500 55.500 206.323 55.500 L 216.146 55.500 216.233 54.792 C 216.348 53.857,216.667 48.770,216.667 47.872 L 216.667 47.167 215.995 47.167 C 215.501 47.167,215.298 47.244,215.231 47.458 C 215.050 48.029,214.630 49.088,214.453 49.417 C 214.355 49.600,213.984 50.321,213.629 51.018 C 212.412 53.409,212.062 53.583,208.462 53.583 C 204.981 53.583,205.010 53.638,205.004 47.042 L 205.000 42.667 206.375 42.670 C 209.010 42.677,210.035 43.703,210.575 46.875 C 210.677 47.474,210.709 47.500,211.341 47.500 L 212.000 47.500 212.000 41.833 L 212.000 36.167 211.351 36.167 C 210.679 36.167,210.500 36.350,210.500 37.038 C 210.500 37.727,209.782 39.329,209.224 39.887 C 208.584 40.528,208.062 40.662,206.208 40.665 L 205.000 40.667 205.000 35.652 L 205.000 30.637 207.625 30.694 L 210.250 30.750 211.004 31.274 C 211.419 31.562,211.862 31.993,211.990 32.232 C 212.118 32.471,212.285 32.667,212.361 32.667 C 212.438 32.667,212.500 32.732,212.500 32.812 C 212.500 32.892,212.706 33.323,212.958 33.769 C 213.210 34.216,213.494 34.844,213.588 35.165 C 213.745 35.701,213.818 35.754,214.463 35.801 L 215.167 35.852 215.167 32.260 L 215.167 28.667 205.944 28.667 C 200.872 28.667,196.672 28.717,196.611 28.778 M218.278 28.778 C 218.217 28.839,218.167 29.250,218.167 29.691 C 218.167 30.554,218.079 30.479,219.385 30.745 C 221.311 31.138,221.313 31.151,221.323 42.250 C 221.333 53.791,221.431 53.242,219.279 53.773 L 218.167 54.048 218.167 54.774 L 218.167 55.500 223.917 55.500 L 229.667 55.500 229.667 54.762 L 229.667 54.024 228.766 53.762 C 228.271 53.618,227.818 53.500,227.759 53.500 C 227.540 53.500,227.015 52.895,226.844 52.445 C 226.735 52.157,226.667 50.261,226.667 47.489 L 226.667 43.000 228.125 43.004 C 230.004 43.008,230.832 43.350,231.330 44.327 C 231.758 45.167,232.328 46.949,232.331 47.458 C 232.333 47.784,232.420 47.833,233.000 47.833 L 233.667 47.833 233.667 42.083 L 233.667 36.333 233.000 36.333 C 232.476 36.333,232.334 36.396,232.334 36.625 C 232.335 36.976,231.898 38.361,231.531 39.167 C 230.975 40.389,229.706 41.000,227.720 41.000 L 226.667 41.000 226.667 35.816 L 226.667 30.632 229.375 30.697 C 233.202 30.787,234.043 31.446,235.664 35.625 C 235.851 36.107,235.945 36.167,236.520 36.167 L 237.167 36.167 237.167 32.417 L 237.167 28.667 227.778 28.667 C 222.614 28.667,218.339 28.717,218.278 28.778 M272.446 28.776 C 272.384 28.838,272.333 30.639,272.333 32.778 L 272.333 36.667 272.994 36.667 C 273.636 36.667,273.660 36.646,273.894 35.875 C 275.031 32.127,276.141 30.846,278.375 30.705 L 279.667 30.624 279.661 41.687 C 279.655 54.488,279.823 53.343,277.885 53.754 C 277.261 53.886,276.694 53.996,276.625 53.997 C 276.556 53.999,276.500 54.337,276.500 54.750 L 276.500 55.500 282.500 55.500 L 288.500 55.500 288.500 54.774 L 288.500 54.049 287.273 53.684 C 286.582 53.479,285.890 53.154,285.689 52.941 L 285.333 52.562 285.333 41.614 L 285.333 30.667 286.292 30.668 C 288.393 30.670,289.033 31.119,290.102 33.339 C 290.733 34.648,291.110 35.597,291.241 36.208 C 291.329 36.615,291.414 36.667,292.006 36.667 L 292.673 36.667 292.628 32.708 L 292.583 28.750 282.571 28.707 C 277.064 28.683,272.508 28.715,272.446 28.776 M317.867 29.634 C 317.909 30.431,317.969 30.588,318.250 30.633 C 319.270 30.794,320.400 31.715,321.054 32.917 C 321.414 33.578,321.417 33.660,321.417 42.417 C 321.417 53.254,321.482 52.951,318.958 53.734 L 318.000 54.031 318.000 54.766 L 318.000 55.500 322.500 55.500 L 327.000 55.500 327.000 54.685 C 327.000 53.934,326.964 53.860,326.542 53.755 C 323.618 53.022,323.500 52.604,323.500 42.955 C 323.500 38.924,323.563 35.853,323.646 35.904 C 323.768 35.979,324.392 36.941,325.384 38.580 C 325.493 38.762,326.115 39.737,326.764 40.747 C 327.413 41.757,328.163 42.946,328.430 43.390 C 328.698 43.833,329.047 44.396,329.206 44.640 C 329.366 44.884,329.548 45.196,329.612 45.333 C 329.729 45.586,330.347 46.513,330.500 46.667 C 330.546 46.712,330.690 46.956,330.820 47.208 C 330.950 47.460,331.119 47.667,331.195 47.667 C 331.271 47.667,331.333 47.743,331.333 47.837 C 331.333 47.930,331.538 48.324,331.788 48.712 C 332.375 49.622,332.627 50.031,332.766 50.303 C 332.827 50.424,333.261 51.114,333.730 51.837 C 334.200 52.560,334.958 53.752,335.417 54.486 L 336.250 55.821 337.617 55.827 L 338.985 55.833 339.043 44.625 C 339.097 34.400,339.128 33.339,339.400 32.531 C 339.774 31.419,340.602 30.762,341.836 30.599 L 342.684 30.486 342.633 29.618 L 342.583 28.750 338.000 28.750 L 333.417 28.750 333.366 29.620 C 333.318 30.453,333.336 30.494,333.783 30.590 C 336.834 31.248,337.000 31.735,336.999 39.973 L 336.998 46.250 335.945 44.656 C 335.367 43.780,334.841 42.955,334.778 42.823 C 334.715 42.691,334.513 42.358,334.330 42.083 C 334.146 41.808,333.951 41.452,333.895 41.292 C 333.840 41.131,333.737 41.000,333.667 41.000 C 333.598 41.000,333.447 40.775,333.333 40.500 C 333.219 40.225,333.060 40.000,332.980 40.000 C 332.899 40.000,332.833 39.923,332.833 39.829 C 332.833 39.736,332.458 39.093,332.000 38.401 C 331.542 37.708,331.167 37.114,331.167 37.079 C 331.167 37.045,330.953 36.694,330.691 36.300 C 329.587 34.634,328.667 33.178,328.667 33.096 C 328.667 33.048,328.179 32.289,327.583 31.410 C 326.987 30.532,326.500 29.777,326.500 29.733 C 326.500 29.689,326.334 29.429,326.132 29.155 L 325.763 28.657 321.790 28.673 L 317.817 28.689 317.867 29.634 M343.667 29.572 C 343.667 30.531,343.639 30.500,344.701 30.736 C 346.704 31.181,346.665 30.949,346.665 42.250 C 346.665 53.746,346.738 53.337,344.599 53.815 L 343.667 54.024 343.667 54.762 L 343.667 55.500 353.490 55.500 L 363.313 55.500 363.399 54.792 C 363.446 54.402,363.526 52.527,363.576 50.625 L 363.668 47.167 363.081 47.167 C 362.454 47.167,362.509 47.094,361.750 48.917 C 359.980 53.163,359.461 53.571,355.818 53.579 C 352.047 53.586,352.103 53.679,352.032 47.292 L 351.981 42.667 353.303 42.667 C 354.720 42.667,355.882 42.977,356.351 43.481 C 356.718 43.874,357.333 45.080,357.333 45.403 C 357.333 46.499,357.907 47.500,358.534 47.500 L 359.167 47.500 359.167 41.833 L 359.167 36.167 358.512 36.167 C 357.876 36.167,357.333 37.077,357.333 38.146 C 357.333 39.544,355.909 40.548,353.800 40.635 L 352.000 40.709 352.000 35.688 L 352.000 30.667 354.293 30.667 C 356.760 30.667,357.410 30.781,358.266 31.368 C 358.781 31.721,360.500 34.123,360.500 34.489 C 360.500 35.178,361.084 35.833,361.698 35.833 L 362.333 35.833 362.333 32.351 C 362.333 29.330,362.298 28.856,362.070 28.768 C 361.925 28.712,357.725 28.667,352.736 28.667 L 343.667 28.667 343.667 29.572 M306.618 30.458 C 311.177 32.570,311.934 48.904,307.672 53.173 C 306.536 54.311,303.521 54.646,303.196 53.671 C 303.165 53.577,303.051 53.498,302.944 53.495 C 302.704 53.488,301.662 52.129,301.363 51.431 C 299.277 46.573,299.380 36.711,301.558 32.615 C 302.665 30.532,304.807 29.619,306.618 30.458 M44.235 33.083 C 44.235 34.642,44.260 35.302,44.291 34.550 C 44.321 33.798,44.321 32.523,44.291 31.717 C 44.260 30.910,44.235 31.525,44.235 33.083 M58.372 53.878 C 56.327 55.929,56.268 56.038,56.995 56.414 C 57.850 56.856,57.833 56.616,57.833 68.559 C 57.833 81.449,57.876 81.013,56.740 79.819 C 55.393 78.403,51.814 75.666,51.313 75.668 C 51.109 75.668,47.000 79.850,47.000 80.057 C 47.000 80.103,47.244 80.193,47.542 80.257 C 48.646 80.495,50.454 81.725,52.901 83.902 C 53.506 84.441,53.675 84.441,54.179 83.901 C 54.762 83.278,56.692 81.990,62.386 78.422 C 62.919 78.088,63.462 77.773,63.594 77.723 C 63.799 77.644,63.833 76.021,63.833 66.495 L 63.833 55.359 64.249 54.865 C 64.730 54.293,64.750 54.319,63.167 53.459 C 62.571 53.136,61.724 52.675,61.286 52.435 C 60.246 51.868,60.504 51.740,58.372 53.878 M64.209 60.083 C 64.211 60.450,64.245 60.580,64.285 60.373 C 64.324 60.166,64.323 59.866,64.281 59.706 C 64.239 59.547,64.207 59.717,64.209 60.083 M142.518 72.509 C 141.840 72.677,141.206 72.894,141.109 72.991 C 141.013 73.087,140.835 73.167,140.715 73.167 C 140.595 73.167,140.123 73.429,139.667 73.750 C 139.210 74.071,138.806 74.333,138.769 74.333 C 138.640 74.333,137.071 75.929,136.633 76.506 C 132.860 81.474,132.664 90.817,136.224 96.000 C 137.134 97.325,139.113 99.167,139.626 99.167 C 139.703 99.167,139.854 99.254,139.961 99.361 C 140.442 99.842,143.164 100.500,144.669 100.500 C 147.076 100.500,149.667 99.432,151.000 97.891 C 152.085 96.636,152.642 95.824,153.155 94.750 C 153.461 94.108,153.768 93.467,153.836 93.325 C 153.985 93.016,153.766 92.699,153.060 92.204 C 152.469 91.789,152.483 91.780,151.832 93.083 C 151.604 93.542,151.377 93.954,151.329 94.000 C 151.282 94.046,151.121 94.274,150.973 94.507 C 148.324 98.680,143.333 98.641,141.277 94.431 C 139.150 90.074,139.199 81.291,141.375 77.019 C 143.275 73.288,147.156 73.359,149.388 77.167 C 150.108 78.394,150.746 79.971,151.259 81.792 L 151.553 82.833 152.369 82.833 L 153.184 82.833 153.103 81.875 C 153.058 81.348,153.017 79.135,153.011 76.958 L 153.000 73.000 152.217 73.000 C 151.613 73.000,151.337 73.093,151.006 73.411 L 150.578 73.821 149.583 73.319 C 147.353 72.195,144.913 71.915,142.518 72.509 M164.500 72.362 C 164.179 72.450,163.725 72.562,163.491 72.609 C 156.532 74.015,152.800 85.790,156.711 94.000 C 161.175 103.374,173.679 102.459,176.843 92.528 C 177.038 91.917,177.260 91.256,177.337 91.059 C 177.656 90.244,177.877 87.170,177.779 84.896 C 177.660 82.126,177.423 81.175,176.185 78.500 C 174.139 74.082,168.672 71.210,164.500 72.362 M211.167 72.500 C 207.111 73.624,204.810 77.479,205.545 81.917 C 206.188 85.791,207.577 87.204,212.917 89.412 C 216.723 90.987,217.861 92.445,217.311 95.042 C 216.825 97.338,215.743 98.242,213.474 98.247 C 211.182 98.252,209.464 96.819,207.855 93.559 C 207.086 92.001,207.033 91.878,206.587 90.625 C 206.307 89.837,206.302 89.833,205.543 89.833 L 204.781 89.833 204.890 92.610 C 204.951 94.137,205.000 96.350,205.000 97.527 L 205.000 99.667 205.812 99.667 C 206.543 99.667,206.661 99.612,207.000 99.117 L 207.376 98.568 208.813 99.281 C 214.361 102.036,219.866 100.195,222.105 94.839 C 222.936 92.851,222.382 88.442,221.083 86.712 C 219.965 85.221,219.084 84.670,214.892 82.840 C 210.837 81.070,209.544 79.175,210.680 76.667 C 211.969 73.820,215.365 73.564,217.167 76.177 C 217.487 76.643,217.844 77.125,217.958 77.250 C 218.073 77.374,218.167 77.539,218.167 77.616 C 218.167 77.692,218.305 78.016,218.475 78.336 C 218.645 78.655,219.037 79.648,219.347 80.542 L 219.911 82.167 220.625 82.167 L 221.339 82.167 221.294 77.561 L 221.250 72.955 220.518 72.936 C 219.882 72.919,219.734 72.985,219.385 73.443 L 218.984 73.969 217.784 73.341 C 215.616 72.206,213.293 71.911,211.167 72.500 M303.083 72.492 C 300.444 73.169,298.187 74.837,296.607 77.279 C 296.181 77.937,295.833 78.589,295.833 78.728 C 295.833 78.867,295.769 79.020,295.691 79.068 C 295.506 79.182,294.946 80.767,294.565 82.250 C 294.096 84.079,294.137 89.430,294.635 91.250 C 295.178 93.235,296.383 96.000,296.705 96.000 C 296.776 96.000,296.835 96.094,296.836 96.208 C 296.839 96.414,299.018 98.667,299.215 98.667 C 299.271 98.667,299.639 98.876,300.033 99.132 C 304.667 102.142,310.898 100.230,313.499 95.000 C 313.795 94.404,314.141 93.719,314.267 93.477 C 314.486 93.057,314.466 93.010,313.812 92.437 C 313.034 91.755,312.983 91.763,312.578 92.622 C 310.269 97.515,306.041 99.097,303.029 96.195 C 299.348 92.647,299.155 79.616,302.726 75.721 C 305.711 72.465,310.272 75.213,311.488 81.000 C 311.816 82.561,312.009 82.833,312.783 82.833 L 313.500 82.833 313.500 77.944 C 313.500 75.256,313.463 73.019,313.419 72.974 C 313.196 72.752,311.668 73.129,311.385 73.475 L 311.083 73.845 309.917 73.275 C 307.641 72.163,305.378 71.904,303.083 72.492 M358.417 72.497 C 356.586 72.974,354.789 74.015,353.474 75.360 C 353.009 75.835,351.500 77.893,351.500 78.051 C 351.500 78.102,351.283 78.617,351.017 79.197 C 348.573 84.531,349.192 91.990,352.426 96.167 C 353.445 97.483,355.335 99.167,355.793 99.167 C 355.870 99.167,356.021 99.254,356.128 99.361 C 356.646 99.880,359.256 100.500,360.917 100.500 C 365.173 100.499,368.744 98.190,370.592 94.242 C 372.138 90.941,372.748 86.435,372.098 83.118 C 371.969 82.457,371.826 81.729,371.781 81.500 C 371.562 80.381,370.229 77.333,369.959 77.333 C 369.890 77.333,369.833 77.220,369.833 77.083 C 369.833 76.945,369.215 76.210,368.458 75.450 C 365.684 72.662,361.974 71.571,358.417 72.497 M179.167 73.750 L 179.167 74.584 180.167 75.056 C 181.516 75.693,182.213 76.569,182.578 78.087 C 182.951 79.638,182.885 94.135,182.498 95.667 C 182.289 96.491,181.458 97.667,181.084 97.667 C 181.020 97.667,180.563 97.784,180.067 97.928 L 179.167 98.190 179.167 98.928 L 179.167 99.667 183.759 99.667 L 188.352 99.667 188.301 98.885 C 188.251 98.123,188.231 98.097,187.500 97.838 C 184.772 96.873,184.816 97.037,184.713 87.333 L 184.631 79.583 185.032 80.167 C 185.252 80.487,185.486 80.862,185.552 81.000 C 185.617 81.137,185.819 81.475,186.000 81.750 C 186.181 82.025,186.418 82.419,186.525 82.625 C 186.632 82.831,186.783 83.000,186.860 83.000 C 186.937 83.000,187.000 83.078,187.000 83.174 C 187.000 83.269,187.294 83.813,187.654 84.382 C 189.347 87.059,190.594 89.026,191.345 90.203 C 191.797 90.910,192.167 91.566,192.167 91.661 C 192.167 91.756,192.230 91.833,192.307 91.833 C 192.384 91.833,192.533 92.024,192.639 92.256 C 192.745 92.489,192.907 92.770,192.999 92.881 C 193.226 93.155,194.253 94.732,194.392 95.019 C 194.453 95.146,194.634 95.451,194.794 95.697 C 194.953 95.942,195.420 96.692,195.831 97.363 C 196.242 98.034,196.640 98.658,196.716 98.750 C 196.791 98.842,196.998 99.160,197.174 99.458 L 197.495 100.000 198.905 100.000 L 200.314 100.000 200.366 88.542 C 200.416 77.327,200.424 77.069,200.762 76.426 C 201.368 75.270,202.169 74.782,203.625 74.681 C 203.763 74.672,203.833 74.373,203.833 73.792 L 203.833 72.917 199.250 72.917 L 194.667 72.917 194.667 73.788 C 194.667 74.604,194.696 74.667,195.125 74.759 C 196.988 75.162,197.808 76.046,198.145 78.014 C 198.356 79.242,198.413 90.334,198.208 90.332 C 198.097 90.331,197.670 89.708,197.295 89.000 C 197.222 88.862,197.032 88.550,196.873 88.306 C 196.714 88.062,196.364 87.500,196.096 87.056 C 195.828 86.613,195.191 85.612,194.679 84.833 C 194.168 84.054,193.693 83.304,193.623 83.167 C 193.553 83.029,193.366 82.717,193.206 82.472 C 193.047 82.228,192.289 81.035,191.522 79.822 C 190.755 78.609,189.780 77.084,189.355 76.433 C 188.465 75.068,188.226 74.681,188.060 74.333 C 187.995 74.196,187.760 73.842,187.539 73.547 L 187.136 73.011 183.151 72.964 L 179.166 72.917 179.167 73.750 M223.667 76.875 L 223.667 80.833 224.311 80.833 C 224.927 80.833,224.967 80.800,225.243 80.042 C 225.850 78.376,226.840 76.313,227.312 75.733 C 227.786 75.150,228.320 74.964,229.777 74.873 L 231.167 74.786 231.167 85.604 C 231.167 98.408,231.323 97.393,229.275 97.898 L 228.000 98.212 228.000 98.939 L 228.000 99.667 233.917 99.667 L 239.833 99.667 239.833 98.921 L 239.833 98.176 238.875 97.911 C 236.473 97.247,236.667 98.329,236.667 85.592 L 236.667 74.833 237.542 74.835 C 239.256 74.839,240.667 75.428,240.667 76.140 C 240.667 76.246,240.723 76.333,240.792 76.333 C 240.948 76.333,241.857 78.226,242.393 79.667 C 242.793 80.741,242.802 80.750,243.485 80.801 L 244.173 80.853 244.128 76.924 L 244.083 72.995 233.875 72.956 L 223.667 72.917 223.667 76.875 M245.000 73.788 C 245.000 74.604,245.030 74.667,245.458 74.761 C 248.209 75.363,248.000 74.393,248.000 86.541 L 248.000 96.781 247.625 97.214 C 247.367 97.511,246.899 97.733,246.125 97.927 L 245.000 98.207 245.000 98.937 L 245.000 99.667 250.667 99.667 L 256.333 99.667 256.333 99.020 C 256.333 98.266,256.193 98.128,255.118 97.819 C 253.565 97.373,253.591 97.464,253.532 92.237 C 253.481 87.718,253.484 87.667,253.824 87.667 C 254.012 87.667,254.167 87.746,254.167 87.842 C 254.167 88.003,255.248 89.770,256.017 90.868 C 256.191 91.117,256.333 91.357,256.333 91.403 C 256.333 91.448,256.528 91.770,256.767 92.118 C 257.005 92.465,257.269 92.900,257.353 93.083 C 257.437 93.267,257.699 93.754,257.936 94.167 C 258.391 94.960,260.002 97.987,260.529 99.042 L 260.841 99.667 265.004 99.667 L 269.167 99.667 269.167 98.948 L 269.167 98.230 268.164 97.930 C 267.372 97.692,267.023 97.471,266.497 96.873 C 265.740 96.014,264.000 93.451,264.000 93.196 C 264.000 93.104,263.943 93.003,263.872 92.972 C 263.802 92.942,263.410 92.354,263.000 91.667 C 262.590 90.979,262.198 90.392,262.128 90.361 C 262.057 90.331,262.000 90.229,262.000 90.135 C 262.000 90.042,261.775 89.632,261.500 89.224 C 261.225 88.817,261.000 88.451,261.000 88.412 C 261.000 88.372,260.743 87.939,260.430 87.449 L 259.860 86.557 260.805 86.122 C 266.070 83.696,266.355 75.803,261.254 73.679 C 259.736 73.047,258.842 72.983,250.958 72.945 L 245.000 72.917 245.000 73.788 M268.833 73.771 C 268.833 74.602,268.848 74.628,269.375 74.730 C 270.113 74.873,270.902 75.310,271.184 75.733 C 271.372 76.016,271.436 77.672,271.518 84.333 C 271.601 91.144,271.666 92.787,271.893 93.750 C 272.165 94.909,273.114 97.000,273.367 97.000 C 273.440 97.000,273.500 97.081,273.500 97.181 C 273.500 97.727,275.643 99.388,276.900 99.818 C 279.736 100.786,282.779 100.697,285.053 99.578 C 286.053 99.086,288.000 97.214,288.000 96.744 C 288.000 96.610,288.061 96.500,288.135 96.500 C 288.287 96.500,288.699 95.615,289.110 94.404 C 289.348 93.703,289.405 92.427,289.499 85.667 C 289.641 75.465,289.705 75.236,292.542 74.757 L 293.167 74.652 293.167 73.784 L 293.167 72.917 288.542 72.952 L 283.917 72.988 283.870 73.786 L 283.823 74.583 284.854 74.903 C 287.449 75.707,287.500 75.906,287.500 85.167 C 287.500 92.927,287.481 93.139,286.647 94.942 C 285.092 98.300,280.165 98.700,278.224 95.625 C 277.143 93.912,277.105 93.560,277.041 84.598 C 276.971 74.869,276.947 74.982,279.169 74.719 L 280.016 74.618 279.966 73.804 L 279.917 72.989 274.375 72.953 L 268.833 72.917 268.833 73.771 M314.736 72.986 C 314.698 73.024,314.667 74.806,314.667 76.944 L 314.667 80.833 315.375 80.832 L 316.083 80.830 316.405 79.790 C 317.482 76.305,318.629 75.007,320.748 74.875 L 322.167 74.786 322.166 85.685 C 322.165 98.524,322.331 97.459,320.261 97.920 L 319.000 98.200 319.000 98.933 L 319.000 99.667 324.917 99.667 L 330.833 99.667 330.833 98.936 C 330.833 98.208,330.074 97.689,328.969 97.661 C 328.678 97.654,328.095 97.156,327.858 96.712 C 327.720 96.454,327.667 93.362,327.667 85.571 L 327.667 74.786 329.053 74.873 C 331.057 74.998,331.409 75.255,332.417 77.333 C 332.750 78.021,333.093 78.714,333.178 78.873 C 333.263 79.032,333.333 79.250,333.333 79.358 C 333.333 80.124,333.910 80.833,334.532 80.833 L 335.167 80.833 335.167 76.875 L 335.167 72.917 324.986 72.917 C 319.387 72.917,314.774 72.948,314.736 72.986 M336.000 73.784 L 336.000 74.652 336.625 74.754 C 337.479 74.893,338.429 75.312,338.787 75.707 C 339.175 76.136,339.334 96.257,338.955 97.000 C 338.688 97.524,337.818 97.961,336.792 98.089 L 336.000 98.187 336.000 98.927 L 336.000 99.667 341.917 99.667 L 347.833 99.667 347.833 98.937 L 347.833 98.208 346.665 97.905 C 345.936 97.716,345.357 97.452,345.124 97.204 L 344.750 96.806 344.750 86.333 L 344.750 75.860 345.146 75.439 C 345.584 74.972,346.131 74.796,347.458 74.695 C 347.796 74.670,347.833 74.580,347.833 73.792 L 347.833 72.917 341.917 72.917 L 336.000 72.917 336.000 73.784 M373.500 73.780 C 373.500 74.533,373.548 74.658,373.875 74.752 C 375.257 75.149,376.121 75.895,376.766 77.250 L 377.163 78.083 377.165 86.546 C 377.167 97.131,377.152 97.199,374.625 97.902 L 373.667 98.168 373.667 98.917 L 373.667 99.667 378.259 99.667 L 382.852 99.667 382.801 98.890 C 382.750 98.118,382.745 98.112,381.906 97.827 C 379.213 96.915,379.168 96.740,379.167 87.198 C 379.167 83.229,379.225 80.017,379.297 80.061 C 379.406 80.129,381.205 82.864,381.750 83.792 C 382.063 84.325,383.382 86.415,383.858 87.133 C 384.119 87.528,384.333 87.876,384.333 87.908 C 384.333 87.939,384.782 88.642,385.331 89.469 C 385.879 90.296,386.416 91.166,386.524 91.403 C 386.632 91.640,386.783 91.833,386.860 91.833 C 386.937 91.833,387.000 91.916,387.000 92.017 C 387.000 92.119,387.225 92.535,387.500 92.943 C 387.775 93.350,388.000 93.720,388.000 93.765 C 388.000 93.810,388.141 94.050,388.314 94.298 C 388.793 94.989,390.366 97.460,391.435 99.202 L 391.917 99.988 393.375 99.994 L 394.833 100.000 394.833 88.756 C 394.833 75.030,394.812 75.141,397.542 74.744 L 398.333 74.629 398.333 73.773 L 398.333 72.917 393.708 72.955 L 389.083 72.994 389.083 73.772 C 389.083 74.531,389.100 74.555,389.750 74.775 C 392.606 75.741,392.668 75.940,392.662 84.131 L 392.658 90.417 392.085 89.500 C 391.770 88.996,391.454 88.506,391.381 88.412 C 391.309 88.317,391.106 87.980,390.930 87.662 C 390.755 87.344,390.444 86.881,390.240 86.633 C 390.035 86.385,389.767 85.954,389.644 85.675 C 389.520 85.395,389.371 85.167,389.313 85.167 C 389.255 85.167,389.114 84.942,389.000 84.667 C 388.886 84.392,388.727 84.167,388.646 84.167 C 388.566 84.167,388.500 84.086,388.500 83.988 C 388.500 83.890,388.288 83.497,388.028 83.113 C 387.768 82.730,387.507 82.304,387.448 82.167 C 387.388 82.029,386.812 81.129,386.167 80.167 C 385.522 79.204,384.945 78.304,384.885 78.167 C 384.826 78.029,384.360 77.279,383.850 76.500 C 382.787 74.875,382.748 74.812,382.106 73.725 L 381.629 72.917 377.565 72.917 L 373.500 72.917 373.500 73.780 M167.984 74.641 C 172.554 76.687,173.295 93.060,169.012 97.336 C 167.868 98.477,164.855 98.815,164.529 97.838 C 164.498 97.744,164.385 97.664,164.278 97.660 C 163.887 97.647,162.859 95.975,162.285 94.417 C 160.670 90.034,160.987 80.370,162.862 76.832 C 164.046 74.598,166.010 73.757,167.984 74.641 M361.991 74.445 C 363.421 74.907,364.663 76.498,365.325 78.718 C 366.429 82.421,366.468 90.467,365.397 93.589 C 365.270 93.959,365.167 94.350,365.167 94.459 C 365.167 95.429,363.472 97.652,362.383 98.110 C 359.339 99.393,356.886 96.831,355.974 91.417 C 355.678 89.658,355.672 83.036,355.965 81.333 C 356.878 76.024,359.081 73.506,361.991 74.445 M256.134 75.182 C 258.024 75.820,258.833 77.290,258.833 80.083 C 258.833 83.662,257.494 85.503,254.792 85.637 L 253.500 85.702 253.500 80.268 L 253.500 74.833 254.301 74.833 C 254.742 74.833,255.567 74.990,256.134 75.182 " stroke="none" fill="#bb835b" fill-rule="evenodd"></path><path id="path1" d="M50.917 7.166 C 49.009 7.323,46.415 7.708,44.736 8.083 C 42.813 8.512,41.426 8.882,41.250 9.013 C 41.158 9.081,40.801 9.190,40.456 9.254 C 40.112 9.318,39.789 9.438,39.738 9.519 C 39.615 9.719,39.628 9.716,40.847 9.314 C 48.078 6.933,56.630 6.766,65.500 8.833 C 68.037 9.424,72.790 11.346,75.417 12.842 C 79.706 15.286,82.262 17.176,85.250 20.110 C 89.387 24.174,93.094 29.620,95.015 34.454 C 95.279 35.119,95.566 35.796,95.652 35.957 C 96.342 37.247,97.592 42.362,98.168 46.250 C 98.864 50.956,98.285 59.131,96.928 63.750 C 95.927 67.158,94.621 70.646,93.903 71.833 C 93.764 72.063,93.515 72.550,93.348 72.917 C 93.031 73.614,90.956 77.068,90.594 77.500 C 90.243 77.918,90.093 78.232,90.305 78.101 C 90.410 78.036,90.976 77.255,91.562 76.365 C 107.023 52.917,97.180 21.203,71.093 10.415 C 65.000 7.896,57.232 6.645,50.917 7.166 M36.833 10.583 C 36.604 10.714,36.492 10.822,36.583 10.822 C 36.675 10.822,36.938 10.714,37.167 10.583 C 37.396 10.452,37.508 10.345,37.417 10.345 C 37.325 10.345,37.063 10.452,36.833 10.583 M34.574 11.578 C 34.396 11.713,34.325 11.823,34.417 11.823 C 34.508 11.823,34.729 11.713,34.907 11.578 C 35.085 11.443,35.155 11.333,35.064 11.333 C 34.972 11.333,34.751 11.443,34.574 11.578 M33.500 12.182 C 33.223 12.408,33.195 12.465,33.417 12.350 C 33.960 12.069,34.262 11.838,34.083 11.840 C 33.992 11.840,33.729 11.994,33.500 12.182 M31.292 13.337 C 30.856 13.610,30.500 13.876,30.500 13.927 C 30.500 14.027,30.539 14.006,31.658 13.300 C 32.065 13.044,32.328 12.835,32.241 12.837 C 32.154 12.838,31.727 13.063,31.292 13.337 M25.240 17.708 L 24.750 18.250 25.292 17.760 C 25.797 17.304,25.910 17.167,25.781 17.167 C 25.752 17.167,25.509 17.410,25.240 17.708 M54.250 19.500 C 54.084 19.683,54.026 19.833,54.120 19.833 C 54.215 19.833,54.391 19.715,54.511 19.570 C 54.637 19.418,54.890 19.337,55.110 19.379 C 55.319 19.419,55.450 19.388,55.402 19.309 C 55.241 19.049,54.556 19.162,54.250 19.500 M61.662 23.615 C 61.659 23.781,60.693 24.929,59.514 26.167 L 57.372 28.417 56.822 28.211 C 56.107 27.944,55.992 28.068,56.643 28.404 C 57.329 28.759,57.244 28.798,58.394 27.609 C 61.925 23.959,62.189 23.637,61.833 23.417 C 61.742 23.360,61.664 23.449,61.662 23.615 M47.477 24.176 C 47.104 24.501,47.103 24.510,47.449 24.342 C 47.650 24.245,47.861 24.090,47.917 23.999 C 48.081 23.734,47.901 23.806,47.477 24.176 M52.333 25.052 C 52.333 25.081,52.577 25.325,52.875 25.594 L 53.417 26.083 52.927 25.542 C 52.471 25.037,52.333 24.923,52.333 25.052 M44.407 25.736 C 44.229 25.866,44.121 26.010,44.167 26.055 C 44.213 26.101,44.427 25.994,44.643 25.819 C 45.096 25.452,44.893 25.381,44.407 25.736 M54.500 27.583 C 54.614 27.721,54.782 27.833,54.874 27.833 C 54.967 27.833,54.949 27.723,54.833 27.583 C 54.719 27.446,54.551 27.333,54.459 27.333 C 54.366 27.333,54.384 27.444,54.500 27.583 M51.366 40.833 C 51.354 41.704,51.402 42.304,51.473 42.167 C 51.544 42.029,51.554 41.317,51.495 40.583 L 51.389 39.250 51.366 40.833 M10.527 41.477 C 10.420 41.832,10.338 42.263,10.344 42.436 C 10.350 42.609,10.464 42.345,10.597 41.850 C 10.875 40.816,10.817 40.507,10.527 41.477 M10.020 43.659 C 7.451 55.489,10.971 69.699,18.940 79.667 C 20.037 81.038,23.652 84.769,24.500 85.404 C 24.729 85.576,24.308 85.124,23.565 84.400 C 18.936 79.892,15.565 74.882,12.921 68.583 C 11.986 66.355,10.822 62.085,10.128 58.333 C 9.629 55.638,9.586 46.897,10.062 44.633 C 10.229 43.835,10.333 43.085,10.292 42.966 C 10.251 42.847,10.128 43.159,10.020 43.659 M59.072 48.685 C 58.995 48.810,59.076 48.832,59.324 48.753 C 59.754 48.616,60.333 49.055,60.333 49.517 C 60.333 49.682,59.497 50.647,58.476 51.661 C 57.454 52.676,56.655 53.544,56.700 53.589 C 56.815 53.704,60.572 49.884,60.637 49.585 C 60.760 49.014,59.365 48.211,59.072 48.685 M43.161 49.177 C 42.929 49.611,43.148 49.906,43.885 50.151 C 44.433 50.334,44.326 50.196,43.560 49.734 C 43.274 49.561,43.273 49.537,43.546 49.264 C 43.897 48.913,43.905 48.833,43.589 48.833 C 43.455 48.833,43.262 48.988,43.161 49.177 M44.859 50.591 C 45.010 50.745,45.225 50.842,45.336 50.805 C 45.447 50.768,45.323 50.641,45.061 50.524 C 44.614 50.323,44.601 50.328,44.859 50.591 M45.667 50.912 C 45.667 51.010,46.600 51.500,46.783 51.499 C 46.857 51.499,46.671 51.349,46.371 51.166 C 45.813 50.826,45.667 50.773,45.667 50.912 M59.947 51.731 C 59.885 51.893,59.954 51.937,60.177 51.879 C 60.353 51.833,60.455 51.729,60.405 51.648 C 60.269 51.428,60.048 51.469,59.947 51.731 M47.833 52.008 C 48.411 52.401,48.741 52.515,48.333 52.182 C 48.104 51.994,47.842 51.840,47.750 51.840 C 47.658 51.839,47.696 51.915,47.833 52.008 M58.316 52.980 C 57.913 53.340,57.627 53.679,57.681 53.734 C 57.735 53.789,58.095 53.525,58.480 53.147 C 59.389 52.256,59.268 52.133,58.316 52.980 M57.089 53.493 C 56.927 53.673,56.746 53.814,56.688 53.807 C 56.310 53.760,56.143 53.864,56.230 54.092 C 56.288 54.242,56.259 54.307,56.163 54.247 C 56.071 54.191,55.722 54.449,55.387 54.822 C 55.052 55.195,54.641 55.500,54.473 55.500 C 54.304 55.500,54.167 55.575,54.167 55.667 C 54.167 56.031,54.748 55.800,55.316 55.211 C 55.647 54.868,55.978 54.608,56.052 54.631 C 56.232 54.688,56.935 54.128,57.355 53.593 C 57.747 53.096,57.525 53.012,57.089 53.493 M63.583 53.278 C 63.675 53.364,64.028 53.639,64.368 53.888 C 64.800 54.204,64.955 54.423,64.882 54.614 C 64.811 54.798,64.841 54.848,64.972 54.768 C 65.397 54.505,65.143 54.071,64.291 53.602 C 63.810 53.337,63.492 53.191,63.583 53.278 M56.000 56.104 C 56.000 56.323,56.239 56.573,56.688 56.825 C 57.152 57.086,57.351 57.137,57.300 56.981 C 57.258 56.854,57.043 56.659,56.823 56.549 C 56.603 56.438,56.327 56.217,56.211 56.058 C 56.015 55.790,56.000 55.793,56.000 56.104 M64.209 58.917 C 64.211 59.283,64.245 59.414,64.285 59.206 C 64.324 58.999,64.323 58.699,64.281 58.540 C 64.239 58.380,64.207 58.550,64.209 58.917 M64.236 67.250 C 64.236 68.900,64.261 69.552,64.291 68.700 C 64.321 67.847,64.321 66.497,64.291 65.700 C 64.260 64.902,64.235 65.600,64.236 67.250 M56.915 65.542 C 56.874 65.656,56.905 66.125,56.984 66.583 L 57.127 67.417 57.147 66.375 C 57.166 65.387,57.080 65.081,56.915 65.542 M64.202 75.785 C 64.167 77.457,63.903 78.167,63.317 78.167 C 63.251 78.167,62.384 78.664,61.390 79.272 C 60.396 79.880,59.156 80.637,58.633 80.953 C 57.433 81.681,56.950 82.203,57.948 81.693 C 58.331 81.498,58.691 81.262,58.749 81.169 C 58.806 81.076,58.933 81.000,59.030 81.000 C 59.146 81.000,59.140 81.082,59.011 81.237 C 58.700 81.612,59.414 81.372,59.765 80.983 C 60.081 80.634,59.866 80.543,59.509 80.875 C 59.369 81.005,59.325 81.011,59.392 80.891 C 59.531 80.644,61.003 79.778,61.285 79.778 C 61.403 79.778,61.463 79.741,61.417 79.695 C 61.336 79.613,61.845 79.261,63.012 78.592 C 64.408 77.791,64.351 77.911,64.291 75.897 L 64.237 74.083 64.202 75.785 M50.867 75.376 C 50.709 75.567,50.763 75.595,51.172 75.535 C 51.446 75.495,51.783 75.556,51.922 75.671 C 52.061 75.787,52.212 75.843,52.258 75.798 C 52.386 75.670,51.965 75.373,51.487 75.253 C 51.212 75.184,50.990 75.228,50.867 75.376 M49.348 76.914 C 48.761 77.516,48.210 77.947,48.105 77.887 C 48.001 77.828,47.973 77.842,48.042 77.918 C 48.215 78.109,47.666 78.684,47.436 78.553 C 47.334 78.494,47.305 78.507,47.372 78.581 C 47.439 78.656,47.235 79.003,46.917 79.354 C 46.216 80.131,46.283 80.373,47.271 80.637 C 47.830 80.786,48.008 80.907,47.938 81.087 C 47.886 81.223,47.910 81.333,47.991 81.333 C 48.072 81.333,48.173 81.240,48.215 81.125 C 48.276 80.958,48.336 80.958,48.512 81.125 C 48.634 81.240,48.847 81.333,48.986 81.333 C 49.207 81.333,49.208 81.306,48.994 81.108 C 48.683 80.820,47.428 80.333,46.997 80.333 C 46.430 80.333,46.628 79.945,47.763 78.829 C 48.859 77.750,50.590 75.833,50.468 75.833 C 50.433 75.833,49.929 76.320,49.348 76.914 M52.800 76.115 C 53.010 76.281,53.608 76.769,54.128 77.200 C 54.647 77.630,55.113 77.940,55.161 77.889 C 55.210 77.837,55.108 77.709,54.936 77.605 C 54.763 77.502,54.363 77.185,54.047 76.903 C 53.731 76.620,53.235 76.260,52.945 76.101 C 52.431 75.822,52.427 75.822,52.800 76.115 M63.911 78.175 C 63.753 78.431,63.970 78.597,64.184 78.383 C 64.304 78.263,64.307 78.170,64.193 78.099 C 64.099 78.042,63.973 78.076,63.911 78.175 M55.500 78.219 C 55.500 78.248,55.744 78.491,56.042 78.760 L 56.583 79.250 56.094 78.708 C 55.638 78.203,55.500 78.090,55.500 78.219 M60.312 80.444 C 60.103 80.698,60.119 80.703,60.500 80.505 C 61.059 80.214,61.101 80.167,60.798 80.167 C 60.657 80.167,60.438 80.291,60.312 80.444 M85.575 83.542 L 84.917 84.250 85.625 83.591 C 86.284 82.978,86.410 82.833,86.284 82.833 C 86.257 82.833,85.938 83.152,85.575 83.542 M51.500 83.070 C 51.500 83.273,53.330 85.000,53.538 84.994 C 53.748 84.988,55.780 83.167,55.577 83.167 C 55.402 83.167,54.000 84.214,54.000 84.344 C 54.000 84.803,53.365 84.583,52.483 83.818 C 51.942 83.350,51.500 83.014,51.500 83.070 M25.619 86.366 C 26.751 87.321,26.950 87.433,26.091 86.630 C 25.629 86.198,25.191 85.842,25.119 85.839 C 25.047 85.836,25.272 86.073,25.619 86.366 " stroke="none" fill="#4b3525" fill-rule="evenodd"></path><path id="path2" d="M53.208 3.286 C 53.460 3.324,53.873 3.324,54.125 3.286 C 54.377 3.248,54.171 3.217,53.667 3.217 C 53.163 3.217,52.956 3.248,53.208 3.286 M52.883 6.957 C 53.597 6.989,54.722 6.988,55.383 6.957 C 56.043 6.925,55.458 6.900,54.083 6.900 C 52.708 6.900,52.168 6.926,52.883 6.957 M49.711 7.120 C 49.964 7.158,50.339 7.157,50.544 7.117 C 50.749 7.078,50.542 7.046,50.083 7.048 C 49.625 7.049,49.457 7.081,49.711 7.120 M57.792 7.118 C 57.998 7.157,58.335 7.157,58.542 7.118 C 58.748 7.078,58.579 7.045,58.167 7.045 C 57.754 7.045,57.585 7.078,57.792 7.118 M48.294 7.285 C 48.501 7.324,48.801 7.323,48.960 7.281 C 49.120 7.239,48.950 7.207,48.583 7.209 C 48.217 7.211,48.086 7.245,48.294 7.285 M59.294 7.285 C 59.501 7.324,59.801 7.323,59.960 7.281 C 60.120 7.239,59.950 7.207,59.583 7.209 C 59.217 7.211,59.086 7.245,59.294 7.285 M46.042 7.615 C 46.202 7.657,46.465 7.657,46.625 7.615 C 46.785 7.573,46.654 7.539,46.333 7.539 C 46.012 7.539,45.881 7.573,46.042 7.615 M44.667 7.833 C 44.337 7.939,44.319 7.967,44.583 7.967 C 44.767 7.967,45.104 7.907,45.333 7.833 C 45.663 7.728,45.681 7.700,45.417 7.700 C 45.233 7.700,44.896 7.760,44.667 7.833 M42.583 8.333 C 42.373 8.424,42.342 8.477,42.500 8.477 C 42.637 8.477,42.900 8.412,43.083 8.333 C 43.293 8.243,43.324 8.190,43.167 8.190 C 43.029 8.190,42.767 8.255,42.583 8.333 M41.167 8.750 C 40.846 8.874,40.696 8.975,40.833 8.975 C 40.971 8.975,41.346 8.874,41.667 8.750 C 41.987 8.626,42.137 8.525,42.000 8.525 C 41.862 8.525,41.487 8.626,41.167 8.750 M67.417 9.000 C 67.600 9.079,67.862 9.143,68.000 9.143 C 68.158 9.143,68.127 9.090,67.917 9.000 C 67.733 8.921,67.471 8.857,67.333 8.857 C 67.176 8.857,67.207 8.910,67.417 9.000 M39.583 9.244 C 38.940 9.539,39.239 9.543,40.000 9.250 C 40.321 9.126,40.471 9.023,40.333 9.020 C 40.196 9.017,39.858 9.118,39.583 9.244 M68.500 9.305 C 68.637 9.390,68.938 9.510,69.167 9.571 C 69.456 9.649,69.507 9.635,69.333 9.528 C 69.196 9.443,68.896 9.324,68.667 9.262 C 68.377 9.185,68.326 9.198,68.500 9.305 M69.833 9.805 C 69.971 9.890,70.271 10.010,70.500 10.071 C 70.790 10.149,70.840 10.135,70.667 10.028 C 70.529 9.943,70.229 9.824,70.000 9.762 C 69.710 9.685,69.660 9.698,69.833 9.805 M36.167 10.566 C 34.543 11.273,31.782 12.671,31.858 12.747 C 31.891 12.780,32.855 12.342,34.000 11.774 C 35.146 11.206,36.458 10.582,36.917 10.387 C 37.375 10.193,37.675 10.031,37.583 10.028 C 37.492 10.025,36.854 10.267,36.167 10.566 M72.500 10.917 C 72.729 11.048,72.992 11.155,73.083 11.155 C 73.175 11.155,73.063 11.048,72.833 10.917 C 72.604 10.786,72.342 10.678,72.250 10.678 C 72.158 10.678,72.271 10.786,72.500 10.917 M75.333 12.241 C 75.333 12.287,75.558 12.441,75.833 12.583 C 76.108 12.726,76.333 12.804,76.333 12.759 C 76.333 12.713,76.108 12.559,75.833 12.417 C 75.558 12.274,75.333 12.196,75.333 12.241 M30.333 13.617 C 23.182 18.070,17.643 24.198,13.717 32.000 C 12.412 34.592,12.369 34.706,12.749 34.561 C 12.886 34.508,12.959 34.402,12.911 34.324 C 12.740 34.048,14.845 30.035,16.715 27.069 C 17.545 25.754,19.163 23.658,19.427 23.556 C 19.558 23.506,19.625 23.400,19.576 23.321 C 19.435 23.093,24.931 17.667,26.500 16.486 C 27.279 15.899,28.629 14.953,29.500 14.384 C 30.371 13.815,31.233 13.236,31.417 13.099 C 32.069 12.609,31.565 12.850,30.333 13.617 M76.583 12.954 C 76.675 13.042,77.050 13.282,77.417 13.488 C 77.783 13.694,77.933 13.737,77.750 13.585 C 77.378 13.275,76.322 12.705,76.583 12.954 M78.167 13.884 C 78.167 13.922,78.598 14.230,79.125 14.568 C 79.652 14.906,79.878 15.009,79.628 14.796 C 79.133 14.375,78.167 13.772,78.167 13.884 M80.167 15.220 C 80.167 15.260,80.598 15.617,81.125 16.012 C 81.652 16.408,81.993 16.620,81.883 16.483 C 81.656 16.202,80.167 15.106,80.167 15.220 M83.083 17.507 C 83.633 17.988,85.094 19.402,86.330 20.649 C 87.565 21.896,88.116 22.390,87.554 21.746 C 86.357 20.375,84.293 18.387,82.997 17.357 C 82.103 16.647,82.105 16.650,83.083 17.507 M54.487 19.792 C 54.299 20.040,54.301 20.052,54.500 19.875 C 54.844 19.568,55.241 19.621,55.599 20.022 C 56.096 20.579,58.085 22.133,58.785 22.511 C 59.132 22.698,59.279 22.754,59.111 22.634 C 57.474 21.470,56.851 20.940,56.943 20.791 C 57.006 20.689,56.972 20.664,56.863 20.732 C 56.758 20.797,56.353 20.551,55.944 20.174 C 55.141 19.434,54.821 19.350,54.487 19.792 M53.702 20.243 C 53.492 20.359,53.155 20.607,52.952 20.794 C 52.749 20.982,52.230 21.330,51.799 21.569 C 51.367 21.808,50.812 22.190,50.566 22.418 C 50.320 22.646,50.058 22.833,49.984 22.833 C 49.820 22.833,47.667 24.326,47.667 24.439 C 47.667 24.587,53.942 20.395,54.097 20.144 C 54.204 19.971,54.188 19.975,53.702 20.243 M89.721 24.500 C 90.309 25.279,91.180 26.516,91.657 27.248 C 92.632 28.745,92.931 29.103,92.322 28.045 C 91.732 27.020,89.921 24.485,89.240 23.732 C 88.917 23.375,89.134 23.721,89.721 24.500 M60.544 23.531 C 60.657 23.603,60.881 23.663,61.042 23.664 C 61.431 23.668,61.410 23.880,60.981 24.266 C 60.787 24.440,59.879 25.408,58.962 26.417 C 57.347 28.193,57.360 28.182,59.392 26.083 C 61.652 23.748,61.850 23.400,60.919 23.400 C 60.574 23.400,60.422 23.453,60.544 23.531 M50.667 35.146 C 50.667 45.871,50.689 46.811,50.948 47.021 C 51.197 47.224,51.215 47.213,51.108 46.929 C 50.931 46.456,50.787 25.215,50.955 24.333 L 51.098 23.583 52.174 24.594 C 52.766 25.151,53.625 25.890,54.083 26.237 L 54.917 26.868 54.167 26.226 C 53.754 25.873,52.923 25.115,52.320 24.542 C 50.506 22.818,50.667 21.787,50.667 35.146 M45.972 25.220 C 44.148 26.214,44.140 26.343,45.958 25.434 C 47.339 24.744,47.751 24.476,47.375 24.512 C 47.306 24.519,46.675 24.838,45.972 25.220 M44.412 37.417 C 44.412 43.558,44.433 46.047,44.458 42.946 C 44.484 39.846,44.484 34.821,44.458 31.780 C 44.433 28.738,44.412 31.275,44.412 37.417 M55.112 27.013 C 55.319 27.264,56.333 27.902,56.333 27.782 C 56.333 27.743,56.015 27.501,55.625 27.244 C 55.235 26.987,55.005 26.883,55.112 27.013 M93.500 30.333 C 93.687 30.700,93.878 31.000,93.923 31.000 C 93.969 31.000,93.854 30.700,93.667 30.333 C 93.480 29.967,93.289 29.667,93.243 29.667 C 93.197 29.667,93.313 29.967,93.500 30.333 M94.674 32.519 C 94.670 32.575,94.894 33.100,95.171 33.686 C 95.449 34.271,95.627 34.563,95.567 34.333 C 95.452 33.896,94.688 32.343,94.674 32.519 M11.847 36.264 C 11.559 37.060,11.350 37.739,11.383 37.772 C 11.416 37.805,11.688 37.189,11.986 36.403 C 12.285 35.617,12.494 34.938,12.450 34.895 C 12.407 34.851,12.135 35.467,11.847 36.264 M96.692 37.500 C 96.692 37.637,96.793 38.012,96.917 38.333 C 97.040 38.654,97.141 38.804,97.141 38.667 C 97.141 38.529,97.040 38.154,96.917 37.833 C 96.793 37.512,96.692 37.362,96.692 37.500 M11.015 38.682 C 10.902 39.058,10.841 39.396,10.878 39.434 C 10.916 39.471,11.039 39.194,11.152 38.818 C 11.264 38.442,11.326 38.104,11.288 38.066 C 11.251 38.029,11.128 38.306,11.015 38.682 M10.514 40.431 C 10.406 40.858,10.350 41.238,10.388 41.277 C 10.426 41.315,10.545 40.997,10.653 40.569 C 10.760 40.142,10.817 39.762,10.779 39.723 C 10.741 39.685,10.621 40.003,10.514 40.431 M97.862 41.667 C 97.870 42.100,98.133 42.811,98.138 42.417 C 98.141 42.233,98.079 41.933,98.000 41.750 C 97.912 41.546,97.859 41.514,97.862 41.667 M9.933 42.850 C 9.872 43.232,9.855 43.577,9.895 43.617 C 9.934 43.657,10.019 43.379,10.083 43.000 C 10.147 42.621,10.165 42.276,10.122 42.233 C 10.079 42.190,9.994 42.468,9.933 42.850 M9.542 45.250 C 9.544 45.617,9.578 45.747,9.618 45.540 C 9.658 45.332,9.656 45.032,9.615 44.873 C 9.573 44.714,9.540 44.883,9.542 45.250 M98.539 45.167 C 98.539 45.487,98.573 45.619,98.615 45.458 C 98.657 45.298,98.657 45.035,98.615 44.875 C 98.573 44.715,98.539 44.846,98.539 45.167 M98.705 46.333 C 98.705 46.654,98.740 46.785,98.782 46.625 C 98.823 46.465,98.823 46.202,98.782 46.042 C 98.740 45.881,98.705 46.012,98.705 46.333 M9.375 46.583 C 9.377 46.950,9.411 47.080,9.451 46.873 C 9.491 46.666,9.490 46.366,9.448 46.206 C 9.406 46.047,9.374 46.217,9.375 46.583 M51.750 47.579 C 54.009 49.474,58.085 50.375,59.159 49.217 L 59.583 48.759 59.167 49.112 C 58.404 49.757,55.985 49.737,55.167 49.078 C 55.029 48.967,54.829 48.909,54.722 48.948 C 54.525 49.020,53.618 48.576,52.083 47.658 C 51.353 47.221,51.312 47.211,51.750 47.579 M98.875 48.083 C 98.877 48.450,98.911 48.580,98.951 48.373 C 98.991 48.166,98.990 47.866,98.948 47.706 C 98.906 47.547,98.874 47.717,98.875 48.083 M9.205 48.167 C 9.205 48.487,9.240 48.619,9.282 48.458 C 9.323 48.298,9.323 48.035,9.282 47.875 C 9.240 47.715,9.205 47.846,9.205 48.167 M43.862 49.052 C 43.663 49.265,43.500 49.488,43.500 49.548 C 43.500 49.692,44.509 50.213,44.604 50.118 C 44.644 50.078,44.450 49.951,44.172 49.836 C 43.569 49.586,43.563 49.549,44.029 49.052 C 44.228 48.840,44.354 48.667,44.308 48.667 C 44.262 48.667,44.062 48.840,43.862 49.052 M59.912 49.131 L 60.228 49.511 59.281 50.469 C 58.760 50.995,58.333 51.474,58.333 51.532 C 58.333 51.590,58.798 51.154,59.365 50.563 L 60.397 49.489 59.996 49.120 L 59.596 48.750 59.912 49.131 M99.067 51.917 C 99.068 53.383,99.093 53.961,99.124 53.200 C 99.155 52.440,99.155 51.240,99.124 50.534 C 99.093 49.828,99.067 50.450,99.067 51.917 M9.066 51.833 C 9.066 53.163,9.092 53.706,9.124 53.042 C 9.155 52.377,9.155 51.290,9.124 50.625 C 9.092 49.960,9.066 50.504,9.066 51.833 M47.083 51.360 C 48.000 51.824,48.862 52.296,49.000 52.410 C 49.137 52.523,49.400 52.665,49.583 52.725 C 49.916 52.834,49.916 52.834,49.584 52.577 C 49.168 52.255,45.743 50.497,45.555 50.509 C 45.479 50.513,46.167 50.896,47.083 51.360 M58.748 53.292 C 57.944 54.094,57.221 54.731,57.143 54.708 C 57.064 54.685,57.000 54.768,57.000 54.891 C 57.000 55.014,56.850 55.251,56.667 55.417 C 56.313 55.737,56.235 56.086,56.484 56.240 C 56.568 56.292,56.601 56.202,56.559 56.042 C 56.506 55.837,57.078 55.162,58.465 53.791 C 59.555 52.714,60.394 51.833,60.329 51.833 C 60.263 51.833,59.552 52.490,58.748 53.292 M60.667 52.066 C 60.667 52.102,61.042 52.328,61.500 52.567 C 62.531 53.107,62.594 53.018,61.595 52.433 C 60.879 52.013,60.667 51.929,60.667 52.066 M55.833 54.083 C 55.150 54.771,54.629 55.333,54.675 55.333 C 54.721 55.333,55.317 54.771,56.000 54.083 C 56.683 53.396,57.204 52.833,57.158 52.833 C 57.112 52.833,56.516 53.396,55.833 54.083 M63.333 53.528 C 63.654 53.724,64.089 53.989,64.299 54.118 L 64.682 54.351 64.257 54.855 L 63.833 55.359 63.833 66.513 C 63.833 72.647,63.773 77.667,63.699 77.667 C 63.624 77.667,63.418 77.783,63.240 77.925 C 62.954 78.153,62.980 78.152,63.458 77.920 L 64.000 77.658 64.001 69.954 C 64.004 58.807,64.126 55.376,64.542 54.782 C 64.722 54.525,64.843 54.289,64.810 54.258 C 64.777 54.227,64.353 53.969,63.868 53.684 C 62.881 53.106,62.421 52.971,63.333 53.528 M51.000 53.391 C 51.000 53.504,52.515 54.374,52.587 54.302 C 52.621 54.268,52.277 54.032,51.824 53.777 C 51.371 53.523,51.000 53.349,51.000 53.391 M53.000 54.541 C 53.311 54.841,54.500 55.557,54.500 55.445 C 54.500 55.399,54.106 55.123,53.625 54.831 C 53.144 54.539,52.862 54.408,53.000 54.541 M98.872 55.667 C 98.872 55.987,98.906 56.119,98.948 55.958 C 98.990 55.798,98.990 55.535,98.948 55.375 C 98.906 55.215,98.872 55.346,98.872 55.667 M57.403 56.829 C 57.705 57.300,57.808 79.519,57.511 79.988 C 57.393 80.174,57.088 79.971,56.092 79.040 C 54.734 77.772,52.683 76.176,52.000 75.855 C 51.651 75.691,51.633 75.694,51.892 75.872 C 53.224 76.784,54.770 78.010,55.932 79.073 C 57.375 80.394,57.567 80.500,57.732 80.070 C 58.063 79.209,57.830 57.200,57.487 56.810 L 57.140 56.417 57.403 56.829 M9.372 57.167 C 9.372 57.487,9.406 57.619,9.448 57.458 C 9.490 57.298,9.490 57.035,9.448 56.875 C 9.406 56.715,9.372 56.846,9.372 57.167 M98.705 57.333 C 98.705 57.654,98.740 57.785,98.782 57.625 C 98.823 57.465,98.823 57.202,98.782 57.042 C 98.740 56.881,98.705 57.012,98.705 57.333 M9.539 58.500 C 9.539 58.821,9.573 58.952,9.615 58.792 C 9.657 58.631,9.657 58.369,9.615 58.208 C 9.573 58.048,9.539 58.179,9.539 58.500 M98.539 58.500 C 98.539 58.821,98.573 58.952,98.615 58.792 C 98.657 58.631,98.657 58.369,98.615 58.208 C 98.573 58.048,98.539 58.179,98.539 58.500 M64.212 61.333 C 64.212 61.746,64.245 61.915,64.284 61.708 C 64.324 61.502,64.324 61.165,64.284 60.958 C 64.245 60.752,64.212 60.921,64.212 61.333 M10.523 63.333 C 10.523 63.471,10.588 63.733,10.667 63.917 C 10.757 64.127,10.810 64.158,10.810 64.000 C 10.810 63.862,10.745 63.600,10.667 63.417 C 10.576 63.207,10.523 63.176,10.523 63.333 M97.429 63.595 C 97.367 63.839,97.349 64.071,97.389 64.111 C 97.428 64.150,97.510 63.982,97.571 63.738 C 97.633 63.494,97.651 63.262,97.611 63.223 C 97.572 63.183,97.490 63.351,97.429 63.595 M11.023 65.000 C 11.023 65.137,11.088 65.400,11.167 65.583 C 11.257 65.793,11.310 65.824,11.310 65.667 C 11.310 65.529,11.245 65.267,11.167 65.083 C 11.076 64.873,11.023 64.842,11.023 65.000 M11.596 66.833 C 11.657 67.063,11.776 67.362,11.861 67.500 C 11.969 67.674,11.982 67.623,11.904 67.333 C 11.843 67.104,11.724 66.804,11.639 66.667 C 11.531 66.493,11.518 66.544,11.596 66.833 M96.352 67.019 C 96.249 67.313,96.194 67.583,96.230 67.619 C 96.266 67.655,96.379 67.443,96.481 67.148 C 96.584 66.854,96.639 66.583,96.603 66.548 C 96.568 66.512,96.455 66.724,96.352 67.019 M95.852 68.352 C 95.749 68.646,95.694 68.917,95.730 68.952 C 95.766 68.988,95.879 68.776,95.981 68.481 C 96.084 68.187,96.139 67.917,96.103 67.881 C 96.068 67.845,95.955 68.057,95.852 68.352 M12.678 69.583 C 12.678 69.675,12.786 69.938,12.917 70.167 C 13.048 70.396,13.155 70.508,13.155 70.417 C 13.155 70.325,13.048 70.063,12.917 69.833 C 12.786 69.604,12.678 69.492,12.678 69.583 M95.194 69.924 C 94.914 70.537,94.968 70.667,95.270 70.110 C 95.411 69.850,95.495 69.606,95.457 69.568 C 95.419 69.530,95.300 69.690,95.194 69.924 M151.792 72.951 C 151.998 72.991,152.335 72.991,152.542 72.951 C 152.748 72.911,152.579 72.879,152.167 72.879 C 151.754 72.879,151.585 72.911,151.792 72.951 M181.301 72.958 C 182.429 72.987,184.229 72.987,185.301 72.958 C 186.373 72.929,185.450 72.905,183.250 72.905 C 181.050 72.905,180.173 72.929,181.301 72.958 M197.052 72.958 C 198.318 72.986,200.343 72.986,201.552 72.958 C 202.761 72.929,201.725 72.906,199.250 72.906 C 196.775 72.906,195.786 72.930,197.052 72.958 M220.208 72.948 C 220.369 72.990,220.631 72.990,220.792 72.948 C 220.952 72.906,220.821 72.872,220.500 72.872 C 220.179 72.872,220.048 72.906,220.208 72.948 M228.792 72.958 C 231.565 72.984,236.102 72.984,238.875 72.958 C 241.648 72.933,239.379 72.912,233.833 72.912 C 228.287 72.912,226.019 72.933,228.792 72.958 M247.948 72.958 C 249.523 72.985,252.148 72.985,253.781 72.958 C 255.414 72.931,254.125 72.908,250.917 72.908 C 247.708 72.908,246.372 72.931,247.948 72.958 M271.625 72.958 C 273.115 72.986,275.552 72.986,277.042 72.958 C 278.531 72.930,277.313 72.908,274.333 72.908 C 271.354 72.908,270.135 72.930,271.625 72.958 M286.385 72.958 C 287.651 72.986,289.676 72.986,290.885 72.958 C 292.094 72.929,291.058 72.906,288.583 72.906 C 286.108 72.906,285.119 72.930,286.385 72.958 M312.294 72.951 C 312.501 72.991,312.801 72.990,312.960 72.948 C 313.120 72.906,312.950 72.874,312.583 72.875 C 312.217 72.877,312.086 72.911,312.294 72.951 M319.958 72.958 C 322.731 72.984,327.269 72.984,330.042 72.958 C 332.815 72.933,330.546 72.912,325.000 72.912 C 319.454 72.912,317.185 72.933,319.958 72.958 M339.125 72.958 C 340.706 72.985,343.294 72.985,344.875 72.958 C 346.456 72.931,345.162 72.908,342.000 72.908 C 338.837 72.908,337.544 72.931,339.125 72.958 M375.718 72.958 C 376.800 72.987,378.525 72.987,379.551 72.958 C 380.577 72.928,379.692 72.905,377.583 72.905 C 375.475 72.905,374.635 72.929,375.718 72.958 M391.458 72.958 C 392.673 72.986,394.660 72.986,395.875 72.958 C 397.090 72.929,396.096 72.906,393.667 72.906 C 391.238 72.906,390.244 72.929,391.458 72.958 M14.750 73.833 C 14.892 74.108,15.046 74.333,15.092 74.333 C 15.138 74.333,15.059 74.108,14.917 73.833 C 14.774 73.558,14.621 73.333,14.575 73.333 C 14.529 73.333,14.608 73.558,14.750 73.833 M93.250 73.833 C 93.108 74.108,93.029 74.333,93.075 74.333 C 93.121 74.333,93.274 74.108,93.417 73.833 C 93.559 73.558,93.638 73.333,93.592 73.333 C 93.546 73.333,93.392 73.558,93.250 73.833 M91.558 76.542 C 90.378 78.328,89.144 79.971,88.333 80.836 C 88.196 80.982,87.763 81.454,87.372 81.884 C 86.980 82.315,86.586 82.667,86.497 82.667 C 86.407 82.667,86.352 82.726,86.375 82.799 C 86.417 82.934,84.788 84.667,84.618 84.667 C 84.567 84.667,84.311 84.873,84.048 85.125 C 83.116 86.018,81.239 87.558,80.461 88.067 C 80.028 88.351,79.671 88.637,79.670 88.703 C 79.665 88.888,81.408 87.626,83.181 86.163 C 86.657 83.291,90.298 79.049,92.652 75.125 C 93.423 73.841,92.861 74.568,91.558 76.542 M15.812 75.583 C 15.902 75.767,16.098 76.067,16.247 76.250 L 16.518 76.583 16.355 76.250 C 16.265 76.067,16.069 75.767,15.920 75.583 L 15.648 75.250 15.812 75.583 M48.875 77.821 C 46.772 80.039,46.566 80.347,47.208 80.314 C 47.491 80.299,47.511 80.276,47.292 80.218 C 46.859 80.105,46.918 79.984,47.847 79.077 C 48.765 78.180,51.072 75.666,50.976 75.668 C 50.943 75.668,49.998 76.637,48.875 77.821 M17.502 78.150 C 19.560 81.084,23.596 85.242,26.541 87.461 C 29.055 89.356,33.418 92.023,33.954 91.993 C 34.025 91.989,33.783 91.828,33.417 91.636 C 33.050 91.445,32.712 91.242,32.667 91.185 C 32.621 91.129,32.283 90.945,31.917 90.775 C 31.072 90.384,29.167 89.158,29.167 89.005 C 29.167 88.941,29.067 88.889,28.945 88.889 C 27.685 88.889,20.413 81.990,17.772 78.289 C 17.331 77.672,16.935 77.167,16.891 77.167 C 16.848 77.167,17.123 77.609,17.502 78.150 M49.333 81.176 C 49.563 81.378,49.732 81.606,49.710 81.683 C 49.689 81.759,49.782 81.779,49.919 81.726 C 50.055 81.674,50.167 81.701,50.167 81.786 C 50.167 81.871,50.467 82.137,50.833 82.377 C 51.797 83.008,51.653 82.816,50.458 81.876 C 49.352 81.005,48.635 80.559,49.333 81.176 M57.409 81.512 C 57.348 81.611,56.784 82.021,56.155 82.424 C 55.526 82.827,54.710 83.430,54.340 83.763 C 53.923 84.141,53.571 84.332,53.409 84.270 C 53.260 84.213,53.193 84.241,53.251 84.335 C 53.428 84.622,53.678 84.518,54.448 83.841 C 54.860 83.478,55.415 83.085,55.682 82.967 C 55.949 82.849,56.167 82.691,56.167 82.616 C 56.167 82.541,56.223 82.515,56.292 82.557 C 56.360 82.600,56.715 82.342,57.079 81.984 C 57.443 81.626,57.691 81.333,57.630 81.333 C 57.569 81.333,57.470 81.414,57.409 81.512 M51.667 82.885 C 51.667 82.914,51.910 83.158,52.208 83.427 L 52.750 83.917 52.260 83.375 C 51.804 82.870,51.667 82.757,51.667 82.885 M18.510 84.902 C 19.106 85.693,22.439 88.833,22.682 88.833 C 22.754 88.833,22.387 88.443,21.865 87.966 C 21.343 87.488,20.321 86.532,19.593 85.841 C 18.865 85.149,18.378 84.727,18.510 84.902 M22.833 89.052 C 22.833 89.081,23.058 89.270,23.333 89.474 C 23.917 89.905,23.994 89.829,23.469 89.340 C 23.148 89.041,22.833 88.899,22.833 89.052 M24.333 90.181 C 24.563 90.366,24.863 90.609,25.000 90.720 C 26.063 91.578,27.167 92.225,27.167 91.990 C 27.167 91.904,27.098 91.833,27.014 91.833 C 26.931 91.833,26.255 91.383,25.513 90.833 C 24.255 89.900,23.403 89.430,24.333 90.181 M77.125 90.262 C 76.502 90.600,76.540 90.741,77.167 90.417 C 77.442 90.274,77.667 90.123,77.667 90.079 C 77.667 89.972,77.649 89.978,77.125 90.262 M34.407 92.255 C 34.585 92.390,34.805 92.500,34.897 92.500 C 34.989 92.500,34.918 92.390,34.740 92.255 C 34.562 92.121,34.342 92.011,34.250 92.011 C 34.158 92.011,34.229 92.121,34.407 92.255 M27.493 92.400 C 27.627 92.566,27.889 92.772,28.076 92.858 C 28.441 93.026,28.727 93.191,29.719 93.811 C 30.067 94.027,30.395 94.160,30.449 94.106 C 30.503 94.052,30.406 93.953,30.232 93.887 C 30.059 93.820,29.617 93.569,29.250 93.328 C 27.823 92.390,27.235 92.079,27.493 92.400 M35.407 92.755 C 35.585 92.890,35.810 92.998,35.907 92.995 C 36.004 92.992,35.938 92.879,35.760 92.745 C 35.582 92.610,35.357 92.502,35.260 92.505 C 35.163 92.508,35.229 92.621,35.407 92.755 M36.500 93.237 C 36.964 93.517,37.330 93.590,37.075 93.352 C 36.988 93.271,36.729 93.155,36.500 93.095 L 36.083 92.986 36.500 93.237 M53.792 96.784 C 53.998 96.824,54.335 96.824,54.542 96.784 C 54.748 96.745,54.579 96.712,54.167 96.712 C 53.754 96.712,53.585 96.745,53.792 96.784 M38.667 97.737 C 38.896 97.875,39.196 97.989,39.333 97.989 C 39.668 97.990,39.271 97.757,38.667 97.597 L 38.250 97.486 38.667 97.737 " stroke="none" fill="#825c3f" fill-rule="evenodd"></path><path id="path3" d="M51.627 7.118 C 51.834 7.158,52.134 7.156,52.294 7.115 C 52.453 7.073,52.283 7.040,51.917 7.042 C 51.550 7.044,51.420 7.078,51.627 7.118 M55.792 7.118 C 55.998 7.157,56.335 7.157,56.542 7.118 C 56.748 7.078,56.579 7.045,56.167 7.045 C 55.754 7.045,55.585 7.078,55.792 7.118 M27.083 16.102 L 26.417 16.698 27.125 16.168 C 27.735 15.712,27.955 15.493,27.792 15.502 C 27.769 15.504,27.450 15.773,27.083 16.102 M84.667 19.046 C 84.667 19.071,85.248 19.652,85.958 20.338 L 87.250 21.583 86.004 20.292 C 84.847 19.092,84.667 18.924,84.667 19.046 M48.750 23.431 L 48.250 23.861 48.792 23.502 C 49.090 23.305,49.333 23.112,49.333 23.072 C 49.333 22.947,49.263 22.991,48.750 23.431 M51.800 24.458 C 52.739 25.359,53.070 25.560,52.340 24.787 C 51.932 24.354,51.535 24.000,51.460 24.000 C 51.384 24.000,51.537 24.206,51.800 24.458 M50.898 26.917 C 50.898 28.108,50.925 28.574,50.957 27.951 C 50.989 27.329,50.989 26.354,50.957 25.785 C 50.924 25.216,50.898 25.725,50.898 26.917 M44.437 25.977 C 44.199 26.241,44.164 26.601,44.209 28.352 L 44.261 30.417 44.297 28.346 C 44.326 26.690,44.388 26.215,44.609 25.971 C 44.761 25.804,44.847 25.667,44.802 25.667 C 44.756 25.667,44.592 25.806,44.437 25.977 M58.744 26.875 L 57.917 27.750 58.792 26.923 C 59.273 26.468,59.667 26.074,59.667 26.048 C 59.667 25.924,59.512 26.062,58.744 26.875 M50.893 30.667 C 50.893 31.537,50.922 31.894,50.956 31.458 C 50.990 31.023,50.990 30.310,50.956 29.875 C 50.922 29.440,50.893 29.796,50.893 30.667 M50.887 33.333 C 50.887 33.929,50.917 34.173,50.954 33.875 C 50.991 33.577,50.991 33.090,50.954 32.792 C 50.917 32.494,50.887 32.737,50.887 33.333 M44.241 41.250 C 44.241 44.275,44.264 45.536,44.291 44.052 C 44.319 42.568,44.319 40.093,44.291 38.552 C 44.264 37.011,44.241 38.225,44.241 41.250 M9.214 49.750 C 9.216 50.208,9.248 50.376,9.286 50.123 C 9.325 49.869,9.324 49.494,9.284 49.289 C 9.244 49.084,9.213 49.292,9.214 49.750 M46.000 50.903 C 46.000 50.938,46.262 51.122,46.583 51.311 C 46.904 51.501,47.167 51.597,47.167 51.525 C 47.167 51.454,46.904 51.270,46.583 51.117 C 46.262 50.964,46.000 50.868,46.000 50.903 M58.579 53.208 L 57.417 54.417 58.625 53.254 C 59.747 52.175,59.909 52.000,59.787 52.000 C 59.762 52.000,59.218 52.544,58.579 53.208 M48.833 52.485 C 49.063 52.673,49.325 52.826,49.417 52.827 C 49.595 52.828,49.294 52.598,48.750 52.317 C 48.529 52.202,48.557 52.259,48.833 52.485 M9.205 54.333 C 9.205 54.654,9.240 54.785,9.282 54.625 C 9.323 54.465,9.323 54.202,9.282 54.042 C 9.240 53.881,9.205 54.012,9.205 54.333 M52.833 54.561 C 52.833 54.606,53.058 54.804,53.333 55.000 C 53.608 55.196,53.833 55.319,53.833 55.273 C 53.833 55.227,53.608 55.029,53.333 54.833 C 53.058 54.638,52.833 54.515,52.833 54.561 M57.333 66.800 L 57.417 76.917 57.460 66.926 C 57.483 61.432,57.446 56.879,57.376 56.810 C 57.307 56.740,57.287 61.236,57.333 66.800 M64.108 63.275 C 63.969 64.921,63.967 77.589,64.105 77.450 C 64.189 77.367,64.320 62.000,64.237 62.000 C 64.225 62.000,64.167 62.574,64.108 63.275 M50.750 75.630 C 50.658 75.699,50.359 76.017,50.084 76.336 C 49.613 76.885,49.624 76.880,50.293 76.258 C 50.935 75.660,51.080 75.495,50.958 75.503 C 50.935 75.504,50.842 75.561,50.750 75.630 M57.392 78.417 C 57.392 79.242,57.420 79.600,57.455 79.213 C 57.490 78.827,57.490 78.152,57.456 77.713 C 57.422 77.275,57.393 77.592,57.392 78.417 M90.301 78.125 C 89.983 78.495,89.790 78.833,89.895 78.833 C 89.940 78.833,90.138 78.608,90.333 78.333 C 90.722 77.788,90.702 77.659,90.301 78.125 M55.667 78.583 C 55.978 78.904,56.262 79.167,56.299 79.167 C 56.439 79.167,55.409 78.023,55.259 78.012 C 55.172 78.005,55.356 78.262,55.667 78.583 M47.242 79.375 L 46.583 80.083 47.292 79.425 C 47.950 78.812,48.077 78.667,47.950 78.667 C 47.923 78.667,47.605 78.985,47.242 79.375 M49.019 81.135 C 49.219 81.456,49.654 81.748,49.752 81.629 C 49.773 81.604,49.566 81.402,49.292 81.180 C 48.829 80.804,48.810 80.801,49.019 81.135 M22.250 83.500 C 22.887 84.142,23.445 84.667,23.491 84.667 C 23.537 84.667,23.053 84.142,22.417 83.500 C 21.780 82.858,21.221 82.333,21.176 82.333 C 21.130 82.333,21.613 82.858,22.250 83.500 " stroke="none" fill="#6c4c34" fill-rule="evenodd"></path><path id="path4" d="M60.075 25.375 L 59.417 26.083 60.125 25.425 C 60.784 24.812,60.910 24.667,60.784 24.667 C 60.757 24.667,60.438 24.985,60.075 25.375 M50.890 36.583 C 50.891 37.317,50.920 37.596,50.956 37.204 C 50.991 36.812,50.990 36.212,50.954 35.871 C 50.919 35.529,50.890 35.850,50.890 36.583 M59.075 50.875 L 58.417 51.583 59.125 50.925 C 59.784 50.312,59.910 50.167,59.784 50.167 C 59.757 50.167,59.438 50.485,59.075 50.875 M57.534 66.917 C 57.508 72.325,57.471 77.478,57.452 78.367 C 57.432 79.256,57.473 79.927,57.543 79.857 C 57.612 79.788,57.649 74.635,57.625 68.407 L 57.581 57.083 57.534 66.917 M64.062 61.917 C 64.063 62.925,64.090 63.316,64.123 62.786 C 64.157 62.255,64.156 61.430,64.123 60.952 C 64.089 60.474,64.062 60.908,64.062 61.917 M48.991 77.625 L 48.417 78.250 49.042 77.676 C 49.385 77.360,49.667 77.078,49.667 77.051 C 49.667 76.923,49.526 77.043,48.991 77.625 " stroke="none" fill="#735434" fill-rule="evenodd"></path></g></svg>