<svg id="svg" version="1.1" xmlns="http://www.w3.org/2000/svg" xmlns:xlink="http://www.w3.org/1999/xlink" width="200" height="57" viewBox="0, 0, 400,266.6666666666667"><g id="svgg"><path id="path0" d="M140.687 70.418 C 139.734 71.279,139.724 72.003,140.652 72.882 C 141.541 73.725,142.086 73.712,143.007 72.826 C 144.729 71.172,142.459 68.817,140.687 70.418 M56.000 76.989 C 56.556 77.152,55.482 77.341,53.554 77.420 C 52.804 77.450,52.042 77.555,51.859 77.653 C 51.673 77.753,51.202 77.786,50.785 77.729 C 50.314 77.664,50.002 77.695,49.929 77.814 C 49.775 78.063,49.167 78.052,49.167 77.800 C 49.167 77.650,49.119 77.647,48.976 77.791 C 48.871 77.896,48.552 77.950,48.267 77.910 C 47.804 77.845,47.794 77.853,48.167 77.979 C 48.547 78.108,48.556 78.132,48.270 78.253 C 48.082 78.333,47.824 78.303,47.627 78.181 C 47.446 78.068,47.344 78.050,47.401 78.141 C 47.529 78.348,46.654 78.550,46.042 78.456 C 45.790 78.417,45.677 78.416,45.792 78.455 C 46.161 78.578,46.013 78.833,45.572 78.833 C 45.337 78.833,45.004 78.909,44.832 79.000 C 44.624 79.112,44.486 79.112,44.417 79.000 C 44.360 78.909,44.239 78.833,44.147 78.833 C 44.055 78.833,44.025 78.906,44.080 78.995 C 44.204 79.195,43.430 79.406,43.075 79.270 C 42.933 79.215,42.859 79.239,42.911 79.324 C 43.044 79.540,42.772 79.673,42.068 79.736 C 41.735 79.766,41.415 79.868,41.356 79.963 C 41.297 80.058,40.967 80.189,40.623 80.254 C 40.278 80.318,39.955 80.438,39.905 80.519 C 39.855 80.600,39.668 80.667,39.490 80.667 C 39.312 80.667,39.167 80.723,39.167 80.793 C 39.167 80.862,38.858 81.015,38.481 81.133 C 38.104 81.250,37.249 81.606,36.580 81.923 C 35.912 82.241,35.283 82.500,35.183 82.500 C 35.082 82.500,35.000 82.567,35.000 82.649 C 35.000 82.730,34.806 82.846,34.569 82.905 C 34.333 82.965,33.838 83.203,33.471 83.435 C 33.103 83.667,32.693 83.815,32.559 83.764 C 32.425 83.712,32.353 83.731,32.399 83.805 C 32.509 83.982,29.316 85.928,29.025 85.862 C 28.883 85.830,28.847 85.887,28.927 86.017 C 29.017 86.162,28.970 86.191,28.769 86.114 C 28.611 86.053,28.523 86.069,28.572 86.148 C 28.621 86.228,27.856 86.893,26.872 87.626 C 25.022 89.004,22.662 90.929,22.479 91.210 C 22.418 91.303,22.335 91.274,22.283 91.144 C 22.213 90.968,22.190 90.974,22.180 91.172 C 22.173 91.312,21.561 92.062,20.820 92.838 C 20.079 93.615,18.898 94.919,18.195 95.736 C 16.350 97.881,15.956 98.292,16.063 97.958 C 16.192 97.556,16.052 97.592,15.823 98.020 C 15.690 98.269,15.688 98.340,15.817 98.260 C 16.134 98.064,16.008 98.393,15.520 99.038 C 15.261 99.380,14.989 99.605,14.914 99.538 C 14.840 99.471,14.835 99.512,14.902 99.629 C 14.975 99.755,14.797 100.163,14.464 100.629 C 12.984 102.708,10.048 108.152,9.597 109.657 C 9.471 110.075,9.289 110.399,9.190 110.377 C 9.090 110.355,9.057 110.455,9.115 110.607 C 9.181 110.777,9.072 110.996,8.818 111.202 C 8.597 111.382,8.510 111.480,8.625 111.421 C 8.869 111.295,8.915 111.763,8.674 111.912 C 8.586 111.966,8.562 112.134,8.620 112.284 C 8.695 112.482,8.654 112.531,8.472 112.461 C 8.278 112.386,8.237 112.458,8.296 112.766 C 8.338 112.987,8.289 113.269,8.186 113.393 C 8.084 113.516,7.952 113.970,7.893 114.400 C 7.829 114.869,7.711 115.156,7.601 115.115 C 7.483 115.070,7.403 115.377,7.378 115.970 C 7.356 116.478,7.268 116.937,7.182 116.990 C 7.096 117.044,6.972 117.557,6.907 118.131 C 6.843 118.705,6.724 119.214,6.645 119.264 C 6.565 119.313,6.500 119.644,6.500 120.000 C 6.500 120.356,6.425 120.693,6.333 120.750 C 6.242 120.807,6.167 121.186,6.167 121.593 C 6.167 122.000,6.110 122.333,6.042 122.333 C 5.973 122.333,5.902 122.839,5.885 123.458 C 5.794 126.667,5.637 128.930,5.494 129.073 C 5.289 129.278,5.284 130.454,5.487 130.528 C 5.670 130.594,5.806 135.001,5.625 135.000 C 5.556 135.000,5.509 135.244,5.519 135.542 C 5.532 135.892,5.567 135.966,5.619 135.750 C 5.796 135.013,6.000 135.129,6.000 135.967 C 6.000 136.443,5.925 136.833,5.833 136.833 C 5.742 136.833,5.667 136.908,5.667 137.000 C 5.667 137.092,5.779 137.167,5.917 137.167 C 6.075 137.167,6.171 137.334,6.179 137.625 C 6.186 137.877,6.239 138.271,6.297 138.500 C 6.355 138.729,6.405 139.311,6.409 139.792 C 6.413 140.273,6.442 140.592,6.472 140.500 C 6.621 140.053,6.806 140.439,6.910 141.415 C 6.974 142.010,7.095 142.539,7.180 142.591 C 7.363 142.705,7.387 143.609,7.208 143.709 C 7.140 143.747,7.177 143.756,7.292 143.728 C 7.412 143.699,7.500 143.837,7.500 144.055 C 7.500 144.263,7.566 144.505,7.646 144.592 C 7.861 144.824,8.057 146.055,7.860 145.933 C 7.765 145.875,7.736 145.978,7.789 146.181 C 7.856 146.438,7.915 146.472,8.014 146.310 C 8.118 146.143,8.176 146.163,8.265 146.396 C 8.334 146.574,8.297 146.753,8.177 146.827 C 8.036 146.914,8.088 146.984,8.341 147.050 C 8.612 147.121,8.687 147.236,8.623 147.482 C 8.575 147.667,8.621 147.858,8.726 147.909 C 8.861 147.973,8.852 148.030,8.697 148.101 C 8.534 148.176,8.570 148.268,8.833 148.452 C 9.029 148.589,9.149 148.806,9.100 148.934 C 9.051 149.062,9.083 149.167,9.172 149.167 C 9.261 149.167,9.333 149.239,9.333 149.328 C 9.333 149.648,10.882 152.925,12.052 155.083 C 14.456 159.516,17.293 163.253,21.222 167.159 C 22.554 168.484,23.613 169.619,23.574 169.682 C 23.535 169.744,23.634 169.898,23.794 170.023 C 24.056 170.228,24.062 170.222,23.855 169.958 C 23.531 169.545,23.830 169.607,24.396 170.071 C 24.702 170.321,24.829 170.539,24.745 170.674 C 24.661 170.811,24.682 170.843,24.808 170.766 C 24.925 170.693,25.005 170.765,25.013 170.948 C 25.021 171.124,25.062 171.163,25.110 171.041 C 25.189 170.847,26.296 171.494,26.976 172.133 C 27.961 173.058,31.649 175.285,34.790 176.853 C 36.095 177.504,37.125 178.099,37.079 178.174 C 37.033 178.249,37.082 178.365,37.190 178.431 C 37.317 178.510,37.340 178.479,37.256 178.343 C 37.167 178.198,37.223 178.155,37.439 178.202 C 37.610 178.239,37.732 178.356,37.710 178.462 C 37.688 178.571,37.780 178.613,37.920 178.559 C 38.298 178.414,41.190 179.532,41.093 179.786 C 41.029 179.952,41.079 179.953,41.340 179.791 C 41.583 179.639,41.742 179.634,41.964 179.772 C 42.127 179.874,42.521 180.009,42.839 180.072 C 43.157 180.135,43.567 180.251,43.750 180.330 C 44.044 180.457,44.499 180.584,45.333 180.771 C 45.471 180.802,45.921 180.888,46.333 180.962 C 46.746 181.037,47.071 181.170,47.056 181.257 C 47.040 181.345,47.303 181.432,47.639 181.450 C 49.236 181.538,51.899 181.947,51.954 182.114 C 51.979 182.189,52.533 182.225,53.185 182.194 C 53.837 182.163,54.332 182.201,54.284 182.277 C 53.824 183.019,66.543 181.615,71.083 180.423 C 101.740 172.374,118.248 139.863,106.630 110.417 C 101.861 98.329,92.607 88.518,80.277 82.474 C 79.162 81.927,77.912 81.304,77.500 81.090 C 77.087 80.875,76.507 80.608,76.210 80.497 C 75.914 80.386,75.705 80.239,75.747 80.171 C 75.789 80.104,75.647 80.082,75.431 80.123 C 75.216 80.164,74.988 80.116,74.926 80.016 C 74.864 79.915,74.631 79.833,74.407 79.833 C 74.183 79.833,74.000 79.765,74.000 79.682 C 74.000 79.599,73.859 79.568,73.686 79.613 C 73.484 79.666,73.276 79.558,73.103 79.311 C 72.955 79.099,72.833 79.018,72.833 79.130 C 72.833 79.242,72.716 79.333,72.573 79.333 C 72.431 79.333,72.352 79.272,72.398 79.197 C 72.444 79.122,72.270 79.091,72.011 79.130 C 71.752 79.168,71.489 79.116,71.427 79.016 C 71.364 78.916,71.056 78.833,70.740 78.833 C 70.177 78.833,69.964 78.607,70.375 78.446 C 70.490 78.401,70.293 78.406,69.937 78.457 C 69.447 78.528,69.255 78.485,69.141 78.281 C 69.016 78.058,68.917 78.045,68.566 78.205 C 68.242 78.352,68.067 78.351,67.823 78.199 C 67.648 78.090,67.241 78.000,66.919 78.000 C 66.597 78.000,66.333 77.924,66.333 77.832 C 66.333 77.727,65.999 77.703,65.442 77.769 C 64.792 77.845,64.493 77.811,64.338 77.645 C 64.183 77.478,63.764 77.432,62.789 77.472 C 61.643 77.519,61.385 77.477,60.983 77.180 C 60.554 76.864,60.299 76.835,58.048 76.850 C 56.693 76.859,55.771 76.922,56.000 76.989 M58.860 77.154 C 58.371 77.214,57.621 77.213,57.194 77.153 C 56.635 77.075,56.885 77.045,58.083 77.046 C 59.396 77.047,59.561 77.070,58.860 77.154 M64.111 81.261 C 92.954 85.000,112.154 112.332,105.826 140.643 C 101.741 158.917,87.282 173.352,68.833 177.575 C 42.689 183.561,15.963 166.614,10.364 140.500 C 9.483 136.391,9.250 134.156,9.250 129.833 C 9.250 103.725,28.928 82.881,55.417 80.930 C 57.020 80.812,62.156 81.008,64.111 81.261 M58.388 95.056 C 56.762 96.401,51.248 99.975,49.281 100.960 C 48.473 101.365,47.767 101.812,47.713 101.954 C 47.658 102.096,47.607 107.634,47.598 114.262 L 47.583 126.311 47.095 126.821 C 46.827 127.101,46.640 127.358,46.679 127.392 C 46.718 127.426,47.387 127.740,48.167 128.088 C 50.241 129.017,54.836 131.466,57.313 132.963 L 58.542 133.707 61.727 130.522 L 64.912 127.337 64.462 126.886 L 64.011 126.435 63.631 126.869 C 62.463 128.201,58.300 127.230,55.292 124.925 L 54.500 124.318 54.500 111.659 C 54.500 101.641,54.543 99.001,54.708 99.003 C 54.823 99.005,55.479 99.535,56.167 100.181 C 58.380 102.261,61.010 104.102,61.576 103.968 C 61.870 103.899,66.171 99.308,66.080 99.161 C 66.040 99.097,65.756 99.004,65.448 98.954 C 64.603 98.817,62.652 97.581,60.855 96.044 C 59.069 94.517,59.050 94.509,58.388 95.056 M141.838 109.777 C 141.245 109.905,140.591 110.120,140.386 110.255 C 140.180 110.390,139.928 110.500,139.827 110.500 C 139.143 110.500,136.590 112.609,135.720 113.892 C 135.462 114.272,135.200 114.622,135.137 114.670 C 134.957 114.805,133.904 117.162,133.612 118.083 C 132.505 121.573,132.503 126.221,133.609 129.750 C 133.952 130.847,135.161 133.333,135.351 133.333 C 135.433 133.333,135.500 133.428,135.500 133.543 C 135.500 133.913,138.065 136.236,138.922 136.642 C 139.377 136.857,139.877 137.099,140.033 137.179 C 142.464 138.432,147.111 137.798,149.379 135.903 C 150.676 134.820,153.000 131.273,153.000 130.376 C 153.000 130.124,151.621 129.054,151.554 129.254 C 151.141 130.494,148.673 133.833,148.170 133.833 C 148.077 133.833,148.000 133.895,148.000 133.969 C 148.000 134.720,144.389 135.095,143.047 134.484 C 137.525 131.968,137.318 114.197,142.784 111.913 C 145.569 110.750,148.042 112.596,149.709 117.083 C 150.213 118.440,150.502 119.427,150.501 119.792 C 150.500 120.132,150.579 120.167,151.358 120.167 L 152.217 120.167 152.108 118.641 C 152.049 117.802,152.000 115.552,152.000 113.641 L 152.000 110.167 151.307 110.167 C 150.747 110.167,150.527 110.263,150.168 110.665 L 149.723 111.163 148.487 110.553 C 146.393 109.520,144.204 109.264,141.838 109.777 M258.553 109.748 C 251.899 111.375,250.391 121.233,256.235 124.905 C 257.066 125.427,260.588 127.004,260.917 127.001 C 261.497 126.996,263.679 128.700,264.155 129.529 C 265.197 131.347,264.589 133.900,262.833 135.080 C 259.777 137.132,255.818 134.053,253.894 128.126 L 253.583 127.169 252.875 127.168 L 252.167 127.167 252.167 132.083 L 252.167 137.000 253.047 137.000 C 253.849 137.000,253.955 136.955,254.223 136.500 C 254.583 135.891,254.549 135.891,255.671 136.471 C 263.489 140.509,271.521 134.918,269.520 126.833 C 268.765 123.782,267.134 122.227,262.833 120.458 C 258.523 118.685,257.759 117.939,257.753 115.500 C 257.747 112.639,259.850 111.010,262.403 111.899 C 263.096 112.140,264.647 113.441,264.659 113.792 C 264.663 113.906,264.737 114.000,264.822 114.000 C 264.908 114.000,265.029 114.169,265.092 114.375 C 265.155 114.581,265.299 114.862,265.413 115.000 C 265.527 115.138,265.663 115.400,265.715 115.583 C 265.768 115.767,265.939 116.254,266.095 116.667 C 266.252 117.079,266.538 117.867,266.731 118.417 L 267.083 119.417 267.875 119.467 L 268.667 119.518 268.666 118.217 C 268.666 117.502,268.617 115.398,268.556 113.542 L 268.447 110.167 267.765 110.165 C 267.203 110.164,267.008 110.255,266.656 110.683 L 266.229 111.203 264.956 110.607 C 262.708 109.555,260.536 109.263,258.553 109.748 M301.167 109.813 C 293.458 111.834,289.847 122.988,294.103 131.631 C 294.878 133.205,297.223 136.000,297.768 136.000 C 297.896 136.000,298.000 136.061,298.000 136.136 C 298.000 136.210,298.281 136.412,298.625 136.584 C 302.737 138.638,307.646 138.112,310.573 135.303 C 310.843 135.045,311.110 134.833,311.168 134.833 C 311.366 134.833,312.926 132.583,313.368 131.659 C 315.706 126.773,315.717 120.213,313.393 115.667 C 313.136 115.162,312.885 114.712,312.837 114.667 C 312.789 114.621,312.543 114.279,312.290 113.906 C 311.669 112.990,310.213 111.609,309.408 111.173 C 308.437 110.647,308.300 110.573,307.727 110.275 C 306.286 109.526,303.116 109.302,301.167 109.813 M154.167 111.060 L 154.167 111.957 154.792 112.068 C 157.364 112.521,157.250 111.979,157.250 123.721 C 157.250 135.764,157.413 134.988,154.792 135.414 C 154.178 135.513,154.167 135.529,154.167 136.258 L 154.167 137.000 159.917 137.000 L 165.667 137.000 165.667 136.276 L 165.667 135.553 164.458 135.147 C 162.654 134.542,162.684 134.650,162.675 128.875 L 162.667 124.167 167.000 124.167 L 171.333 124.167 171.333 129.042 C 171.332 135.088,171.362 135.007,168.958 135.410 C 168.345 135.513,168.333 135.529,168.333 136.258 L 168.333 137.000 174.083 137.000 L 179.833 137.000 179.833 136.282 L 179.833 135.563 178.815 135.258 C 178.256 135.090,177.599 134.783,177.357 134.574 L 176.917 134.196 176.871 123.935 C 176.819 112.226,176.762 112.769,178.099 112.291 C 178.549 112.130,179.123 111.999,179.375 111.999 C 179.820 112.000,179.833 111.973,179.833 111.081 L 179.833 110.162 174.125 110.206 L 168.417 110.250 168.366 111.125 C 168.322 111.895,168.354 112.000,168.637 112.000 C 169.151 112.000,170.517 112.668,170.942 113.127 C 171.331 113.546,171.333 113.572,171.333 117.774 L 171.333 122.000 167.000 122.000 L 162.667 122.000 162.667 117.887 C 162.667 112.644,162.940 112.000,165.165 112.000 L 165.684 112.000 165.634 111.125 L 165.583 110.250 159.875 110.206 L 154.167 110.162 154.167 111.060 M181.667 111.062 C 181.667 111.945,181.673 111.957,182.219 112.046 C 183.243 112.212,184.289 112.820,184.570 113.412 C 184.968 114.250,184.968 133.416,184.570 134.254 C 184.295 134.835,183.485 135.332,182.808 135.336 C 181.855 135.341,181.667 135.495,181.667 136.269 L 181.667 137.000 187.500 137.000 L 193.333 137.000 193.333 136.253 C 193.333 135.573,193.293 135.498,192.875 135.411 C 191.899 135.209,190.936 134.730,190.600 134.280 C 190.077 133.577,189.961 114.122,190.474 113.167 C 190.818 112.527,191.823 112.025,192.792 112.009 L 193.333 112.000 193.333 111.083 L 193.333 110.167 187.500 110.167 L 181.667 110.167 181.667 111.062 M195.167 111.083 C 195.167 111.845,195.216 112.000,195.458 112.000 C 195.963 112.000,197.332 112.592,197.716 112.975 L 198.083 113.343 198.083 123.768 L 198.083 134.194 197.578 134.646 C 197.273 134.918,196.693 135.182,196.119 135.311 L 195.167 135.524 195.167 136.262 L 195.167 137.000 204.979 137.000 L 214.792 137.000 214.896 136.478 C 214.954 136.191,215.050 134.316,215.110 132.311 L 215.220 128.667 214.560 128.667 C 213.947 128.667,213.885 128.710,213.688 129.292 C 213.331 130.344,212.572 131.970,211.863 133.204 C 210.940 134.808,209.567 135.306,206.557 135.127 C 203.650 134.954,203.667 134.990,203.667 128.850 L 203.667 124.167 204.856 124.167 C 207.576 124.167,208.318 124.815,209.096 127.875 L 209.383 129.000 210.025 129.000 L 210.667 129.000 210.667 123.333 L 210.667 117.667 210.026 117.667 L 209.386 117.667 209.082 118.708 C 208.243 121.584,207.557 122.167,205.005 122.167 L 203.667 122.167 203.667 117.167 L 203.667 112.167 205.843 112.167 C 209.627 112.167,211.093 113.163,212.158 116.458 C 212.381 117.148,212.406 117.167,213.110 117.167 L 213.833 117.167 213.833 113.667 L 213.833 110.167 204.500 110.167 L 195.167 110.167 195.167 111.083 M216.944 110.278 C 216.649 110.573,216.831 112.000,217.163 112.000 C 217.761 112.000,218.909 112.530,219.375 113.022 L 219.833 113.505 219.833 123.796 L 219.833 134.087 219.416 134.537 C 219.033 134.950,218.525 135.159,217.292 135.412 C 216.874 135.498,216.833 135.572,216.833 136.253 L 216.833 137.000 222.509 137.000 L 228.185 137.000 228.134 136.230 L 228.083 135.459 227.070 135.149 C 225.348 134.622,225.425 134.888,225.366 129.209 L 225.315 124.286 226.931 124.405 C 228.578 124.526,229.132 124.726,229.708 125.406 C 230.044 125.803,230.833 128.155,230.833 128.759 C 230.833 129.131,230.899 129.167,231.586 129.167 L 232.338 129.167 232.294 123.458 L 232.250 117.750 231.590 117.750 L 230.930 117.750 230.734 118.667 C 230.114 121.570,229.285 122.333,226.757 122.333 L 225.333 122.333 225.333 117.250 L 225.333 112.167 227.575 112.167 C 230.670 112.167,231.319 112.327,232.181 113.305 C 232.855 114.070,234.333 116.884,234.333 117.402 C 234.333 117.605,234.509 117.667,235.083 117.667 L 235.833 117.667 235.833 113.917 L 235.833 110.167 226.444 110.167 C 221.281 110.167,217.006 110.217,216.944 110.278 M270.946 110.276 C 270.884 110.338,270.833 112.139,270.833 114.278 L 270.833 118.167 271.542 118.164 L 272.250 118.162 272.554 117.207 C 273.770 113.379,274.917 112.181,277.375 112.171 L 278.333 112.167 278.333 122.813 C 278.333 135.837,278.503 134.860,276.154 135.322 L 275.167 135.517 275.167 136.258 L 275.167 137.000 281.083 137.000 L 287.000 137.000 287.000 136.262 L 287.000 135.523 285.827 135.153 C 285.020 134.899,284.526 134.631,284.244 134.295 L 283.833 133.808 283.833 122.964 L 283.833 112.120 285.223 112.206 C 287.265 112.334,287.555 112.546,288.584 114.667 C 288.918 115.354,289.298 116.116,289.429 116.359 C 289.560 116.602,289.667 116.918,289.667 117.060 C 289.667 117.762,290.043 118.167,290.696 118.167 L 291.339 118.167 291.295 114.208 L 291.250 110.250 281.154 110.207 C 275.601 110.183,271.008 110.215,270.946 110.276 M316.333 111.047 L 316.333 111.927 317.165 112.249 C 318.204 112.653,319.006 113.363,319.520 114.333 L 319.917 115.083 319.917 123.922 C 319.917 134.683,319.988 134.346,317.542 135.175 L 316.500 135.527 316.500 136.264 L 316.500 137.000 321.000 137.000 L 325.500 137.000 325.500 136.185 C 325.500 135.437,325.462 135.360,325.049 135.256 C 323.321 134.822,322.587 134.083,322.152 132.333 C 321.976 131.628,321.724 118.854,321.859 117.517 L 321.917 116.951 322.437 117.767 C 323.278 119.088,323.895 120.060,324.119 120.417 C 324.234 120.600,324.375 120.881,324.433 121.042 C 324.491 121.202,324.596 121.333,324.666 121.333 C 324.736 121.333,324.886 121.558,325.000 121.833 C 325.114 122.108,325.273 122.333,325.354 122.333 C 325.434 122.333,325.500 122.412,325.500 122.509 C 325.500 122.605,325.856 123.224,326.292 123.884 C 326.727 124.544,327.140 125.196,327.210 125.333 C 327.280 125.471,327.468 125.783,327.627 126.027 C 327.786 126.271,328.136 126.833,328.404 127.277 C 328.671 127.720,329.440 128.928,330.112 129.961 C 330.784 130.994,331.333 131.871,331.333 131.909 C 331.333 131.947,331.656 132.452,332.051 133.031 C 332.446 133.610,332.822 134.196,332.887 134.333 C 332.951 134.471,333.134 134.785,333.294 135.031 C 333.453 135.277,333.843 135.896,334.160 136.406 L 334.737 137.333 336.111 137.333 L 337.485 137.333 337.539 126.125 C 337.598 113.944,337.613 113.745,338.541 112.873 C 339.040 112.405,340.026 112.000,340.670 112.000 L 341.184 112.000 341.134 111.125 L 341.083 110.250 336.500 110.250 L 331.917 110.250 331.866 111.125 C 331.822 111.895,331.854 112.000,332.137 112.000 C 333.319 112.000,334.693 113.048,335.176 114.316 C 335.654 115.575,335.685 127.965,335.208 127.312 C 334.827 126.790,334.525 126.310,334.384 126.000 C 334.321 125.862,333.960 125.297,333.583 124.744 C 333.205 124.190,332.842 123.628,332.775 123.494 C 332.599 123.139,332.341 122.725,331.482 121.417 C 330.617 120.099,329.839 118.887,329.587 118.466 C 328.874 117.276,327.911 115.735,327.838 115.667 C 327.789 115.621,327.643 115.377,327.513 115.125 C 327.383 114.873,327.215 114.667,327.139 114.667 C 327.062 114.667,327.000 114.584,327.000 114.483 C 327.000 114.381,326.775 113.965,326.500 113.557 C 326.225 113.150,326.000 112.788,326.000 112.754 C 326.000 112.719,325.624 112.123,325.164 111.429 L 324.328 110.167 320.331 110.167 L 316.333 110.167 316.333 111.047 M342.167 111.060 C 342.167 111.946,342.173 111.957,342.719 112.046 C 343.609 112.190,344.766 112.813,345.017 113.282 C 345.372 113.945,345.362 133.574,345.006 134.239 C 344.713 134.786,344.139 135.105,343.008 135.347 L 342.167 135.528 342.167 136.264 L 342.167 137.000 352.057 137.000 L 361.948 137.000 362.054 134.625 C 362.112 133.319,362.210 131.444,362.271 130.458 L 362.384 128.667 361.734 128.667 C 361.114 128.668,361.068 128.705,360.765 129.459 C 358.780 134.400,357.952 135.127,354.282 135.156 C 350.798 135.184,350.667 134.944,350.667 128.522 L 350.667 124.167 352.042 124.179 C 354.682 124.204,356.333 125.903,356.333 128.595 C 356.333 128.964,356.400 129.000,357.083 129.000 L 357.833 129.000 357.833 123.333 L 357.833 117.667 357.083 117.667 C 356.416 117.667,356.333 117.708,356.334 118.042 C 356.339 120.477,354.600 122.167,352.089 122.167 L 350.667 122.167 350.667 117.167 L 350.667 112.167 352.926 112.167 C 355.324 112.167,356.354 112.335,356.952 112.824 C 357.692 113.431,358.985 115.573,359.397 116.875 C 359.467 117.097,359.672 117.167,360.248 117.167 L 361.007 117.167 360.962 113.708 L 360.917 110.250 351.542 110.207 L 342.167 110.164 342.167 111.060 M304.760 111.775 C 305.590 112.037,306.631 112.802,306.886 113.337 C 306.950 113.472,307.156 113.836,307.342 114.145 C 308.786 116.532,309.526 125.412,308.607 129.333 C 307.221 135.248,304.123 137.538,301.287 134.743 C 297.545 131.054,297.483 116.389,301.194 112.679 C 302.223 111.649,303.409 111.349,304.760 111.775 M6.595 117.595 C 6.534 117.839,6.516 118.071,6.555 118.111 C 6.594 118.150,6.677 117.982,6.738 117.738 C 6.799 117.494,6.817 117.262,6.778 117.223 C 6.739 117.183,6.657 117.351,6.595 117.595 M62.735 132.006 C 60.437 134.327,60.428 134.345,61.323 134.910 L 62.000 135.338 62.000 148.085 C 62.000 157.200,61.948 160.833,61.818 160.833 C 61.718 160.833,60.874 160.114,59.943 159.234 C 58.315 157.697,55.552 155.667,55.088 155.667 C 54.872 155.667,50.333 160.275,50.333 160.495 C 50.333 160.555,50.788 160.740,51.344 160.906 C 52.443 161.235,53.424 161.901,55.905 163.999 L 57.510 165.356 58.317 164.680 C 59.748 163.482,62.376 161.748,67.625 158.538 L 68.833 157.799 68.833 145.678 L 68.833 133.558 69.250 133.167 C 69.886 132.570,69.824 132.503,67.450 131.208 C 64.688 129.703,65.080 129.637,62.735 132.006 M141.290 151.905 C 133.827 154.615,130.638 165.157,134.681 173.751 C 137.337 179.397,144.785 181.564,149.320 178.009 C 150.112 177.388,151.375 176.083,151.483 175.773 C 151.520 175.669,151.603 175.546,151.668 175.500 C 151.843 175.377,152.916 173.332,153.124 172.725 C 153.286 172.254,153.259 172.159,152.860 171.786 C 152.043 171.021,151.794 171.063,151.336 172.043 C 151.112 172.523,150.880 172.954,150.822 173.000 C 150.764 173.046,150.624 173.258,150.511 173.473 C 148.677 176.954,144.398 177.863,141.798 175.323 C 138.189 171.797,138.140 158.652,141.721 154.829 C 143.682 152.736,147.097 153.333,148.587 156.028 C 149.420 157.534,149.914 158.721,150.433 160.458 L 150.893 162.000 151.718 162.000 L 152.544 162.000 152.443 160.792 C 152.388 160.127,152.340 157.915,152.338 155.875 L 152.333 152.167 151.534 152.167 C 150.857 152.167,150.672 152.241,150.326 152.650 C 149.985 153.052,149.875 153.097,149.667 152.922 C 148.130 151.630,143.572 151.077,141.290 151.905 M163.667 151.608 C 162.448 152.005,160.500 152.886,160.500 153.039 C 160.500 153.109,160.382 153.167,160.239 153.167 C 159.907 153.167,157.333 155.751,157.333 156.085 C 157.333 156.221,157.276 156.333,157.205 156.333 C 157.044 156.333,155.926 158.505,155.591 159.468 C 154.307 163.159,154.310 168.751,155.597 171.946 C 156.036 173.036,157.070 175.000,157.205 175.000 C 157.276 175.000,157.333 175.088,157.333 175.196 C 157.333 175.620,160.101 178.086,161.173 178.616 C 164.845 180.431,169.803 179.967,172.429 177.562 C 172.766 177.253,173.089 176.995,173.146 176.988 C 173.203 176.981,173.550 176.608,173.917 176.157 C 174.283 175.707,174.668 175.239,174.771 175.118 C 177.383 172.056,178.135 163.058,176.145 158.667 C 173.959 153.842,170.590 151.483,165.929 151.513 C 164.822 151.520,163.804 151.563,163.667 151.608 M210.063 151.909 C 206.246 153.379,204.386 156.819,205.058 161.167 C 205.398 163.367,206.846 166.167,207.644 166.167 C 207.728 166.167,207.835 166.260,207.880 166.375 C 207.984 166.638,210.150 167.731,212.083 168.495 C 215.953 170.025,217.300 171.668,216.804 174.250 C 216.084 177.994,212.355 178.812,209.413 175.870 C 208.297 174.754,206.636 171.790,206.116 169.987 C 205.906 169.257,205.896 169.249,205.092 169.198 L 204.280 169.146 204.390 171.781 C 204.450 173.231,204.499 175.448,204.499 176.708 L 204.500 179.000 205.333 179.000 C 205.792 179.000,206.169 178.944,206.172 178.875 C 206.175 178.806,206.359 178.543,206.581 178.291 L 206.985 177.832 207.534 178.165 C 207.836 178.347,208.196 178.541,208.333 178.594 C 208.471 178.647,208.728 178.770,208.906 178.866 C 211.203 180.114,216.313 179.890,218.245 178.456 C 221.031 176.391,221.908 174.605,221.908 171.000 C 221.908 167.205,220.656 165.020,217.627 163.533 C 216.143 162.803,214.487 162.066,214.000 161.917 C 210.878 160.965,209.268 158.552,210.108 156.085 C 211.237 152.772,215.488 152.847,217.282 156.213 C 217.838 157.254,218.762 159.429,219.088 160.458 L 219.417 161.500 220.125 161.500 L 220.833 161.500 220.833 156.833 L 220.833 152.167 220.081 152.167 C 219.452 152.167,219.254 152.251,218.873 152.676 L 218.417 153.186 217.586 152.743 C 215.037 151.387,212.229 151.075,210.063 151.909 M301.833 151.898 C 294.422 154.538,291.074 165.332,295.107 173.583 C 298.037 179.580,305.232 181.687,309.917 177.920 C 310.375 177.552,310.932 177.036,311.155 176.773 C 311.378 176.511,311.659 176.198,311.780 176.077 C 311.901 175.956,312.000 175.777,312.000 175.679 C 312.000 175.580,312.061 175.500,312.135 175.500 C 312.279 175.500,313.285 173.588,313.595 172.724 C 313.769 172.239,313.745 172.163,313.297 171.770 C 312.530 171.097,312.314 171.147,311.822 172.111 C 309.386 176.882,304.937 178.303,302.137 175.205 C 298.698 171.397,298.706 158.496,302.150 154.886 C 304.514 152.409,307.650 153.305,309.547 157.000 C 310.202 158.277,310.465 158.972,311.171 161.292 L 311.387 162.000 312.218 162.000 L 313.049 162.000 312.942 160.625 C 312.883 159.869,312.835 157.656,312.834 155.708 L 312.833 152.167 312.034 152.167 C 311.364 152.167,311.169 152.243,310.832 152.635 L 310.430 153.103 309.674 152.697 C 307.274 151.409,304.112 151.087,301.833 151.898 M357.329 151.906 C 355.464 152.558,352.667 154.360,352.667 154.908 C 352.667 154.949,352.480 155.185,352.251 155.431 C 349.324 158.589,348.176 166.275,349.864 171.409 C 350.418 173.096,351.582 175.268,352.042 175.472 C 352.110 175.503,352.167 175.593,352.167 175.673 C 352.167 175.895,353.747 177.424,354.542 177.972 C 358.463 180.669,364.170 180.241,367.501 177.000 C 369.009 175.532,370.833 172.686,370.833 171.801 C 370.833 171.687,370.939 171.292,371.067 170.922 C 372.116 167.910,372.044 162.702,370.910 159.510 C 370.336 157.897,369.114 155.667,368.804 155.667 C 368.728 155.667,368.667 155.582,368.667 155.480 C 368.667 155.140,366.547 153.259,365.640 152.793 C 362.899 151.386,359.768 151.052,357.329 151.906 M178.667 153.044 L 178.667 153.922 179.530 154.228 C 182.125 155.150,182.252 155.690,182.243 165.833 C 182.235 176.388,182.134 176.780,179.292 177.246 C 178.667 177.348,178.667 177.349,178.667 178.174 L 178.667 179.000 183.259 179.000 L 187.851 179.000 187.800 178.131 C 187.753 177.315,187.720 177.256,187.250 177.158 C 184.420 176.571,184.299 176.150,184.209 166.583 L 184.138 158.917 185.053 160.287 C 185.557 161.040,185.995 161.725,186.026 161.809 C 186.094 161.989,187.469 164.167,189.042 166.585 C 189.660 167.537,190.167 168.388,190.167 168.477 C 190.167 168.566,190.224 168.664,190.294 168.694 C 190.365 168.725,190.758 169.299,191.169 169.970 C 191.580 170.641,192.029 171.364,192.167 171.577 C 192.304 171.790,192.663 172.366,192.964 172.857 C 193.859 174.317,193.908 174.393,194.114 174.619 C 194.223 174.738,194.359 174.985,194.417 175.168 C 194.475 175.350,194.592 175.500,194.678 175.500 C 194.763 175.500,194.833 175.579,194.833 175.676 C 194.833 175.772,195.158 176.353,195.555 176.967 C 195.953 177.581,196.419 178.327,196.591 178.625 L 196.905 179.167 198.360 179.167 L 199.814 179.167 199.866 167.792 C 199.928 153.830,199.754 154.633,202.875 153.930 C 203.300 153.835,203.333 153.766,203.333 152.997 L 203.333 152.167 198.741 152.167 L 194.149 152.167 194.200 153.035 C 194.249 153.895,194.257 153.905,194.931 154.100 C 197.621 154.876,197.707 155.156,197.790 163.417 C 197.855 169.868,197.839 170.040,197.272 169.022 C 196.934 168.413,195.596 166.252,195.505 166.167 C 195.384 166.052,195.022 165.470,194.884 165.167 C 194.822 165.029,194.522 164.561,194.219 164.127 C 193.915 163.692,193.667 163.295,193.667 163.245 C 193.667 163.194,193.588 163.062,193.492 162.951 C 193.294 162.723,192.192 160.979,191.152 159.250 C 190.767 158.608,190.124 157.611,189.725 157.034 C 189.326 156.456,189.000 155.946,189.000 155.900 C 189.000 155.853,188.674 155.313,188.275 154.699 C 187.876 154.086,187.350 153.265,187.106 152.875 L 186.662 152.167 182.665 152.167 L 178.667 152.167 178.667 153.044 M223.000 156.083 L 223.000 160.000 223.750 160.000 C 224.353 160.000,224.500 159.943,224.501 159.708 C 224.502 159.548,224.614 159.202,224.751 158.939 C 224.888 158.677,225.000 158.394,225.000 158.311 C 225.000 158.045,226.058 155.937,226.495 155.334 C 227.275 154.256,227.446 154.178,229.042 154.172 L 230.500 154.167 230.500 164.925 C 230.500 176.528,230.518 176.285,229.631 176.907 C 229.426 177.050,228.995 177.168,228.671 177.169 C 227.482 177.174,227.333 177.287,227.333 178.186 L 227.333 179.000 233.250 179.000 L 239.167 179.000 239.167 178.184 C 239.167 177.315,239.028 177.167,238.217 177.167 C 237.614 177.167,236.508 176.499,236.234 175.968 C 236.040 175.595,236.000 173.673,236.000 164.842 L 236.000 154.167 237.458 154.167 C 239.533 154.169,240.384 155.100,241.728 158.845 C 242.111 159.912,242.116 159.917,242.806 159.968 L 243.500 160.019 243.500 156.093 L 243.500 152.167 233.250 152.167 L 223.000 152.167 223.000 156.083 M244.500 152.995 L 244.500 153.824 245.375 154.079 C 247.684 154.752,247.536 153.875,247.469 166.472 L 247.417 176.194 246.872 176.680 C 246.468 177.042,246.161 177.167,245.678 177.167 C 244.620 177.167,244.500 177.271,244.500 178.187 L 244.500 179.004 250.125 178.961 L 255.750 178.917 255.802 178.183 C 255.859 177.391,255.692 177.174,255.023 177.169 C 254.376 177.165,253.365 176.497,253.174 175.948 C 252.817 174.927,252.949 167.000,253.322 167.000 C 253.499 167.000,253.692 167.150,253.750 167.333 C 253.808 167.517,253.926 167.667,254.011 167.667 C 254.097 167.667,254.167 167.750,254.167 167.851 C 254.167 167.952,254.392 168.368,254.667 168.776 C 254.942 169.183,255.167 169.554,255.167 169.601 C 255.167 169.647,255.492 170.187,255.890 170.801 C 256.649 171.972,257.255 173.039,258.416 175.250 C 258.801 175.983,259.401 177.127,259.750 177.792 L 260.384 179.000 264.525 179.000 L 268.667 179.000 268.667 178.174 C 268.667 177.350,268.666 177.348,268.042 177.243 C 267.044 177.075,266.949 177.031,266.308 176.441 C 265.735 175.913,264.313 173.910,263.234 172.110 C 262.968 171.667,262.620 171.104,262.461 170.860 C 262.302 170.616,262.095 170.267,262.001 170.083 C 261.907 169.900,261.531 169.300,261.167 168.750 C 260.802 168.200,260.435 167.600,260.352 167.417 C 260.268 167.233,260.005 166.799,259.767 166.451 C 259.259 165.710,259.250 165.667,259.595 165.667 C 259.885 165.667,261.384 164.839,261.472 164.631 C 261.503 164.559,261.597 164.500,261.681 164.500 C 261.948 164.500,263.182 163.123,263.542 162.423 C 264.728 160.116,264.522 156.159,263.128 154.497 C 261.442 152.485,259.851 152.172,251.292 152.169 L 244.500 152.167 244.500 152.995 M268.167 152.979 C 268.167 153.761,268.187 153.796,268.704 153.899 C 271.034 154.365,271.000 154.233,271.000 162.781 C 271.000 172.753,271.213 174.213,273.000 176.495 C 276.558 181.039,284.994 180.762,287.575 176.016 C 288.873 173.630,288.866 173.682,289.005 164.833 C 289.162 154.854,289.184 154.767,291.704 154.059 L 292.667 153.789 292.667 152.978 L 292.667 152.167 288.000 152.167 L 283.333 152.167 283.333 152.994 L 283.333 153.820 284.154 154.064 C 285.753 154.539,286.261 154.971,286.707 156.238 C 287.168 157.548,287.149 171.076,286.683 172.667 C 284.932 178.650,278.189 178.479,276.811 172.417 C 276.333 170.309,276.345 155.673,276.826 154.884 C 277.142 154.365,278.343 153.833,279.197 153.833 C 279.450 153.833,279.500 153.694,279.500 153.000 L 279.500 152.167 273.833 152.167 L 268.167 152.167 268.167 152.979 M314.167 156.083 L 314.167 160.000 314.875 159.998 L 315.583 159.995 315.874 159.079 C 316.244 157.914,317.116 156.088,317.661 155.334 C 318.441 154.256,318.613 154.178,320.208 154.172 L 321.667 154.167 321.667 164.925 C 321.667 176.528,321.684 176.285,320.797 176.907 C 320.593 177.050,320.161 177.168,319.838 177.169 C 318.649 177.174,318.500 177.287,318.500 178.186 L 318.500 179.000 324.417 179.000 L 330.333 179.000 330.333 178.170 C 330.333 177.398,330.301 177.333,329.875 177.246 C 328.698 177.004,328.136 176.791,327.711 176.425 L 327.250 176.029 327.205 165.098 L 327.160 154.167 328.621 154.167 C 330.700 154.169,331.550 155.098,332.895 158.845 C 333.278 159.912,333.283 159.917,333.973 159.968 L 334.667 160.019 334.667 156.093 L 334.667 152.167 324.417 152.167 L 314.167 152.167 314.167 156.083 M335.500 152.992 C 335.500 153.828,335.911 154.161,336.949 154.166 C 337.477 154.168,338.337 154.890,338.507 155.474 C 338.627 155.885,338.669 159.371,338.634 166.209 L 338.583 176.335 338.099 176.751 C 337.800 177.008,337.410 177.167,337.078 177.167 C 335.705 177.167,335.500 177.299,335.500 178.188 L 335.500 179.000 341.417 179.000 L 347.333 179.000 347.333 178.174 C 347.333 177.349,347.333 177.348,346.708 177.248 C 345.493 177.052,345.325 176.988,344.790 176.510 L 344.250 176.027 344.250 165.531 C 344.250 153.203,344.017 154.467,346.375 154.000 L 347.333 153.810 347.333 152.988 L 347.333 152.167 341.417 152.167 L 335.500 152.167 335.500 152.992 M373.033 153.042 C 373.083 153.908,373.090 153.919,373.774 154.135 C 374.658 154.415,375.742 155.344,376.214 156.226 C 376.785 157.294,376.795 174.292,376.225 175.525 C 375.828 176.385,374.888 177.047,373.792 177.239 C 373.168 177.348,373.167 177.351,373.167 178.174 L 373.167 179.000 377.759 179.000 L 382.351 179.000 382.300 178.127 C 382.251 177.272,382.238 177.252,381.667 177.155 C 378.897 176.682,378.667 175.855,378.667 166.379 C 378.667 158.581,378.660 158.635,379.471 160.201 C 379.675 160.595,380.366 161.704,381.007 162.667 C 381.647 163.629,382.246 164.567,382.338 164.750 C 382.430 164.933,382.655 165.308,382.838 165.583 C 383.021 165.858,383.216 166.215,383.271 166.375 C 383.327 166.535,383.429 166.667,383.499 166.667 C 383.569 166.667,383.719 166.892,383.833 167.167 C 383.947 167.442,384.106 167.667,384.187 167.667 C 384.267 167.667,384.333 167.746,384.333 167.842 C 384.333 167.939,384.690 168.557,385.125 169.217 C 385.560 169.877,385.974 170.529,386.044 170.667 C 386.113 170.804,386.301 171.114,386.460 171.356 C 386.620 171.598,387.158 172.460,387.657 173.273 C 388.156 174.085,388.810 175.102,389.111 175.533 C 389.411 175.963,389.794 176.563,389.963 176.866 C 390.132 177.169,390.521 177.810,390.827 178.292 L 391.383 179.167 392.858 179.167 L 394.333 179.167 394.333 168.006 C 394.333 154.435,394.313 154.547,396.834 154.027 L 397.833 153.820 397.833 152.993 L 397.833 152.167 393.167 152.167 L 388.500 152.167 388.500 152.994 L 388.500 153.820 389.320 154.064 C 392.075 154.882,392.170 155.192,392.157 163.371 C 392.149 168.240,392.104 169.517,391.949 169.278 C 390.089 166.414,389.138 164.932,388.738 164.273 C 388.469 163.832,388.118 163.271,387.956 163.027 C 387.795 162.783,387.617 162.452,387.562 162.292 C 387.506 162.131,387.404 162.000,387.334 162.000 C 387.264 162.000,387.114 161.775,387.000 161.500 C 386.886 161.225,386.727 161.000,386.646 161.000 C 386.566 161.000,386.500 160.921,386.500 160.824 C 386.500 160.728,386.144 160.109,385.710 159.449 C 385.275 158.790,384.843 158.122,384.751 157.966 C 384.659 157.810,384.246 157.150,383.833 156.500 C 383.421 155.850,382.994 155.157,382.886 154.961 C 382.777 154.765,382.330 154.056,381.891 153.386 L 381.093 152.167 377.038 152.167 L 372.983 152.167 373.033 153.042 M167.863 154.093 C 169.695 155.277,170.542 157.339,171.079 161.923 C 172.299 172.345,168.668 180.182,164.047 177.099 C 159.556 174.102,159.580 156.958,164.080 154.092 C 165.157 153.406,166.802 153.406,167.863 154.093 M362.328 154.080 C 362.675 154.299,363.117 154.689,363.311 154.947 C 363.505 155.205,363.720 155.492,363.790 155.583 C 366.598 159.273,366.255 172.799,363.266 176.274 C 361.231 178.638,358.341 178.014,356.715 174.859 C 354.663 170.875,354.609 160.896,356.615 156.500 C 357.828 153.842,360.296 152.797,362.328 154.080 M255.872 154.441 C 256.622 154.731,257.833 155.904,257.833 156.342 C 257.833 156.484,257.925 156.692,258.038 156.804 C 258.400 157.166,258.418 160.331,258.066 161.687 C 257.525 163.776,255.985 164.992,253.875 164.998 L 253.000 165.000 253.000 159.583 L 253.000 154.167 254.080 154.167 C 254.684 154.167,255.474 154.288,255.872 154.441 " stroke="none" fill="#ba835b" fill-rule="evenodd"></path><path id="path1" d="M143.000 70.333 C 143.098 70.517,143.245 70.667,143.327 70.667 C 143.409 70.667,143.510 70.798,143.552 70.958 C 143.613 71.193,143.632 71.182,143.647 70.901 C 143.658 70.709,143.530 70.428,143.362 70.276 C 142.949 69.902,142.783 69.928,143.000 70.333 M143.167 72.667 C 143.034 72.748,142.982 72.871,143.049 72.938 C 143.117 73.006,143.260 72.974,143.367 72.867 C 143.618 72.615,143.478 72.474,143.167 72.667 M140.333 72.837 C 140.333 72.932,140.449 73.055,140.591 73.109 C 140.981 73.259,141.027 73.097,140.659 72.867 C 140.453 72.739,140.333 72.727,140.333 72.837 M91.582 76.977 C 91.491 77.063,91.079 77.170,90.667 77.213 C 86.777 77.619,83.468 78.599,78.809 80.725 C 78.149 81.026,78.472 81.322,80.508 82.283 C 98.963 90.988,110.549 109.281,110.571 129.750 C 110.601 157.217,90.407 179.345,62.708 182.194 C 61.264 182.343,60.667 182.467,60.667 182.619 C 60.667 182.931,129.129 182.937,129.554 182.625 C 129.921 182.355,129.896 113.274,129.526 108.667 C 129.277 105.551,128.438 101.932,127.411 99.536 C 126.911 98.368,124.583 93.773,124.208 93.212 C 124.002 92.904,123.833 92.619,123.833 92.578 C 123.833 92.501,123.405 91.960,123.042 91.577 C 122.927 91.456,122.833 91.293,122.833 91.216 C 122.833 91.138,122.702 90.954,122.542 90.807 C 122.381 90.660,122.063 90.287,121.835 89.978 C 120.507 88.182,116.721 84.766,114.333 83.210 C 113.554 82.703,112.617 82.085,112.250 81.837 C 109.857 80.221,104.579 78.119,101.292 77.475 C 98.890 77.004,91.928 76.647,91.582 76.977 M53.167 81.435 C 18.735 85.181,-0.880 121.970,15.187 152.667 C 25.773 172.894,49.827 183.001,71.833 176.469 C 99.806 168.166,114.254 137.481,102.807 110.684 C 94.488 91.209,74.044 79.163,53.167 81.435 M29.977 85.010 L 29.583 85.353 30.083 85.060 C 30.741 84.675,30.751 84.667,30.546 84.667 C 30.449 84.667,30.193 84.821,29.977 85.010 M60.132 95.053 C 62.268 97.012,64.726 98.647,65.795 98.821 C 66.122 98.874,66.419 99.007,66.456 99.117 C 66.539 99.366,61.869 104.333,61.552 104.333 C 60.856 104.333,58.088 102.383,56.089 100.484 L 54.833 99.291 54.833 111.793 L 54.833 124.294 55.875 124.970 C 59.253 127.163,62.203 127.843,63.382 126.700 C 63.685 126.407,64.000 126.167,64.082 126.167 C 64.280 126.167,65.167 127.021,65.167 127.212 C 65.167 127.415,58.805 134.000,58.609 134.000 C 58.523 134.000,57.978 133.700,57.397 133.333 C 56.817 132.967,56.303 132.667,56.257 132.667 C 56.211 132.667,55.699 132.377,55.121 132.023 C 53.731 131.172,48.878 128.679,47.458 128.086 C 46.327 127.614,45.973 127.128,46.588 126.892 C 47.237 126.643,47.247 126.458,47.333 113.833 L 47.417 101.583 49.083 100.735 C 51.377 99.568,56.668 96.139,58.167 94.849 C 58.946 94.178,59.208 94.205,60.132 95.053 M67.541 130.939 C 70.108 132.347,70.237 132.485,69.605 133.144 L 69.167 133.602 69.164 145.676 C 69.163 152.317,69.106 157.830,69.039 157.928 C 68.972 158.026,68.129 158.580,67.167 159.159 C 62.444 161.998,59.155 164.212,58.260 165.152 C 57.602 165.845,57.511 165.822,56.212 164.643 C 53.824 162.478,51.515 161.000,50.519 161.000 C 49.510 161.000,49.756 160.563,52.187 158.032 C 53.480 156.685,54.675 155.517,54.843 155.437 C 55.386 155.177,57.998 156.967,60.245 159.140 C 60.924 159.796,61.521 160.333,61.573 160.333 C 61.624 160.333,61.667 154.722,61.667 147.864 L 61.667 135.395 60.991 135.015 C 60.048 134.485,60.113 134.346,62.479 131.846 C 64.932 129.254,64.583 129.317,67.541 130.939 " stroke="none" fill="#040404" fill-rule="evenodd"></path><path id="path2" d="M57.125 81.123 C 57.698 81.156,58.635 81.156,59.208 81.123 C 59.781 81.091,59.313 81.064,58.167 81.064 C 57.021 81.064,56.552 81.091,57.125 81.123 M78.426 81.213 C 78.551 81.541,79.140 81.915,79.292 81.764 C 79.345 81.710,79.304 81.667,79.201 81.667 C 79.098 81.667,78.855 81.498,78.663 81.292 C 78.396 81.006,78.340 80.987,78.426 81.213 M54.044 81.286 C 54.297 81.325,54.672 81.324,54.877 81.284 C 55.082 81.244,54.875 81.213,54.417 81.214 C 53.958 81.216,53.791 81.248,54.044 81.286 M61.917 81.340 C 62.467 81.408,63.217 81.461,63.583 81.458 C 64.156 81.454,64.120 81.435,63.333 81.326 C 62.829 81.257,62.079 81.203,61.667 81.208 C 60.982 81.215,61.003 81.226,61.917 81.340 M52.377 81.453 C 52.631 81.491,53.006 81.490,53.211 81.451 C 53.416 81.411,53.208 81.380,52.750 81.381 C 52.292 81.382,52.124 81.415,52.377 81.453 M51.042 81.615 C 51.202 81.657,51.465 81.657,51.625 81.615 C 51.785 81.573,51.654 81.539,51.333 81.539 C 51.012 81.539,50.881 81.573,51.042 81.615 M64.542 81.615 C 64.702 81.657,64.965 81.657,65.125 81.615 C 65.285 81.573,65.154 81.539,64.833 81.539 C 64.512 81.539,64.381 81.573,64.542 81.615 M49.000 81.877 C 48.496 81.970,48.159 82.074,48.252 82.107 C 48.345 82.141,48.945 82.064,49.585 81.937 C 50.226 81.810,50.563 81.706,50.333 81.706 C 50.104 81.706,49.504 81.783,49.000 81.877 M65.917 81.833 C 66.192 81.903,66.642 81.961,66.917 81.961 C 67.337 81.962,67.311 81.940,66.750 81.824 C 65.906 81.649,65.224 81.657,65.917 81.833 M69.402 82.516 C 70.494 82.783,71.417 82.972,71.454 82.935 C 71.536 82.853,67.991 81.994,67.655 82.014 C 67.524 82.022,68.310 82.248,69.402 82.516 M79.847 82.064 C 80.017 82.221,83.000 83.661,83.000 83.587 C 83.000 83.494,80.074 82.000,79.892 82.000 C 79.829 82.000,79.809 82.029,79.847 82.064 M47.000 82.333 C 46.670 82.439,46.653 82.467,46.917 82.467 C 47.100 82.467,47.438 82.407,47.667 82.333 C 47.997 82.228,48.014 82.200,47.750 82.200 C 47.567 82.200,47.229 82.260,47.000 82.333 M43.917 83.167 C 43.707 83.257,43.676 83.310,43.833 83.310 C 43.971 83.310,44.233 83.245,44.417 83.167 C 44.627 83.076,44.658 83.023,44.500 83.023 C 44.362 83.023,44.100 83.088,43.917 83.167 M71.681 83.069 C 71.807 83.194,75.400 84.322,75.466 84.257 C 75.501 84.222,74.699 83.924,73.684 83.596 C 71.901 83.020,71.533 82.923,71.681 83.069 M40.619 84.281 C 39.996 84.516,39.516 84.738,39.551 84.773 C 39.615 84.837,41.852 84.037,41.986 83.903 C 42.139 83.750,41.695 83.873,40.619 84.281 M76.000 84.583 C 76.229 84.714,76.492 84.822,76.583 84.822 C 76.675 84.822,76.563 84.714,76.333 84.583 C 76.104 84.452,75.842 84.345,75.750 84.345 C 75.658 84.345,75.771 84.452,76.000 84.583 M37.083 85.811 C 25.209 91.556,16.264 101.595,11.987 113.977 C 11.628 115.018,11.337 115.956,11.343 116.060 C 11.348 116.165,11.709 115.237,12.145 114.000 C 16.577 101.431,25.307 91.658,37.250 85.894 C 38.442 85.319,39.342 84.847,39.250 84.846 C 39.158 84.844,38.183 85.279,37.083 85.811 M78.014 85.398 C 78.183 85.555,82.167 87.494,82.167 87.419 C 82.167 87.327,78.240 85.333,78.058 85.333 C 77.996 85.333,77.976 85.362,78.014 85.398 M86.333 85.552 C 86.333 85.591,86.652 85.833,87.042 86.090 C 87.431 86.346,87.662 86.450,87.554 86.320 C 87.348 86.070,86.333 85.432,86.333 85.552 M88.333 86.886 C 88.333 86.927,88.915 87.386,89.625 87.906 C 90.335 88.427,90.668 88.632,90.364 88.363 C 89.705 87.780,88.333 86.782,88.333 86.886 M82.417 87.618 C 82.508 87.712,83.311 88.242,84.201 88.796 C 93.266 94.438,100.264 103.281,104.015 113.833 C 104.455 115.071,104.819 115.998,104.824 115.894 C 104.840 115.556,103.543 111.965,102.761 110.184 C 99.101 101.851,92.660 94.179,85.225 89.295 C 83.396 88.094,82.163 87.358,82.417 87.618 M91.000 88.876 C 91.000 88.917,91.469 89.354,92.042 89.847 C 92.615 90.340,92.978 90.611,92.850 90.450 C 92.581 90.111,91.000 88.766,91.000 88.876 M95.327 92.917 C 98.313 96.035,98.573 96.289,97.376 94.917 C 96.816 94.275,95.623 93.037,94.725 92.167 C 93.455 90.934,93.588 91.101,95.327 92.917 M58.167 94.849 C 57.846 95.125,56.815 95.876,55.875 96.517 C 54.935 97.159,54.167 97.722,54.167 97.768 C 54.167 97.901,58.108 95.174,58.430 94.818 C 58.868 94.334,59.272 94.430,60.132 95.223 C 61.196 96.205,62.746 97.443,63.206 97.680 C 63.689 97.929,63.482 97.740,62.279 96.836 C 61.745 96.435,60.861 95.708,60.315 95.220 C 59.170 94.199,58.963 94.163,58.167 94.849 M98.898 96.883 C 99.251 97.314,99.575 97.667,99.617 97.667 C 99.731 97.667,98.676 96.359,98.449 96.218 C 98.343 96.153,98.545 96.452,98.898 96.883 M53.375 98.186 C 52.807 98.550,52.623 98.794,53.125 98.518 C 53.507 98.308,54.106 97.845,54.000 97.841 C 53.954 97.840,53.673 97.995,53.375 98.186 M51.710 99.256 C 51.230 99.571,50.409 100.057,49.886 100.336 C 48.850 100.888,48.575 101.083,49.088 100.901 C 49.560 100.734,52.483 98.996,52.593 98.817 C 52.729 98.597,52.670 98.627,51.710 99.256 M65.958 98.953 C 66.165 98.991,66.333 99.088,66.333 99.169 C 66.333 99.417,61.779 104.167,61.541 104.167 C 61.255 104.167,60.455 103.756,59.500 103.120 C 59.087 102.844,58.862 102.738,59.000 102.883 C 59.381 103.284,61.194 104.333,61.507 104.333 C 61.854 104.333,66.546 99.388,66.457 99.116 C 66.420 99.007,66.209 98.909,65.987 98.901 C 65.617 98.886,65.614 98.890,65.958 98.953 M54.667 111.744 L 54.667 124.321 55.625 124.970 C 56.152 125.327,56.846 125.743,57.167 125.895 C 57.821 126.205,57.635 126.069,55.981 125.026 L 54.833 124.303 54.833 111.797 L 54.833 99.291 56.044 100.437 C 56.709 101.068,57.591 101.834,58.002 102.141 C 58.724 102.680,58.721 102.674,57.917 101.977 C 57.458 101.580,56.590 100.785,55.987 100.211 C 55.383 99.636,54.840 99.167,54.778 99.167 C 54.717 99.167,54.667 104.826,54.667 111.744 M101.167 99.917 C 101.450 100.329,101.720 100.667,101.766 100.667 C 101.812 100.667,101.617 100.329,101.333 99.917 C 101.050 99.504,100.780 99.167,100.734 99.167 C 100.688 99.167,100.883 99.504,101.167 99.917 M102.087 101.261 C 102.242 101.542,102.517 101.955,102.698 102.178 L 103.028 102.583 102.746 102.072 C 102.591 101.791,102.316 101.379,102.135 101.156 L 101.806 100.750 102.087 101.261 M47.875 101.332 L 47.333 101.662 47.369 104.373 L 47.404 107.083 47.494 104.359 L 47.583 101.634 48.167 101.324 C 48.487 101.154,48.675 101.011,48.583 101.008 C 48.492 101.004,48.173 101.150,47.875 101.332 M103.917 104.333 C 104.059 104.608,104.213 104.833,104.259 104.833 C 104.304 104.833,104.226 104.608,104.083 104.333 C 103.941 104.058,103.787 103.833,103.741 103.833 C 103.696 103.833,103.774 104.058,103.917 104.333 M105.847 108.083 C 105.847 108.175,105.991 108.513,106.167 108.833 C 106.342 109.154,106.486 109.342,106.486 109.250 C 106.486 109.158,106.342 108.821,106.167 108.500 C 105.991 108.179,105.847 107.992,105.847 108.083 M47.410 118.750 C 47.410 122.692,47.432 124.280,47.458 122.280 C 47.485 120.280,47.485 117.055,47.458 115.114 C 47.431 113.172,47.410 114.808,47.410 118.750 M107.429 112.000 C 107.490 112.229,107.610 112.529,107.695 112.667 C 107.802 112.840,107.815 112.790,107.738 112.500 C 107.676 112.271,107.557 111.971,107.472 111.833 C 107.365 111.660,107.351 111.710,107.429 112.000 M108.023 113.667 C 108.023 113.804,108.088 114.067,108.167 114.250 C 108.257 114.460,108.310 114.491,108.310 114.333 C 108.310 114.196,108.245 113.933,108.167 113.750 C 108.076 113.540,108.023 113.509,108.023 113.667 M104.849 116.250 C 104.843 116.342,104.945 116.754,105.075 117.167 C 105.205 117.579,105.310 117.767,105.310 117.583 C 105.308 117.236,104.866 115.958,104.849 116.250 M11.027 116.977 C 10.920 117.332,10.839 117.726,10.845 117.853 C 10.851 117.980,10.968 117.719,11.105 117.274 C 11.242 116.829,11.324 116.435,11.287 116.398 C 11.250 116.361,11.133 116.622,11.027 116.977 M105.445 118.583 C 105.607 119.595,105.847 120.238,105.725 119.333 C 105.670 118.921,105.560 118.433,105.481 118.250 C 105.389 118.035,105.377 118.154,105.445 118.583 M10.333 119.917 C 10.219 120.521,10.160 121.049,10.201 121.090 C 10.242 121.131,10.367 120.669,10.479 120.063 C 10.591 119.456,10.650 118.928,10.611 118.889 C 10.572 118.850,10.447 119.313,10.333 119.917 M105.858 120.333 C 105.856 120.471,105.959 121.108,106.087 121.750 C 106.317 122.899,106.319 122.902,106.234 121.975 C 106.150 121.065,105.866 119.825,105.858 120.333 M109.872 121.333 C 109.872 121.654,109.906 121.785,109.948 121.625 C 109.990 121.465,109.990 121.202,109.948 121.042 C 109.906 120.881,109.872 121.013,109.872 121.333 M9.910 122.244 C 9.846 122.760,9.829 123.218,9.873 123.262 C 9.917 123.306,10.003 122.917,10.064 122.397 C 10.125 121.878,10.142 121.420,10.101 121.379 C 10.061 121.338,9.975 121.728,9.910 122.244 M106.453 124.417 C 106.504 125.150,106.572 125.781,106.606 125.819 C 106.722 125.952,106.647 124.413,106.504 123.750 C 106.401 123.271,106.387 123.459,106.453 124.417 M110.205 123.667 C 110.205 123.987,110.240 124.119,110.282 123.958 C 110.323 123.798,110.323 123.535,110.282 123.375 C 110.240 123.215,110.205 123.346,110.205 123.667 M9.705 124.000 C 9.705 124.321,9.740 124.452,9.782 124.292 C 9.823 124.131,9.823 123.869,9.782 123.708 C 9.740 123.548,9.705 123.679,9.705 124.000 M110.385 125.417 C 110.386 125.967,110.417 126.172,110.454 125.872 C 110.491 125.572,110.490 125.122,110.452 124.872 C 110.414 124.622,110.384 124.867,110.385 125.417 M9.441 126.108 C 9.309 127.674,9.331 132.555,9.476 133.917 C 9.535 134.467,9.583 132.648,9.583 129.875 C 9.583 127.102,9.576 124.833,9.566 124.833 C 9.557 124.833,9.500 125.407,9.441 126.108 M47.098 126.292 C 47.032 126.498,46.833 126.745,46.655 126.839 C 46.034 127.172,46.275 127.587,47.361 128.056 C 47.927 128.300,48.416 128.473,48.449 128.440 C 48.482 128.407,48.056 128.185,47.504 127.945 C 46.379 127.457,46.310 127.314,46.940 126.772 C 47.183 126.563,47.344 126.286,47.300 126.155 C 47.243 125.989,47.182 126.030,47.098 126.292 M58.333 126.486 C 58.654 126.654,59.104 126.839,59.333 126.898 C 59.563 126.957,59.347 126.817,58.854 126.586 C 57.820 126.102,57.471 126.036,58.333 126.486 M63.417 126.667 C 63.153 126.942,62.745 127.177,62.510 127.189 C 62.092 127.212,62.092 127.214,62.478 127.287 C 62.760 127.340,63.032 127.207,63.436 126.815 L 64.000 126.268 64.458 126.610 C 65.177 127.147,65.100 127.262,61.780 130.681 L 58.642 133.910 57.946 133.527 C 57.334 133.190,57.300 133.185,57.667 133.486 C 58.568 134.225,58.498 134.270,61.936 130.728 C 65.467 127.090,65.360 127.248,64.699 126.615 C 64.110 126.050,64.003 126.054,63.417 126.667 M106.721 127.250 C 106.722 127.892,106.752 128.134,106.788 127.788 C 106.824 127.442,106.824 126.917,106.787 126.621 C 106.750 126.325,106.721 126.608,106.721 127.250 M110.569 129.833 C 110.569 131.529,110.594 132.223,110.624 131.375 C 110.654 130.527,110.654 129.140,110.624 128.292 C 110.594 127.444,110.569 128.137,110.569 129.833 M60.708 127.282 C 60.869 127.323,61.131 127.323,61.292 127.282 C 61.452 127.240,61.321 127.205,61.000 127.205 C 60.679 127.205,60.548 127.240,60.708 127.282 M62.479 131.846 C 60.295 134.153,60.072 134.527,60.698 134.831 C 61.044 134.999,61.053 134.994,60.792 134.782 C 60.299 134.384,60.444 134.155,62.639 131.875 C 63.809 130.660,64.715 129.667,64.653 129.667 C 64.592 129.667,63.613 130.647,62.479 131.846 M65.014 129.730 C 65.184 129.885,66.833 130.664,66.833 130.589 C 66.833 130.495,65.242 129.667,65.061 129.667 C 64.997 129.667,64.976 129.695,65.014 129.730 M52.333 130.408 C 52.333 130.454,52.558 130.608,52.833 130.750 C 53.108 130.892,53.333 130.971,53.333 130.925 C 53.333 130.879,53.108 130.726,52.833 130.583 C 52.558 130.441,52.333 130.362,52.333 130.408 M67.000 130.743 C 67.000 130.789,67.300 130.980,67.667 131.167 C 68.033 131.354,68.333 131.469,68.333 131.423 C 68.333 131.378,68.033 131.187,67.667 131.000 C 67.300 130.813,67.000 130.697,67.000 130.743 M54.167 131.381 C 54.167 131.476,56.142 132.667,56.299 132.667 C 56.441 132.667,55.943 132.330,54.958 131.760 C 54.523 131.508,54.167 131.338,54.167 131.381 M106.721 132.417 C 106.722 133.058,106.752 133.300,106.788 132.955 C 106.824 132.609,106.824 132.084,106.787 131.788 C 106.750 131.492,106.721 131.775,106.721 132.417 M68.500 131.577 C 68.500 131.622,68.800 131.813,69.167 132.000 C 69.941 132.395,69.991 132.627,69.417 133.167 L 69.000 133.558 69.000 145.641 C 69.000 156.650,68.975 157.751,68.724 158.029 C 68.387 158.401,68.540 158.437,68.905 158.071 C 69.138 157.838,69.167 156.487,69.167 145.706 L 69.167 133.602 69.605 133.144 C 69.859 132.879,70.003 132.580,69.946 132.434 C 69.856 132.198,68.500 131.394,68.500 131.577 M110.385 134.250 C 110.386 134.800,110.417 135.005,110.454 134.705 C 110.491 134.406,110.490 133.956,110.452 133.705 C 110.414 133.455,110.384 133.700,110.385 134.250 M106.450 135.069 C 106.386 135.795,106.364 136.419,106.402 136.457 C 106.504 136.560,106.711 134.432,106.634 134.066 C 106.597 133.892,106.514 134.344,106.450 135.069 M61.375 135.218 C 61.663 135.450,61.859 160.333,61.573 160.333 C 61.521 160.333,60.924 159.796,60.245 159.140 C 57.998 156.967,55.386 155.177,54.843 155.437 C 54.675 155.517,53.480 156.685,52.187 158.032 C 49.786 160.531,49.506 161.016,50.476 160.987 C 50.880 160.975,50.842 160.941,50.196 160.737 C 49.814 160.617,54.607 155.500,55.102 155.500 C 55.551 155.500,58.333 157.544,59.956 159.066 C 60.895 159.947,61.701 160.667,61.748 160.667 C 61.795 160.667,61.833 154.969,61.833 148.006 L 61.833 135.345 61.458 135.163 C 61.120 134.999,61.112 135.005,61.375 135.218 M9.705 135.667 C 9.705 135.987,9.740 136.119,9.782 135.958 C 9.823 135.798,9.823 135.535,9.782 135.375 C 9.740 135.215,9.705 135.346,9.705 135.667 M110.205 136.000 C 110.205 136.321,110.240 136.452,110.282 136.292 C 110.323 136.131,110.323 135.869,110.282 135.708 C 110.240 135.548,110.205 135.679,110.205 136.000 M9.853 136.847 C 9.864 137.160,9.934 137.642,10.009 137.917 C 10.098 138.245,10.112 138.074,10.051 137.417 C 9.949 136.315,9.822 135.950,9.853 136.847 M105.939 138.606 C 105.880 139.036,105.864 139.420,105.904 139.459 C 105.943 139.498,106.027 139.183,106.091 138.758 C 106.155 138.332,106.171 137.949,106.127 137.904 C 106.083 137.860,105.998 138.176,105.939 138.606 M10.370 139.667 C 10.368 139.896,10.427 140.271,10.500 140.500 C 10.679 141.060,10.679 140.455,10.500 139.750 C 10.386 139.301,10.372 139.292,10.370 139.667 M105.524 140.607 C 105.419 141.129,105.364 141.587,105.402 141.624 C 105.440 141.662,105.559 141.269,105.667 140.750 C 105.774 140.231,105.829 139.774,105.788 139.733 C 105.748 139.692,105.629 140.086,105.524 140.607 M10.857 141.917 C 10.859 142.264,11.300 143.542,11.318 143.250 C 11.324 143.158,11.222 142.746,11.092 142.333 C 10.962 141.921,10.856 141.733,10.857 141.917 M105.014 142.597 C 104.759 143.608,104.890 143.739,105.167 142.750 C 105.284 142.332,105.341 141.952,105.294 141.906 C 105.248 141.859,105.121 142.170,105.014 142.597 M11.343 143.592 C 11.290 144.592,14.841 152.876,15.911 154.250 C 16.054 154.433,15.725 153.721,15.180 152.667 C 13.838 150.070,13.086 148.334,12.145 145.667 C 11.709 144.429,11.348 143.496,11.343 143.592 M104.205 145.288 C 103.914 146.173,103.703 146.925,103.737 146.959 C 103.771 146.993,104.039 146.299,104.333 145.417 C 104.627 144.534,104.838 143.782,104.801 143.746 C 104.765 143.709,104.497 144.404,104.205 145.288 M107.519 147.352 C 107.416 147.646,107.361 147.917,107.397 147.952 C 107.432 147.988,107.545 147.776,107.648 147.481 C 107.751 147.187,107.806 146.917,107.770 146.881 C 107.734 146.845,107.621 147.057,107.519 147.352 M102.697 149.208 C 99.856 155.968,94.516 163.003,88.745 167.588 C 85.994 169.774,85.786 169.949,86.667 169.342 C 92.034 165.638,97.349 159.630,100.877 153.278 C 101.951 151.346,103.758 147.369,103.623 147.234 C 103.586 147.197,103.169 148.085,102.697 149.208 M106.685 149.519 C 106.583 149.813,106.528 150.083,106.563 150.119 C 106.599 150.155,106.712 149.943,106.815 149.648 C 106.917 149.354,106.972 149.083,106.937 149.048 C 106.901 149.012,106.788 149.224,106.685 149.519 M106.113 150.924 C 105.722 151.745,105.777 151.885,106.186 151.109 C 106.372 150.757,106.495 150.439,106.459 150.403 C 106.423 150.367,106.267 150.602,106.113 150.924 M16.337 155.000 C 18.803 159.766,25.332 166.602,31.048 170.401 C 32.906 171.637,37.095 174.002,37.415 173.998 C 37.508 173.996,36.721 173.536,35.667 172.976 C 28.089 168.945,22.112 163.537,17.459 156.500 C 16.245 154.663,15.980 154.309,16.337 155.000 M103.917 155.333 C 103.774 155.608,103.696 155.833,103.741 155.833 C 103.787 155.833,103.941 155.608,104.083 155.333 C 104.226 155.058,104.304 154.833,104.259 154.833 C 104.213 154.833,104.059 155.058,103.917 155.333 M103.313 156.375 C 103.204 156.581,103.006 156.938,102.873 157.167 C 102.641 157.566,102.643 157.570,102.912 157.250 C 103.244 156.855,103.710 156.000,103.593 156.000 C 103.549 156.000,103.422 156.169,103.313 156.375 M101.607 159.083 C 101.089 159.862,100.700 160.500,100.744 160.500 C 100.787 160.500,101.187 159.956,101.632 159.292 C 102.592 157.858,102.708 157.667,102.618 157.667 C 102.581 157.667,102.126 158.304,101.607 159.083 M67.328 158.889 C 63.252 161.373,61.663 162.389,61.475 162.633 C 61.271 162.897,61.279 162.898,61.586 162.648 C 61.920 162.376,64.902 160.511,67.125 159.184 C 68.171 158.558,68.479 158.333,68.286 158.333 C 68.261 158.333,67.829 158.583,67.328 158.889 M51.833 161.392 C 52.800 161.874,54.778 163.343,56.212 164.643 C 57.511 165.822,57.602 165.844,58.260 165.153 C 58.530 164.871,59.237 164.297,59.833 163.878 C 60.947 163.094,61.461 162.672,61.000 162.918 C 60.387 163.246,58.706 164.513,58.260 164.983 C 57.602 165.678,57.512 165.656,56.212 164.477 C 54.296 162.739,51.753 160.973,51.216 161.009 C 51.143 161.014,51.421 161.186,51.833 161.392 M98.481 163.292 C 97.896 164.002,96.483 165.558,95.341 166.750 C 93.747 168.413,93.624 168.568,94.810 167.417 C 95.661 166.592,97.004 165.167,97.795 164.250 C 99.679 162.067,99.733 162.000,99.632 162.000 C 99.584 162.000,99.066 162.581,98.481 163.292 M92.497 169.380 C 92.175 169.675,91.537 170.243,91.080 170.641 C 90.388 171.246,90.367 171.279,90.953 170.840 C 91.737 170.253,93.296 168.848,93.167 168.844 C 93.121 168.843,92.820 169.084,92.497 169.380 M85.314 170.142 C 83.723 171.376,78.976 173.863,75.750 175.153 C 74.833 175.519,74.168 175.822,74.271 175.826 C 75.331 175.867,85.235 170.834,85.756 169.990 C 85.905 169.750,85.752 169.802,85.314 170.142 M88.250 172.765 L 87.750 173.194 88.292 172.836 C 88.590 172.639,88.833 172.445,88.833 172.405 C 88.833 172.281,88.763 172.324,88.250 172.765 M38.167 174.333 C 38.487 174.509,38.825 174.653,38.917 174.653 C 39.008 174.653,38.821 174.509,38.500 174.333 C 38.179 174.158,37.842 174.014,37.750 174.014 C 37.658 174.014,37.846 174.158,38.167 174.333 M39.500 174.903 C 39.729 175.025,40.104 175.172,40.333 175.229 C 40.563 175.286,40.450 175.188,40.083 175.012 C 39.329 174.649,38.862 174.562,39.500 174.903 M83.958 175.429 C 83.335 175.767,83.373 175.907,84.000 175.583 C 84.275 175.441,84.500 175.289,84.500 175.246 C 84.500 175.138,84.482 175.145,83.958 175.429 M40.850 175.398 C 40.979 175.536,44.344 176.671,44.574 176.654 C 44.671 176.647,44.004 176.385,43.092 176.071 C 40.964 175.340,40.729 175.269,40.850 175.398 M73.167 176.083 C 72.846 176.207,72.696 176.310,72.833 176.313 C 72.971 176.316,73.308 176.215,73.583 176.089 C 74.227 175.795,73.928 175.790,73.167 176.083 M81.833 176.583 C 81.421 176.804,81.143 176.988,81.215 176.992 C 81.392 177.003,82.667 176.348,82.667 176.247 C 82.667 176.136,82.674 176.133,81.833 176.583 M71.500 176.583 C 71.179 176.707,71.029 176.808,71.167 176.808 C 71.304 176.808,71.679 176.707,72.000 176.583 C 72.321 176.460,72.471 176.359,72.333 176.359 C 72.196 176.359,71.821 176.460,71.500 176.583 M45.083 176.808 C 45.599 177.028,46.463 177.199,46.167 177.021 C 46.029 176.939,45.654 176.825,45.333 176.768 C 44.940 176.699,44.858 176.711,45.083 176.808 M70.083 177.000 C 69.873 177.090,69.842 177.143,70.000 177.143 C 70.137 177.143,70.400 177.079,70.583 177.000 C 70.793 176.910,70.824 176.857,70.667 176.857 C 70.529 176.857,70.267 176.921,70.083 177.000 M47.000 177.311 C 47.622 177.516,48.821 177.691,48.417 177.519 C 48.233 177.440,47.746 177.330,47.333 177.275 C 46.840 177.208,46.726 177.221,47.000 177.311 M67.833 177.500 C 67.503 177.606,67.486 177.633,67.750 177.633 C 67.933 177.633,68.271 177.573,68.500 177.500 C 68.830 177.394,68.847 177.367,68.583 177.367 C 68.400 177.367,68.063 177.427,67.833 177.500 M49.482 177.826 C 49.792 177.904,50.467 178.008,50.982 178.059 C 51.690 178.128,51.779 178.115,51.352 178.008 C 51.041 177.930,50.366 177.825,49.852 177.775 C 49.144 177.706,49.054 177.718,49.482 177.826 M65.542 177.948 C 65.702 177.990,65.965 177.990,66.125 177.948 C 66.285 177.906,66.154 177.872,65.833 177.872 C 65.512 177.872,65.381 177.906,65.542 177.948 M53.000 178.336 C 53.943 178.471,56.277 178.547,56.153 178.439 C 56.115 178.406,55.183 178.339,54.083 178.291 C 52.787 178.235,52.406 178.251,53.000 178.336 M61.333 178.333 L 60.083 178.440 61.167 178.453 C 61.762 178.461,62.663 178.410,63.167 178.340 C 64.377 178.173,63.263 178.169,61.333 178.333 M57.458 178.622 C 57.848 178.657,58.485 178.657,58.875 178.622 C 59.265 178.587,58.946 178.558,58.167 178.558 C 57.387 178.558,57.069 178.587,57.458 178.622 M72.167 180.344 C 71.575 180.545,71.455 180.621,71.827 180.557 C 72.504 180.441,73.698 180.021,73.333 180.028 C 73.196 180.031,72.671 180.173,72.167 180.344 M64.375 181.948 C 64.535 181.990,64.798 181.990,64.958 181.948 C 65.119 181.906,64.987 181.872,64.667 181.872 C 64.346 181.872,64.215 181.906,64.375 181.948 M62.875 182.115 C 63.035 182.157,63.298 182.157,63.458 182.115 C 63.619 182.073,63.487 182.039,63.167 182.039 C 62.846 182.039,62.715 182.073,62.875 182.115 M61.211 182.286 C 61.464 182.325,61.839 182.324,62.044 182.284 C 62.249 182.244,62.042 182.213,61.583 182.214 C 61.125 182.216,60.957 182.248,61.211 182.286 " stroke="none" fill="#483326" fill-rule="evenodd"></path><path id="path3" d="M54.353 81.017 C 53.309 81.092,52.372 81.193,52.269 81.241 C 52.167 81.290,52.796 81.283,53.667 81.226 C 54.538 81.169,56.337 81.069,57.667 81.004 L 60.083 80.885 58.167 80.883 C 57.112 80.882,55.396 80.942,54.353 81.017 M60.181 81.060 C 60.219 81.094,61.112 81.160,62.167 81.207 C 63.399 81.263,63.786 81.247,63.250 81.162 C 62.405 81.027,60.053 80.950,60.181 81.060 M49.917 81.580 C 48.587 81.860,49.252 81.866,50.833 81.589 C 51.537 81.465,51.828 81.369,51.500 81.369 C 51.179 81.370,50.467 81.464,49.917 81.580 M66.404 81.747 C 67.680 81.977,68.753 82.136,68.788 82.101 C 68.874 82.015,66.058 81.505,64.966 81.408 C 64.480 81.366,65.128 81.518,66.404 81.747 M47.917 81.918 C 47.825 81.950,46.700 82.255,45.417 82.595 C 33.159 85.850,22.599 93.848,16.028 104.854 C 15.072 106.455,12.912 110.854,12.765 111.500 C 12.713 111.729,12.833 111.542,13.032 111.083 C 19.383 96.474,31.118 86.425,46.417 82.495 C 47.792 82.142,48.729 81.854,48.500 81.856 C 48.271 81.858,48.008 81.886,47.917 81.918 M69.750 82.428 C 70.208 82.556,70.658 82.654,70.750 82.646 C 71.032 82.622,69.605 82.192,69.250 82.194 C 69.067 82.196,69.292 82.301,69.750 82.428 M71.500 82.917 C 71.821 83.040,72.196 83.141,72.333 83.141 C 72.471 83.141,72.321 83.040,72.000 82.917 C 71.679 82.793,71.304 82.692,71.167 82.692 C 71.029 82.692,71.179 82.793,71.500 82.917 M73.167 83.417 C 73.928 83.710,74.227 83.705,73.583 83.411 C 73.308 83.285,72.971 83.184,72.833 83.187 C 72.696 83.190,72.846 83.293,73.167 83.417 M82.833 83.741 C 82.833 83.787,83.058 83.941,83.333 84.083 C 83.608 84.226,83.833 84.304,83.833 84.259 C 83.833 84.213,83.608 84.059,83.333 83.917 C 83.058 83.774,82.833 83.696,82.833 83.741 M75.181 84.065 C 75.219 84.100,76.000 84.447,76.917 84.835 C 90.257 90.483,100.370 101.533,104.559 115.037 C 104.965 116.346,105.378 117.679,105.478 118.000 L 105.659 118.583 105.571 117.953 C 105.441 117.022,104.242 113.351,103.382 111.250 C 99.018 100.585,90.673 91.491,80.552 86.368 C 77.931 85.042,74.779 83.690,75.181 84.065 M88.000 86.894 C 88.000 86.940,88.225 87.138,88.500 87.333 C 88.775 87.529,89.000 87.652,89.000 87.606 C 89.000 87.560,88.775 87.362,88.500 87.167 C 88.225 86.971,88.000 86.848,88.000 86.894 M89.833 88.216 C 89.833 88.258,90.186 88.582,90.617 88.936 C 91.048 89.289,91.347 89.491,91.282 89.384 C 91.141 89.158,89.833 88.102,89.833 88.216 M93.167 91.083 C 93.478 91.404,93.770 91.667,93.815 91.667 C 93.861 91.667,93.644 91.404,93.333 91.083 C 93.022 90.763,92.730 90.500,92.685 90.500 C 92.639 90.500,92.856 90.763,93.167 91.083 M95.000 92.750 C 95.311 93.071,95.603 93.333,95.649 93.333 C 95.695 93.333,95.478 93.071,95.167 92.750 C 94.856 92.429,94.564 92.167,94.518 92.167 C 94.472 92.167,94.689 92.429,95.000 92.750 M96.583 94.500 C 97.035 94.958,97.442 95.333,97.487 95.333 C 97.533 95.333,97.201 94.958,96.750 94.500 C 96.299 94.042,95.892 93.667,95.846 93.667 C 95.800 93.667,96.132 94.042,96.583 94.500 M58.401 94.853 C 58.066 95.224,51.420 99.676,50.210 100.339 C 49.822 100.552,49.533 100.755,49.569 100.791 C 49.716 100.938,55.568 97.171,57.828 95.475 C 59.176 94.463,58.959 94.423,60.855 96.044 C 62.440 97.399,64.375 98.681,65.173 98.903 C 65.399 98.966,65.208 98.819,64.750 98.577 C 63.395 97.861,61.832 96.753,60.534 95.590 C 59.227 94.418,58.895 94.304,58.401 94.853 M97.500 95.552 C 97.500 95.581,97.744 95.825,98.042 96.094 L 98.583 96.583 98.094 96.042 C 97.638 95.537,97.500 95.423,97.500 95.552 M54.500 111.653 L 54.500 124.305 55.147 124.818 C 55.832 125.360,58.468 126.829,58.750 126.826 C 58.842 126.825,58.317 126.507,57.583 126.119 C 56.850 125.732,55.894 125.168,55.458 124.866 L 54.667 124.317 54.667 111.742 C 54.667 104.826,54.712 99.167,54.768 99.167 C 54.824 99.167,55.449 99.710,56.156 100.375 C 58.219 102.314,60.829 104.167,61.498 104.167 C 61.772 104.167,66.333 99.442,66.333 99.158 C 66.333 99.071,66.254 99.000,66.157 99.000 C 66.060 99.000,66.019 99.062,66.066 99.138 C 66.166 99.301,61.898 103.892,61.576 103.968 C 61.010 104.102,58.380 102.261,56.167 100.181 C 55.479 99.535,54.823 99.005,54.708 99.003 C 54.543 99.001,54.500 101.640,54.500 111.653 M101.000 100.000 C 101.196 100.275,101.394 100.500,101.439 100.500 C 101.485 100.500,101.362 100.275,101.167 100.000 C 100.971 99.725,100.773 99.500,100.727 99.500 C 100.681 99.500,100.804 99.725,101.000 100.000 M48.292 101.261 L 47.500 101.673 47.471 104.378 C 47.455 105.866,47.436 111.421,47.429 116.722 L 47.417 126.361 46.958 126.756 C 46.338 127.290,46.378 127.459,47.208 127.817 C 47.598 127.985,48.401 128.353,48.994 128.636 C 49.586 128.919,50.102 129.121,50.139 129.083 C 50.204 129.019,47.395 127.669,47.185 127.664 C 46.658 127.651,46.618 127.319,47.086 126.830 L 47.583 126.311 47.598 114.262 C 47.615 100.896,47.549 101.774,48.581 101.317 C 48.995 101.134,49.333 100.950,49.333 100.909 C 49.333 100.765,49.080 100.851,48.292 101.261 M104.333 105.500 C 104.520 105.867,104.711 106.167,104.757 106.167 C 104.803 106.167,104.687 105.867,104.500 105.500 C 104.313 105.133,104.122 104.833,104.077 104.833 C 104.031 104.833,104.146 105.133,104.333 105.500 M12.201 112.863 C 11.747 114.080,10.831 117.031,10.842 117.243 C 10.847 117.339,11.250 116.217,11.737 114.750 C 12.604 112.139,12.858 111.105,12.201 112.863 M10.624 117.868 C 10.090 120.291,9.675 122.649,9.604 123.667 C 9.517 124.893,9.518 124.898,9.664 123.917 C 9.990 121.735,10.209 120.520,10.530 119.114 C 10.715 118.305,10.831 117.609,10.787 117.565 C 10.744 117.522,10.670 117.658,10.624 117.868 M105.693 118.917 C 105.696 119.100,105.799 119.625,105.921 120.083 L 106.143 120.917 106.049 120.083 C 105.996 119.625,105.894 119.100,105.821 118.917 L 105.688 118.583 105.693 118.917 M106.279 121.917 C 106.331 122.467,106.435 123.217,106.511 123.583 C 106.612 124.075,106.624 123.960,106.556 123.142 C 106.506 122.532,106.402 121.782,106.324 121.475 C 106.224 121.076,106.211 121.202,106.279 121.917 M110.042 123.917 C 110.044 124.283,110.078 124.414,110.118 124.206 C 110.158 123.999,110.156 123.699,110.115 123.540 C 110.073 123.380,110.040 123.550,110.042 123.917 M106.750 129.833 C 106.750 132.904,106.798 134.967,106.857 134.417 C 106.916 133.867,106.964 131.804,106.964 129.833 C 106.964 127.862,106.916 125.800,106.857 125.250 C 106.798 124.700,106.750 126.763,106.750 129.833 M110.212 125.833 C 110.212 126.246,110.245 126.415,110.284 126.208 C 110.324 126.002,110.324 125.665,110.284 125.458 C 110.245 125.252,110.212 125.421,110.212 125.833 M9.375 125.917 C 9.377 126.283,9.411 126.414,9.451 126.206 C 9.491 125.999,9.490 125.699,9.448 125.540 C 9.406 125.380,9.374 125.550,9.375 125.917 M63.417 126.833 C 63.153 127.108,63.006 127.333,63.089 127.333 C 63.171 127.333,63.413 127.131,63.625 126.884 L 64.011 126.435 64.462 126.886 L 64.912 127.337 61.727 130.522 L 58.542 133.707 57.312 132.960 C 55.987 132.156,51.086 129.466,50.618 129.286 C 49.864 128.997,50.526 129.406,52.458 130.421 C 53.627 131.036,55.460 132.055,56.531 132.686 C 57.602 133.317,58.532 133.833,58.598 133.833 C 58.776 133.833,64.909 127.493,64.967 127.248 C 65.014 127.052,64.261 126.333,64.009 126.333 C 63.947 126.333,63.680 126.558,63.417 126.833 M9.236 129.833 C 9.236 131.621,9.261 132.352,9.291 131.458 C 9.321 130.565,9.321 129.102,9.291 128.208 C 9.261 127.315,9.236 128.046,9.236 129.833 M59.417 127.089 C 59.692 127.215,60.067 127.317,60.250 127.315 C 60.433 127.313,60.246 127.205,59.833 127.075 C 58.908 126.783,58.759 126.788,59.417 127.089 M61.279 127.514 C 61.661 127.586,62.186 127.586,62.445 127.513 C 62.792 127.417,62.607 127.382,61.750 127.382 C 60.704 127.382,60.655 127.396,61.279 127.514 M110.398 129.917 C 110.398 131.108,110.425 131.574,110.457 130.951 C 110.489 130.329,110.489 129.354,110.457 128.785 C 110.424 128.216,110.398 128.725,110.398 129.917 M62.652 131.861 C 60.275 134.330,60.219 134.447,61.167 134.980 L 61.833 135.355 61.833 148.011 C 61.833 154.971,61.795 160.667,61.748 160.667 C 61.701 160.667,60.895 159.947,59.956 159.066 C 58.333 157.544,55.551 155.500,55.102 155.500 C 54.609 155.500,49.812 160.618,50.196 160.735 C 50.317 160.772,50.825 160.928,51.325 161.082 C 52.339 161.394,54.272 162.732,56.131 164.406 C 57.558 165.692,57.543 165.690,58.410 164.843 C 59.395 163.882,62.309 161.915,66.087 159.661 C 67.368 158.896,68.548 158.161,68.708 158.026 C 68.981 157.797,69.000 157.001,69.000 145.670 L 69.000 133.558 69.417 133.167 C 70.119 132.507,69.529 132.028,65.521 130.007 L 64.792 129.639 62.652 131.861 M67.450 131.208 C 69.824 132.503,69.886 132.570,69.250 133.167 L 68.833 133.558 68.833 145.678 L 68.833 157.799 67.625 158.538 C 62.376 161.748,59.748 163.482,58.317 164.680 L 57.510 165.356 55.905 163.999 C 53.424 161.901,52.443 161.235,51.344 160.906 C 50.788 160.740,50.333 160.555,50.333 160.495 C 50.333 160.275,54.872 155.667,55.088 155.667 C 55.552 155.667,58.315 157.697,59.943 159.234 C 60.874 160.114,61.718 160.833,61.818 160.833 C 61.948 160.833,62.000 157.200,62.000 148.085 L 62.000 135.338 61.323 134.910 C 60.428 134.345,60.437 134.327,62.735 132.006 C 65.080 129.637,64.688 129.703,67.450 131.208 M9.375 133.750 C 9.377 134.117,9.411 134.247,9.451 134.040 C 9.491 133.832,9.490 133.532,9.448 133.373 C 9.406 133.214,9.374 133.383,9.375 133.750 M110.212 133.833 C 110.212 134.246,110.245 134.415,110.284 134.208 C 110.324 134.002,110.324 133.665,110.284 133.458 C 110.245 133.252,110.212 133.421,110.212 133.833 M9.607 136.041 C 9.655 136.750,9.760 137.538,9.839 137.791 C 9.999 138.302,9.914 137.289,9.661 135.667 C 9.536 134.866,9.529 134.913,9.607 136.041 M110.042 135.750 C 110.044 136.117,110.078 136.247,110.118 136.040 C 110.158 135.832,110.156 135.532,110.115 135.373 C 110.073 135.214,110.040 135.383,110.042 135.750 M106.359 136.873 C 106.153 138.348,106.124 138.765,106.239 138.650 C 106.348 138.540,106.711 135.656,106.626 135.570 C 106.585 135.529,106.465 136.115,106.359 136.873 M10.028 138.750 C 10.026 139.025,10.204 139.925,10.424 140.750 C 10.858 142.373,10.821 141.924,10.336 139.667 C 10.169 138.887,10.030 138.475,10.028 138.750 M105.844 139.844 C 105.734 140.406,105.676 140.898,105.716 140.938 C 105.755 140.978,105.878 140.551,105.989 139.989 C 106.099 139.427,106.157 138.935,106.118 138.895 C 106.078 138.856,105.955 139.283,105.844 139.844 M105.346 142.015 C 102.260 156.403,88.829 171.103,74.508 175.765 C 74.008 175.927,73.682 176.088,73.783 176.122 C 74.870 176.484,83.544 171.905,87.798 168.724 C 96.062 162.544,104.007 150.504,105.570 141.792 C 105.737 140.857,105.555 141.038,105.346 142.015 M10.845 142.442 C 10.827 142.737,12.306 147.216,12.515 147.500 C 12.663 147.702,12.675 147.686,12.576 147.417 C 12.509 147.233,12.095 145.996,11.655 144.667 C 11.216 143.337,10.851 142.337,10.845 142.442 M12.676 147.886 C 12.662 148.089,13.369 149.687,13.441 149.614 C 13.476 149.580,13.320 149.146,13.095 148.651 C 12.870 148.155,12.682 147.811,12.676 147.886 M13.505 149.900 C 13.496 150.171,15.748 154.384,16.764 156.000 C 21.961 164.262,29.842 170.964,38.922 174.844 C 40.777 175.637,44.727 177.002,45.145 176.996 C 45.295 176.993,44.217 176.588,42.750 176.095 C 30.340 171.924,20.804 163.721,14.640 151.917 C 14.018 150.725,13.507 149.817,13.505 149.900 M104.785 153.257 C 104.355 154.124,104.038 154.833,104.083 154.833 C 104.194 154.833,105.702 151.813,105.628 151.739 C 105.595 151.707,105.216 152.389,104.785 153.257 M101.333 159.167 C 100.960 159.717,100.692 160.167,100.738 160.167 C 100.783 160.167,101.127 159.717,101.500 159.167 C 101.873 158.617,102.142 158.167,102.096 158.167 C 102.050 158.167,101.707 158.617,101.333 159.167 M97.906 163.708 L 97.417 164.250 97.958 163.760 C 98.256 163.491,98.500 163.248,98.500 163.219 C 98.500 163.090,98.362 163.203,97.906 163.708 M96.494 165.292 L 95.583 166.250 96.542 165.339 C 97.432 164.493,97.576 164.333,97.453 164.333 C 97.427 164.333,96.995 164.765,96.494 165.292 M93.494 168.292 L 92.583 169.250 93.542 168.339 C 94.432 167.493,94.576 167.333,94.453 167.333 C 94.427 167.333,93.995 167.765,93.494 168.292 M91.906 169.708 L 91.417 170.250 91.958 169.760 C 92.256 169.491,92.500 169.248,92.500 169.219 C 92.500 169.090,92.362 169.203,91.906 169.708 M88.417 172.431 L 87.917 172.861 88.458 172.502 C 88.756 172.305,89.000 172.112,89.000 172.072 C 89.000 171.947,88.929 171.991,88.417 172.431 M83.125 175.678 C 82.781 175.859,82.500 176.045,82.500 176.091 C 82.500 176.136,82.800 176.020,83.167 175.833 C 83.533 175.646,83.833 175.457,83.833 175.413 C 83.833 175.304,83.832 175.305,83.125 175.678 M72.000 176.583 C 71.313 176.800,70.851 176.982,70.974 176.989 C 71.245 177.002,73.500 176.329,73.500 176.234 C 73.500 176.126,73.319 176.168,72.000 176.583 M46.083 177.255 C 46.450 177.376,46.900 177.473,47.083 177.472 C 47.267 177.471,47.042 177.366,46.583 177.238 C 45.541 176.948,45.188 176.960,46.083 177.255 M69.583 177.257 L 68.750 177.482 69.500 177.389 C 69.912 177.338,70.362 177.232,70.500 177.153 C 70.839 176.959,70.576 176.989,69.583 177.257 M79.500 177.500 C 79.179 177.676,78.992 177.819,79.083 177.819 C 79.175 177.819,79.512 177.676,79.833 177.500 C 80.154 177.324,80.342 177.181,80.250 177.181 C 80.158 177.181,79.821 177.324,79.500 177.500 M48.250 177.754 C 48.708 177.872,49.271 177.968,49.500 177.967 C 49.729 177.966,49.467 177.864,48.917 177.740 C 47.657 177.456,47.133 177.467,48.250 177.754 M67.083 177.762 C 66.442 177.888,65.129 178.104,64.167 178.242 C 62.519 178.478,62.493 178.487,63.720 178.405 C 65.031 178.317,68.481 177.741,68.638 177.584 C 68.761 177.461,68.395 177.503,67.083 177.762 M51.167 178.261 C 51.854 178.381,52.717 178.476,53.083 178.472 C 53.450 178.468,53.038 178.364,52.167 178.242 C 50.164 177.959,49.515 177.972,51.167 178.261 M55.904 178.711 C 57.089 178.787,59.039 178.788,60.238 178.713 C 62.210 178.589,62.005 178.576,58.083 178.575 C 54.180 178.573,53.964 178.587,55.904 178.711 M73.750 179.667 C 73.540 179.757,73.509 179.810,73.667 179.810 C 73.804 179.810,74.067 179.745,74.250 179.667 C 74.460 179.576,74.491 179.523,74.333 179.523 C 74.196 179.523,73.933 179.588,73.750 179.667 M65.375 181.615 C 65.535 181.657,65.798 181.657,65.958 181.615 C 66.119 181.573,65.987 181.539,65.667 181.539 C 65.346 181.539,65.215 181.573,65.375 181.615 M62.458 181.951 C 62.665 181.991,63.002 181.991,63.208 181.951 C 63.415 181.911,63.246 181.879,62.833 181.879 C 62.421 181.879,62.252 181.911,62.458 181.951 M60.875 182.115 C 61.035 182.157,61.298 182.157,61.458 182.115 C 61.619 182.073,61.487 182.039,61.167 182.039 C 60.846 182.039,60.715 182.073,60.875 182.115 " stroke="none" fill="#64442f" fill-rule="evenodd"></path><path id="path4" d="M55.413 76.993 C 55.471 77.089,55.715 77.167,55.954 77.167 C 56.477 77.167,56.416 77.087,55.778 76.933 C 55.468 76.859,55.342 76.880,55.413 76.993 M54.983 77.072 C 54.944 77.112,54.369 77.166,53.706 77.194 C 52.172 77.257,52.124 77.500,53.646 77.500 C 54.462 77.500,54.852 77.428,55.000 77.250 C 55.184 77.029,55.170 76.885,54.983 77.072 M57.297 77.123 C 57.782 77.157,58.532 77.156,58.964 77.122 C 59.396 77.088,59.000 77.060,58.083 77.061 C 57.167 77.061,56.813 77.089,57.297 77.123 M61.244 77.324 C 61.306 77.424,61.931 77.500,62.686 77.500 C 64.423 77.500,64.252 77.224,62.489 77.181 C 61.576 77.159,61.171 77.206,61.244 77.324 M51.083 77.513 C 50.351 77.602,50.320 77.620,50.833 77.660 C 51.459 77.709,51.874 77.676,51.986 77.567 C 52.128 77.429,51.894 77.415,51.083 77.513 M64.431 77.662 C 64.622 77.739,65.035 77.742,65.348 77.668 C 65.863 77.547,65.830 77.534,65.000 77.528 C 64.343 77.523,64.182 77.561,64.431 77.662 M49.167 77.833 C 49.167 77.925,49.317 78.000,49.500 78.000 C 49.683 78.000,49.833 77.925,49.833 77.833 C 49.833 77.742,49.683 77.667,49.500 77.667 C 49.317 77.667,49.167 77.742,49.167 77.833 M66.333 77.827 C 66.333 77.922,66.618 78.000,66.967 78.000 C 67.315 78.000,67.685 78.085,67.788 78.188 C 67.906 78.306,68.150 78.327,68.446 78.245 C 68.914 78.115,68.913 78.113,68.250 77.976 C 66.903 77.698,66.333 77.654,66.333 77.827 M48.039 77.954 C 47.739 77.991,47.537 78.092,47.590 78.177 C 47.731 78.406,48.203 78.358,48.574 78.078 C 48.751 77.943,48.826 77.845,48.740 77.860 C 48.654 77.875,48.338 77.917,48.039 77.954 M47.149 78.073 C 47.109 78.113,46.862 78.185,46.601 78.233 C 45.931 78.354,45.850 78.500,46.452 78.500 C 46.731 78.500,47.053 78.387,47.167 78.250 C 47.351 78.028,47.337 77.886,47.149 78.073 M69.167 78.330 C 69.167 78.424,69.404 78.500,69.694 78.500 C 70.301 78.500,70.279 78.427,69.625 78.270 C 69.353 78.205,69.167 78.229,69.167 78.330 M70.444 78.444 C 70.195 78.694,70.378 78.801,71.247 78.909 C 71.750 78.972,72.205 79.093,72.257 79.178 C 72.388 79.390,72.833 79.375,72.833 79.159 C 72.833 79.064,72.740 79.004,72.625 79.028 C 72.510 79.051,72.248 78.977,72.042 78.862 C 71.835 78.748,71.667 78.697,71.667 78.748 C 71.667 78.800,71.445 78.727,71.175 78.588 C 70.614 78.297,70.595 78.294,70.444 78.444 M45.000 78.620 C 44.771 78.661,44.508 78.774,44.417 78.870 C 44.301 78.991,44.378 79.013,44.667 78.942 C 44.896 78.885,45.252 78.837,45.458 78.836 C 45.665 78.834,45.833 78.758,45.833 78.667 C 45.833 78.496,45.726 78.490,45.000 78.620 M43.482 79.073 C 43.442 79.113,43.223 79.185,42.996 79.232 C 41.977 79.443,41.599 79.605,41.813 79.737 C 41.932 79.811,42.107 79.793,42.201 79.699 C 42.296 79.604,42.470 79.563,42.587 79.608 C 42.704 79.653,42.849 79.609,42.910 79.511 C 42.970 79.413,43.198 79.333,43.417 79.333 C 43.635 79.333,43.860 79.258,43.917 79.167 C 44.016 79.006,43.632 78.924,43.482 79.073 M73.167 79.417 C 73.393 79.689,73.833 79.756,73.833 79.518 C 73.833 79.364,73.439 79.167,73.133 79.167 C 73.028 79.167,73.041 79.265,73.167 79.417 M74.066 79.638 C 74.132 79.746,74.327 79.833,74.500 79.833 C 74.673 79.833,74.854 79.899,74.903 79.978 C 74.953 80.058,75.208 80.167,75.472 80.219 C 75.735 80.272,76.369 80.507,76.881 80.741 C 77.393 80.975,77.867 81.167,77.935 81.167 C 78.002 81.167,78.201 81.296,78.376 81.455 C 78.684 81.734,78.688 81.730,78.503 81.323 C 78.398 81.092,78.158 80.891,77.970 80.877 C 77.783 80.863,77.488 80.723,77.315 80.566 C 77.142 80.410,77.000 80.327,77.000 80.382 C 77.000 80.438,76.747 80.377,76.438 80.248 C 76.129 80.119,75.829 80.060,75.771 80.118 C 75.714 80.175,75.667 80.143,75.667 80.046 C 75.667 79.950,75.399 79.820,75.071 79.759 C 74.744 79.697,74.357 79.601,74.211 79.545 C 74.035 79.478,73.986 79.509,74.066 79.638 M40.667 79.911 C 40.346 80.032,39.858 80.227,39.583 80.344 C 39.308 80.460,39.046 80.564,39.000 80.575 C 38.954 80.586,38.754 80.686,38.554 80.797 C 38.355 80.908,38.055 81.020,37.888 81.047 C 37.414 81.122,36.001 81.736,36.001 81.867 C 36.000 81.932,35.737 82.034,35.415 82.095 C 35.093 82.155,34.788 82.273,34.736 82.356 C 34.685 82.439,34.179 82.740,33.613 83.025 C 33.047 83.310,32.528 83.627,32.461 83.730 C 32.394 83.833,32.337 83.859,32.336 83.790 C 32.334 83.720,32.035 83.851,31.670 84.081 C 31.305 84.312,30.930 84.500,30.837 84.500 C 30.743 84.500,30.667 84.556,30.666 84.625 C 30.666 84.694,30.290 84.961,29.830 85.220 C 29.370 85.478,29.038 85.759,29.091 85.845 C 29.144 85.931,29.435 85.812,29.739 85.581 C 30.042 85.349,30.619 84.986,31.020 84.774 C 31.422 84.562,32.297 84.080,32.965 83.703 C 33.633 83.327,34.345 82.967,34.548 82.903 C 34.751 82.840,34.954 82.742,35.000 82.684 C 35.129 82.523,36.815 81.721,37.833 81.337 C 38.784 80.978,39.389 80.725,39.854 80.492 C 40.004 80.417,40.397 80.305,40.729 80.243 C 41.079 80.177,41.333 80.032,41.333 79.898 C 41.333 79.771,41.315 79.672,41.292 79.678 C 41.269 79.685,40.987 79.789,40.667 79.911 M28.667 86.000 C 28.667 86.102,28.592 86.140,28.500 86.083 C 28.408 86.027,28.333 86.060,28.333 86.157 C 28.333 86.254,28.262 86.333,28.175 86.333 C 28.089 86.333,27.507 86.716,26.884 87.183 C 26.260 87.650,25.530 88.194,25.261 88.391 C 24.144 89.211,22.333 90.873,22.333 91.077 C 22.333 91.145,22.615 90.966,22.958 90.678 C 23.302 90.390,23.658 90.100,23.750 90.033 C 24.061 89.806,25.583 88.584,25.667 88.494 C 25.712 88.444,26.482 87.868,27.377 87.213 C 28.272 86.558,28.928 85.975,28.835 85.918 C 28.743 85.861,28.667 85.898,28.667 86.000 M93.660 91.375 C 94.350 92.111,94.500 92.243,94.500 92.118 C 94.500 92.091,94.144 91.735,93.708 91.326 L 92.917 90.583 93.660 91.375 M20.912 92.306 C 19.527 93.643,17.110 96.279,17.017 96.554 C 16.981 96.662,16.756 96.988,16.517 97.278 C 15.794 98.158,14.914 99.388,14.962 99.450 C 14.987 99.482,14.819 99.684,14.587 99.898 C 14.356 100.113,14.167 100.339,14.167 100.401 C 14.167 100.515,13.499 101.512,13.320 101.667 C 13.267 101.712,13.047 102.106,12.832 102.542 C 12.617 102.977,12.387 103.333,12.322 103.333 C 12.256 103.333,12.151 103.539,12.088 103.790 C 12.025 104.041,11.917 104.285,11.847 104.332 C 11.634 104.475,10.000 107.909,10.000 108.214 C 10.000 108.371,9.931 108.500,9.847 108.500 C 9.762 108.500,9.575 108.856,9.431 109.292 C 9.134 110.185,9.114 110.333,9.292 110.333 C 9.360 110.333,9.420 110.277,9.425 110.208 C 9.446 109.881,9.780 109.085,10.684 107.205 C 11.224 106.080,11.667 105.087,11.667 104.997 C 11.667 104.907,11.742 104.833,11.833 104.833 C 11.925 104.833,12.000 104.764,12.000 104.680 C 12.000 104.463,14.738 100.058,15.624 98.850 C 16.665 97.430,19.346 94.266,19.891 93.815 C 20.092 93.647,20.164 93.464,20.082 93.330 C 20.002 93.202,20.015 93.156,20.112 93.216 C 20.283 93.322,22.290 91.401,22.152 91.263 C 22.109 91.220,21.551 91.689,20.912 92.306 M96.326 94.042 C 96.735 94.477,97.091 94.833,97.118 94.833 C 97.243 94.833,97.111 94.684,96.375 93.993 L 95.583 93.250 96.326 94.042 M8.788 110.822 C 8.738 111.012,8.761 111.167,8.839 111.167 C 9.078 111.167,9.214 110.814,9.041 110.641 C 8.935 110.535,8.847 110.598,8.788 110.822 M8.514 111.641 C 8.414 111.827,8.333 112.096,8.333 112.239 C 8.333 112.383,8.258 112.500,8.167 112.500 C 8.075 112.500,8.016 112.556,8.035 112.625 C 8.072 112.756,7.666 114.220,7.238 115.500 C 6.858 116.636,6.800 116.883,6.816 117.301 C 6.826 117.550,6.764 117.643,6.640 117.567 C 6.523 117.495,6.494 117.522,6.565 117.637 C 6.629 117.741,6.595 118.146,6.490 118.537 C 6.011 120.316,5.944 120.913,6.257 120.600 C 6.391 120.466,6.500 120.131,6.500 119.855 C 6.500 119.579,6.566 119.312,6.647 119.262 C 6.728 119.212,6.846 118.683,6.910 118.086 C 6.974 117.489,7.086 117.000,7.158 117.000 C 7.231 117.000,7.342 116.608,7.406 116.129 C 7.469 115.650,7.582 115.181,7.656 115.087 C 7.729 114.994,7.842 114.626,7.906 114.271 C 7.970 113.916,8.082 113.504,8.154 113.354 C 8.613 112.404,8.941 110.842,8.514 111.641 M5.988 121.042 C 5.860 121.492,5.864 122.333,5.995 122.333 C 6.090 122.333,6.167 122.033,6.167 121.667 C 6.167 121.142,6.063 120.779,5.988 121.042 M5.842 122.708 C 5.814 122.777,5.773 122.908,5.750 123.000 C 5.727 123.092,5.694 123.185,5.675 123.208 C 5.469 123.470,5.291 129.212,5.493 129.087 C 5.597 129.023,5.667 128.195,5.667 127.015 C 5.667 125.934,5.746 124.821,5.844 124.542 C 5.992 124.115,5.990 122.336,5.842 122.708 M110.205 124.667 C 110.205 124.987,110.240 125.119,110.282 124.958 C 110.323 124.798,110.323 124.535,110.282 124.375 C 110.240 124.215,110.205 124.346,110.205 124.667 M110.381 127.083 C 110.382 127.542,110.415 127.709,110.453 127.456 C 110.491 127.203,110.490 126.828,110.451 126.623 C 110.411 126.418,110.380 126.625,110.381 127.083 M5.372 132.664 C 5.398 133.958,5.486 134.913,5.583 134.945 C 5.780 135.011,5.656 130.765,5.455 130.565 C 5.385 130.495,5.347 131.439,5.372 132.664 M110.379 132.667 C 110.379 133.079,110.411 133.248,110.451 133.042 C 110.491 132.835,110.491 132.498,110.451 132.292 C 110.411 132.085,110.379 132.254,110.379 132.667 M110.205 135.000 C 110.205 135.321,110.240 135.452,110.282 135.292 C 110.323 135.131,110.323 134.869,110.282 134.708 C 110.240 134.548,110.205 134.679,110.205 135.000 M5.623 135.767 C 5.525 136.278,5.645 136.833,5.853 136.833 C 5.934 136.833,6.000 136.496,6.000 136.083 C 6.000 135.270,5.757 135.066,5.623 135.767 M5.908 138.065 C 5.964 138.606,6.056 139.123,6.113 139.214 C 6.170 139.306,6.210 139.596,6.202 139.857 C 6.195 140.119,6.247 140.333,6.318 140.333 C 6.388 140.333,6.450 140.577,6.453 140.875 C 6.460 141.396,6.542 141.844,6.750 142.500 C 6.804 142.669,6.880 142.976,6.920 143.183 C 6.960 143.390,7.075 143.610,7.177 143.673 C 7.279 143.736,7.344 143.838,7.322 143.899 C 7.244 144.121,7.693 145.830,7.855 145.930 C 8.044 146.047,7.872 144.856,7.661 144.583 C 7.589 144.492,7.477 144.042,7.411 143.583 C 7.345 143.125,7.233 142.675,7.162 142.583 C 7.090 142.492,6.979 141.984,6.913 141.456 C 6.848 140.928,6.728 140.455,6.647 140.405 C 6.566 140.355,6.500 140.023,6.500 139.667 C 6.500 139.311,6.440 138.983,6.367 138.937 C 6.293 138.892,6.214 138.531,6.191 138.136 C 6.168 137.740,6.072 137.342,5.977 137.250 C 5.860 137.136,5.838 137.394,5.908 138.065 M7.946 146.401 C 7.852 146.646,7.960 146.833,8.194 146.833 C 8.381 146.833,8.372 146.377,8.184 146.261 C 8.102 146.210,7.995 146.273,7.946 146.401 M8.285 147.331 C 8.332 147.514,8.434 147.624,8.512 147.576 C 8.676 147.475,8.527 147.000,8.331 147.000 C 8.258 147.000,8.237 147.149,8.285 147.331 M8.669 148.423 C 8.674 148.710,8.978 149.077,9.106 148.950 C 9.174 148.881,9.103 148.699,8.948 148.544 C 8.793 148.389,8.668 148.334,8.669 148.423 M9.016 149.458 C 9.139 149.619,9.260 149.781,9.286 149.819 C 9.312 149.858,9.333 149.726,9.333 149.528 C 9.333 149.306,9.229 149.167,9.063 149.167 C 8.831 149.167,8.825 149.209,9.016 149.458 M9.569 150.708 C 9.623 150.823,9.713 151.048,9.769 151.208 C 9.859 151.463,10.167 151.630,10.167 151.425 C 10.167 151.200,9.757 150.500,9.626 150.500 C 9.541 150.500,9.516 150.594,9.569 150.708 M10.677 153.042 C 11.038 153.788,11.333 154.497,11.333 154.616 C 11.333 154.736,11.408 154.833,11.500 154.833 C 11.592 154.833,11.667 154.946,11.667 155.083 C 11.667 155.221,11.734 155.333,11.817 155.333 C 11.900 155.333,12.046 155.540,12.142 155.792 C 12.371 156.393,13.049 157.568,13.208 157.639 C 13.277 157.669,13.333 157.794,13.333 157.917 C 13.333 158.039,13.390 158.164,13.458 158.194 C 13.570 158.244,15.326 160.754,15.750 161.469 C 15.842 161.623,15.956 161.787,16.003 161.833 C 16.051 161.879,16.602 162.537,17.228 163.295 C 17.855 164.053,18.603 164.944,18.892 165.276 C 19.877 166.407,22.415 168.868,23.124 169.378 C 23.513 169.659,23.946 170.063,24.086 170.277 C 24.226 170.491,24.446 170.667,24.573 170.667 C 24.701 170.667,24.843 170.760,24.890 170.875 C 24.947 171.018,24.978 171.022,24.987 170.889 C 24.994 170.782,24.761 170.482,24.469 170.222 C 20.103 166.339,17.885 163.888,14.533 159.250 C 13.870 158.332,12.060 155.207,11.331 153.720 C 10.828 152.695,10.328 151.818,10.219 151.771 C 10.110 151.724,10.316 152.296,10.677 153.042 M94.997 166.958 L 93.083 168.917 95.042 167.003 C 96.119 165.950,97.000 165.069,97.000 165.044 C 97.000 164.924,96.775 165.139,94.997 166.958 M25.167 171.049 C 25.167 171.166,25.373 171.384,25.625 171.535 C 25.877 171.685,26.233 171.947,26.417 172.117 C 27.300 172.938,27.972 173.347,28.098 173.143 C 28.168 173.029,28.146 172.910,28.049 172.877 C 27.952 172.845,27.263 172.373,26.519 171.828 C 25.775 171.283,25.167 170.932,25.167 171.049 M28.167 173.339 C 28.167 173.433,28.298 173.559,28.458 173.618 C 28.619 173.677,28.787 173.769,28.833 173.821 C 29.035 174.052,30.498 174.958,31.375 175.395 C 31.902 175.658,32.333 175.939,32.333 176.020 C 32.333 176.101,32.409 176.167,32.501 176.167 C 32.740 176.167,35.905 177.725,35.972 177.875 C 36.003 177.944,36.159 178.000,36.319 178.000 C 36.480 178.000,36.667 178.056,36.736 178.125 C 36.805 178.194,36.911 178.256,36.972 178.264 C 37.178 178.291,37.749 178.558,37.833 178.667 C 37.910 178.766,38.681 179.056,40.167 179.545 C 40.487 179.650,40.787 179.777,40.833 179.827 C 40.879 179.876,41.067 179.939,41.250 179.967 C 41.433 179.995,42.033 180.155,42.583 180.324 C 44.559 180.929,45.441 181.178,45.913 181.264 C 46.177 181.312,46.459 181.391,46.539 181.441 C 46.620 181.491,47.113 181.599,47.634 181.681 C 48.156 181.763,48.771 181.866,49.000 181.910 C 49.229 181.953,49.829 182.033,50.333 182.086 C 50.837 182.140,51.438 182.222,51.667 182.268 C 52.068 182.349,52.071 182.343,51.750 182.115 C 51.567 181.985,50.967 181.829,50.417 181.770 C 48.911 181.606,48.479 181.539,47.750 181.353 C 47.383 181.259,46.708 181.099,46.250 180.996 C 45.792 180.894,45.342 180.789,45.250 180.764 C 45.158 180.739,44.858 180.663,44.583 180.595 C 44.308 180.528,43.971 180.427,43.833 180.373 C 43.572 180.269,43.431 180.236,42.542 180.066 C 42.244 180.009,42.000 179.887,42.000 179.795 C 42.000 179.703,41.813 179.664,41.583 179.707 C 41.354 179.751,41.167 179.723,41.167 179.644 C 41.167 179.565,41.032 179.500,40.867 179.500 C 40.702 179.500,40.495 179.434,40.408 179.354 C 40.321 179.274,39.762 179.045,39.167 178.846 C 38.190 178.520,36.733 177.904,35.958 177.489 C 35.798 177.404,35.535 177.263,35.375 177.177 C 35.215 177.091,34.708 176.848,34.250 176.636 C 33.792 176.424,33.379 176.211,33.333 176.163 C 33.287 176.116,33.063 175.987,32.833 175.877 C 32.604 175.768,32.042 175.453,31.583 175.178 C 31.125 174.903,30.532 174.555,30.266 174.405 C 30.000 174.254,29.482 173.914,29.116 173.649 C 28.411 173.138,28.167 173.058,28.167 173.339 M61.875 182.115 C 62.035 182.157,62.298 182.157,62.458 182.115 C 62.619 182.073,62.487 182.039,62.167 182.039 C 61.846 182.039,61.715 182.073,61.875 182.115 M52.181 182.234 C 52.317 182.367,54.144 182.432,54.063 182.301 C 54.018 182.227,53.560 182.167,53.046 182.167 C 52.532 182.167,52.142 182.197,52.181 182.234 M57.417 182.328 C 53.719 182.432,54.031 182.667,57.866 182.667 C 59.858 182.667,60.407 182.617,60.607 182.417 C 60.745 182.279,60.796 182.183,60.720 182.203 C 60.645 182.223,59.158 182.279,57.417 182.328 " stroke="none" fill="#524144" fill-rule="evenodd"></path></g></svg>